<?xml version="1.0" encoding="utf-8"?>
<!-- Generator: Adobe Illustrator 27.5.0, SVG Export Plug-In . SVG Version: 6.00 Build 0)  -->
<svg version="1.1" xmlns="http://www.w3.org/2000/svg" xmlns:xlink="http://www.w3.org/1999/xlink" x="0px" y="0px"
	 viewBox="0 0 500 500" style="enable-background:new 0 0 500 500;" xml:space="preserve">
<g id="BACKGROUND">
	<rect style="fill-rule:evenodd;clip-rule:evenodd;fill:#FFFFFF;" width="500" height="500"/>
</g>
<g id="OBJECTS">
	<path style="fill-rule:evenodd;clip-rule:evenodd;fill:#96AEDB;" d="M354.968,446.292c22.994,30.713,59.104,24.399,82.733,7.134
		c29.337-21.438,42.075-60.84,17.643-79.929C408.756,337.1,313.327,390.671,354.968,446.292z"/>
	<path style="fill-rule:evenodd;clip-rule:evenodd;fill:#96AEDB;" d="M437.285,301.615c9.54,15.046,24.521,11.953,34.325,3.495
		c12.172-10.503,17.458-29.807,7.32-39.158C459.602,248.121,420.008,274.366,437.285,301.615z"/>
	<path style="fill-rule:evenodd;clip-rule:evenodd;fill:#96AEDB;" d="M48.787,201.339c26.382,89.493,242.781,136.779,341.264,85.214
		c78.464-41.084,74.751-175.693,4.647-219.332c-54.648-34.018-150.942-40.652-224.62-26.195
		C81.808,58.346,19.854,103.191,48.787,201.339z"/>
	<g>
		<g>
			<path style="fill-rule:evenodd;clip-rule:evenodd;fill:#96AEDB;" d="M86.072,92.842h327.854c6.164,0,11.206,5.042,11.206,11.206
				v230.354c0,6.164-5.042,11.206-11.206,11.206H86.072c-6.163,0-11.206-5.042-11.206-11.206V104.048
				C74.866,97.884,79.909,92.842,86.072,92.842z"/>
			<rect x="95.739" y="111.984" style="fill-rule:evenodd;clip-rule:evenodd;fill:#FFFFFF;" width="308.52" height="214.48"/>
			<rect x="107.313" y="123.29" style="fill-rule:evenodd;clip-rule:evenodd;fill:#C7D9F1;" width="285.372" height="191.868"/>
			<g>
				<path style="fill-rule:evenodd;clip-rule:evenodd;fill:#7C9ECF;" d="M350.279,153.102h-57.214v162.057h57.214V153.102
					L350.279,153.102z M307.386,200.254h7.118v10.183h-7.118V200.254L307.386,200.254z M320.039,200.254h7.117v10.183h-7.117
					V200.254L320.039,200.254z M332.692,200.254h7.118v10.183h-7.118V200.254L332.692,200.254z M307.386,216.861h7.118v10.183
					h-7.118V216.861L307.386,216.861z M307.386,233.468h7.118v10.184h-7.118V233.468L307.386,233.468z M320.039,216.861h7.117
					v10.183h-7.117V216.861L320.039,216.861z M320.039,233.468h7.117v10.184h-7.117V233.468L320.039,233.468z M332.692,216.861
					h7.118v10.183h-7.118V216.861L332.692,216.861z M332.692,233.468h7.118v10.184h-7.118V233.468z"/>
				<path style="fill-rule:evenodd;clip-rule:evenodd;fill:#7C9ECF;" d="M199.274,219.763h66.807v95.397h-66.807V219.763
					L199.274,219.763z M208.533,225.56v10.184h7.117V225.56H208.533L208.533,225.56z M221.186,225.56v10.184h7.117V225.56H221.186
					L221.186,225.56z M233.84,225.56v10.184h7.117V225.56H233.84L233.84,225.56z M208.533,242.168v10.184h7.117v-10.184H208.533
					L208.533,242.168z M208.533,258.774v10.184h7.117v-10.184H208.533L208.533,258.774z M221.186,242.168v10.184h7.117v-10.184
					H221.186L221.186,242.168z M221.186,258.774v10.184h7.117v-10.184H221.186L221.186,258.774z M233.84,242.168v10.184h7.117
					v-10.184H233.84L233.84,242.168z M233.84,258.774v10.184h7.117v-10.184H233.84z"/>
				<path style="fill-rule:evenodd;clip-rule:evenodd;fill:#7C9ECF;" d="M107.313,172.873h36.372v142.286h-36.372V172.873
					L107.313,172.873z M115.613,217.95v3.757h24.713v-3.757H115.613L115.613,217.95z M115.613,209.845v3.756h24.713v-3.756H115.613
					L115.613,209.845z M115.613,201.738v3.757h24.713v-3.757H115.613z"/>
				<rect x="143.685" y="257.491" style="fill-rule:evenodd;clip-rule:evenodd;fill:#7C9ECF;" width="79.461" height="57.668"/>
				<path style="fill-rule:evenodd;clip-rule:evenodd;fill:#7C9ECF;" d="M360.684,233.287h32.002v81.872h-32.002V233.287
					L360.684,233.287z M377.769,254.821v10.183h7.117v-10.183H377.769L377.769,254.821z M365.116,254.821v10.183h7.117v-10.183
					H365.116L365.116,254.821z M377.769,238.213v10.185h7.117v-10.185H377.769L377.769,238.213z M365.116,238.213v10.185h7.117
					v-10.185H365.116z"/>
				<rect x="321.672" y="280.133" style="fill-rule:evenodd;clip-rule:evenodd;fill:#7C9ECF;" width="71.014" height="35.026"/>
				<rect x="199.274" y="277.773" style="fill-rule:evenodd;clip-rule:evenodd;fill:#7C9ECF;" width="122.397" height="37.386"/>
				<rect x="159.545" y="238.627" style="fill-rule:evenodd;clip-rule:evenodd;fill:#7C9ECF;" width="32.002" height="57.667"/>
			</g>
			<g>
				<rect x="133.996" y="123.29" style="fill-rule:evenodd;clip-rule:evenodd;fill:#0F1E33;" width="3.886" height="76.963"/>
				<rect x="362.117" y="123.29" style="fill-rule:evenodd;clip-rule:evenodd;fill:#0F1E33;" width="3.886" height="76.963"/>
			</g>
			<g>
				<polygon style="fill-rule:evenodd;clip-rule:evenodd;fill:#FFFFFF;" points="250,134.732 113.025,134.732 109.082,127.906 
					250,127.906 390.917,127.906 386.973,134.732 				"/>
				<polygon style="fill-rule:evenodd;clip-rule:evenodd;fill:#FFFFFF;" points="250,144.743 113.025,144.743 109.082,137.917 
					250,137.917 390.917,137.917 386.973,144.743 				"/>
				<polygon style="fill-rule:evenodd;clip-rule:evenodd;fill:#FFFFFF;" points="250,154.753 113.025,154.753 109.082,147.928 
					250,147.928 390.917,147.928 386.973,154.753 				"/>
				<polygon style="fill-rule:evenodd;clip-rule:evenodd;fill:#FFFFFF;" points="250,164.764 113.025,164.764 109.082,157.939 
					250,157.939 390.917,157.939 386.973,164.764 				"/>
				<polygon style="fill-rule:evenodd;clip-rule:evenodd;fill:#FFFFFF;" points="250,174.774 113.025,174.774 109.082,167.949 
					250,167.949 390.917,167.949 386.973,174.774 				"/>
				<polygon style="fill-rule:evenodd;clip-rule:evenodd;fill:#FFFFFF;" points="250,184.786 113.025,184.786 109.082,177.96 
					250,177.96 390.917,177.96 386.973,184.786 				"/>
				<polygon style="fill-rule:evenodd;clip-rule:evenodd;fill:#FFFFFF;" points="250,194.796 113.025,194.796 109.082,187.97 
					250,187.97 390.917,187.97 386.973,194.796 				"/>
			</g>
		</g>
		<path style="fill-rule:evenodd;clip-rule:evenodd;fill:#0F1E33;" d="M424.013,104.048c0-0.619,0.502-1.121,1.12-1.121
			c0.619,0,1.121,0.502,1.121,1.121v230.354c0,3.391-1.387,6.473-3.62,8.706c-2.234,2.234-5.316,3.621-8.707,3.621H86.072
			c-0.618,0-1.12-0.502-1.12-1.121c0-0.619,0.502-1.12,1.12-1.12h327.854c2.773,0,5.294-1.136,7.121-2.964
			c1.829-1.828,2.965-4.35,2.965-7.122V104.048z"/>
	</g>
	<g>
		<g>
			<path style="fill-rule:evenodd;clip-rule:evenodd;fill:#0F1E33;" d="M201.86,174.134c-7.028,19.676-12.915,39.966-21.078,54.891
				c-9.142,16.716-22.395,24.697-12.591,47.646c24.404,57.121,138.549,48.702,162.029,0.637c8.737-17.885,1.823-32.269-6.593-49.082
				c-7.45-14.887-17.938-32.05-24.933-56.268C277.394,163.794,235.865,141.666,201.86,174.134z"/>
			<path style="fill-rule:evenodd;clip-rule:evenodd;fill:#3B627C;" d="M185.63,369.306c-4.744,11.097,40.38,14.956,6.779,54.47
				c-9.301,10.938-51.74-6.316-58.417-12.917c-6.275-6.206-8.313-20.912-0.324-45.519c12.071-37.181,33.157-77.88,50.283-85.974
				C190.175,308.391,189.688,357.713,185.63,369.306z"/>
			<path style="fill-rule:evenodd;clip-rule:evenodd;fill:#3B627C;" d="M314.369,369.306c4.744,11.097-40.38,14.956-6.779,54.47
				c9.301,10.938,51.74-6.316,58.416-12.917c6.276-6.206,8.314-20.912,0.325-45.519c-12.071-37.181-33.156-77.88-50.283-85.974
				C309.824,308.391,310.31,357.713,314.369,369.306z"/>
			<path style="fill-rule:evenodd;clip-rule:evenodd;fill:#D07E56;" d="M250.635,268.998c-10.223,0.158-17.398,1.428-29.242,3.117
				c1.559,11.82,12.374,43.673,29.242,57.734c16.869-14.062,27.684-45.914,29.243-57.734
				C268.034,270.426,260.858,269.156,250.635,268.998z"/>
			<path style="fill-rule:evenodd;clip-rule:evenodd;fill:#3B627C;" d="M316.048,279.366c3.098,21.577,6.233,39.517,7.014,61.139
				c0.778,21.622-6.283,47.174-14.808,86.49h-116.51c-8.523-39.316-15.586-64.868-14.807-86.49s3.916-39.562,7.014-61.139
				c10.674-3.146,22.43-4.909,34.672-6.842c1.604-0.254,3.098-5.728,9.936-9.786c-3.767,18.88,10.105,34.856,22.331,50.488
				c12.829-15.271,19.987-30.193,22.15-51.733c3.975,1.513,6.943,9.561,10.227,10.481
				C294.486,275.123,307.091,276.644,316.048,279.366z"/>
			<path style="fill-rule:evenodd;clip-rule:evenodd;fill:#D07E56;" d="M272.936,265.705c-0.599-6.858-1.203-14.834-0.021-26.775
				c0,0-25.377-2.066-42.953,4.16c0.27,5.653-0.925,16.206-1.966,23.467c-1.754,12.23,9.162,25.492,22.442,24.175
				C263.248,289.461,273.988,277.735,272.936,265.705z"/>
			<path style="fill-rule:evenodd;clip-rule:evenodd;fill:#0F1E33;" d="M275.825,256.654c-0.301-2.829-0.142-7.223-0.221-10.649
				c0,0-29.598,1.03-49.043,9.345c0.322,1.645,0.647,3.655,0.913,5.882C239.902,278.805,267.683,274.719,275.825,256.654z"/>
			<path style="fill-rule:evenodd;clip-rule:evenodd;fill:#0F1E33;" d="M176.655,300.771c-0.052-0.461,0.278-0.877,0.739-0.93
				c0.461-0.052,0.877,0.278,0.929,0.739c0.658,5.616,1.429,9.623,2.427,13.043c0.994,3.405,2.228,6.269,3.813,9.59
				c0.199,0.419,0.021,0.92-0.397,1.119c-0.419,0.199-0.921,0.021-1.12-0.397c-1.611-3.378-2.871-6.306-3.904-9.845
				C178.113,310.567,177.324,306.474,176.655,300.771z"/>
			<path style="fill-rule:evenodd;clip-rule:evenodd;fill:#0F1E33;" d="M314.568,301.701c-0.17-0.43,0.04-0.916,0.47-1.086
				c0.429-0.171,0.916,0.039,1.087,0.469c1.555,3.917,2.199,22.11,2.357,26.613l0.028,0.78c0.306,7.818,0.087,15.484-0.553,23.169
				c-0.638,7.685-1.697,15.403-3.068,23.321c-0.078,0.457-0.512,0.764-0.969,0.686c-0.457-0.078-0.764-0.512-0.686-0.968
				c1.362-7.865,2.415-15.535,3.05-23.178c0.635-7.645,0.854-15.247,0.553-22.972l-0.028-0.78
				C316.651,323.31,316.016,305.347,314.568,301.701L314.568,301.701z M191.253,378.91c0.08,0.457-0.226,0.893-0.683,0.972
				c-0.456,0.079-0.892-0.227-0.972-0.683c-0.543-3.052-1.047-5.767-1.554-8.504c-2.821-15.203-5.775-31.128-5.365-46.24
				c0.016-0.594,0.038-3.205,0.063-6.479c0.053-6.53,0.128-15.68,0.223-16.82c0.038-0.463,0.443-0.807,0.906-0.769
				c0.462,0.038,0.806,0.444,0.768,0.906c-0.097,1.154-0.17,10.223-0.222,16.695c-0.026,3.295-0.048,5.923-0.064,6.505
				c-0.406,14.937,2.532,30.776,5.338,45.899C190.248,373.389,190.799,376.354,191.253,378.91z"/>
			<path style="fill-rule:evenodd;clip-rule:evenodd;fill:#3E2114;" d="M326.726,336.754c0.073-0.457,0.505-0.767,0.962-0.692
				c0.456,0.074,0.767,0.505,0.692,0.962c-0.349,2.145-0.868,4.693-1.636,7.293c-0.773,2.62-1.799,5.294-3.153,7.663
				c-0.23,0.402-0.744,0.542-1.147,0.311c-0.402-0.229-0.542-0.743-0.311-1.145c1.287-2.25,2.265-4.8,3.003-7.303
				C325.881,341.317,326.386,338.839,326.726,336.754z"/>
			<path style="fill-rule:evenodd;clip-rule:evenodd;fill:#0F1E33;" d="M283.795,401.321c0.46-0.048,0.873,0.287,0.92,0.748
				c0.047,0.461-0.288,0.872-0.748,0.919c-0.173,0.018-60.153,6.544-81.982-14.732c-0.332-0.323-0.339-0.854-0.017-1.185
				c0.322-0.332,0.854-0.34,1.186-0.018C224.413,407.777,283.624,401.338,283.795,401.321z"/>
			<path style="fill-rule:evenodd;clip-rule:evenodd;fill:#0F1E33;" d="M238.027,305.79c0.345-0.308,0.873-0.278,1.182,0.065
				c0.309,0.345,0.279,0.874-0.065,1.182l-14.1,12.624c-0.345,0.309-0.874,0.278-1.182-0.065c-0.102-0.113-0.167-0.248-0.195-0.388
				c-0.648-3.096-1.315-6.072-1.974-9.023c-4.48-20.049-8.692-38.907,2.549-46.809c0.38-0.267,0.903-0.175,1.169,0.204
				c0.267,0.379,0.176,0.901-0.203,1.169c-10.328,7.259-6.233,25.588-1.88,45.074c0.57,2.553,1.146,5.127,1.679,7.624
				L238.027,305.79z"/>
			<path style="fill-rule:evenodd;clip-rule:evenodd;fill:#0F1E33;" d="M262.74,307.037c-0.344-0.308-0.373-0.837-0.065-1.182
				c0.308-0.344,0.837-0.373,1.182-0.065l13.016,11.653c2.423-11.81,4.182-23.145,4.599-32.24
				c0.365-7.957-0.284-14.152-2.402-17.357c-0.256-0.386-0.15-0.906,0.236-1.162c0.386-0.256,0.906-0.149,1.163,0.236
				c2.33,3.527,3.058,10.062,2.677,18.355c-0.438,9.564-2.335,21.538-4.926,33.934c-0.03,0.139-0.096,0.273-0.197,0.387
				c-0.308,0.344-0.837,0.374-1.182,0.065L262.74,307.037z"/>
			<path style="fill-rule:evenodd;clip-rule:evenodd;fill:#0F1E33;" d="M262.905,305.675c0.407-0.218,0.915-0.063,1.132,0.345
				c0.218,0.408,0.064,0.916-0.345,1.134c-0.026,0.014-9.381,4.955-11.061,15.039c-1.735,10.416,0.005,66.13,0.01,66.291v0.022
				h0.003v39.102c0,0.464-0.375,0.841-0.84,0.841c-0.464,0-0.84-0.377-0.84-0.841v-39.102h0.002
				c-0.03-0.985-1.737-56.101,0.011-66.589C252.793,311.017,262.876,305.69,262.905,305.675z"/>
			<path style="fill-rule:evenodd;clip-rule:evenodd;fill:#0F1E33;" d="M358.232,376.174c0.358,0.291,0.413,0.819,0.121,1.178
				c-0.292,0.359-0.819,0.414-1.179,0.122c-2.599-2.107-6.555-3.593-11.985-4.068c-4.947-0.433-11.085-0.025-18.496,1.51
				c-0.453,0.092-0.896-0.201-0.988-0.653c-0.093-0.454,0.201-0.896,0.653-0.988c7.588-1.571,13.887-1.987,18.976-1.542
				C351.116,372.237,355.379,373.86,358.232,376.174z"/>
			<path style="fill-rule:evenodd;clip-rule:evenodd;fill:#0F1E33;" d="M142.823,377.474c-0.358,0.292-0.887,0.237-1.178-0.122
				c-0.292-0.358-0.237-0.887,0.121-1.178c2.854-2.313,7.116-3.936,12.898-4.442c5.089-0.445,11.388-0.029,18.976,1.542
				c0.453,0.092,0.745,0.534,0.653,0.988c-0.093,0.452-0.535,0.745-0.988,0.653c-7.411-1.535-13.549-1.942-18.496-1.51
				C149.379,373.881,145.424,375.366,142.823,377.474z"/>
			<path style="fill-rule:evenodd;clip-rule:evenodd;fill:#0F1E33;" d="M322.588,300.58c0.052-0.461,0.468-0.791,0.929-0.739
				c0.461,0.053,0.791,0.469,0.738,0.93c-0.668,5.703-1.457,9.797-2.486,13.319c-1.032,3.539-2.293,6.467-3.903,9.845
				c-0.2,0.419-0.701,0.597-1.119,0.397c-0.42-0.199-0.598-0.7-0.398-1.119c1.585-3.322,2.819-6.185,3.813-9.59
				C321.159,310.203,321.929,306.196,322.588,300.58z"/>
			<path style="fill-rule:evenodd;clip-rule:evenodd;fill:#0F1E33;" d="M228.353,261.477c0.207-0.413,0.71-0.58,1.123-0.374
				c0.413,0.206,0.581,0.709,0.374,1.123c-1.988,3.978-1.825,9.431-0.305,15.246c1.79,6.848,5.454,14.156,9.727,20.188
				c6.174,8.715,9.819,13.086,11.177,14.643c7.418-8.319,12.646-15.827,16.095-23.941c3.541-8.333,5.22-17.336,5.483-28.545
				c0.011-0.463,0.395-0.829,0.858-0.818c0.462,0.011,0.828,0.395,0.817,0.856c-0.27,11.432-1.989,20.628-5.615,29.163
				c-3.625,8.53-9.143,16.372-17.014,25.103l-0.05,0.05c-0.336,0.316-0.867,0.301-1.184-0.037
				c-0.012-0.012-3.823-4.063-11.932-15.509c-4.382-6.185-8.143-13.69-9.983-20.731
				C226.308,271.711,226.165,265.853,228.353,261.477z"/>
		</g>
		<g>
			<g>
				<path style="fill-rule:evenodd;clip-rule:evenodd;fill:#E1A780;" d="M289.979,221.291c0.587-35.604-13.454-61.662-38.029-63.684
					c-23.112-1.899-41.972,25.18-42.56,60.782c0.351,33.011,25.411,46.445,41.388,46.15
					C262.902,264.317,288.412,253.468,289.979,221.291z"/>
				<path style="fill-rule:evenodd;clip-rule:evenodd;fill:#CA7E4A;" d="M287.918,200.777c-4.721-22.914-17.305-41.635-35.968-43.17
					c-18.47-1.519-34.222,18.793-40.105,43.849c2.134-0.385,3.939-1.673,5.909-1.846c14.904-1.304,21.194-4.291,25.387-8.284
					c3.459-3.294,5.87-8.03,7.187-6.42c11.072,13.55,20.979,11.476,31.479,14.971C284.013,200.314,286.044,200.605,287.918,200.777z
					"/>
				<path style="fill-rule:evenodd;clip-rule:evenodd;fill:#0F1E33;" d="M249.891,176.065
					c-2.825,10.769-24.149,22.245-33.834,22.563c-0.305,15.051-3.842,22.054-3.842,22.054
					c-27.665-40.333-2.777-89.849,36.035-73.663c18.064-12.668,44.368,0.406,49.765,22.296c3.367,13.658-2.638,35.571-9.849,48.151
					c0,0-3.011-5.656-5.339-20.014c-1.657-0.289-6.546-1.794-8.03-2.14C258.03,191.405,251.914,184.024,249.891,176.065z"/>
				<g>
					<path style="fill-rule:evenodd;clip-rule:evenodd;fill:#E1A780;" d="M301.402,210.167c-5.007-2.521-11.872,1.644-15.315,9.294
						c-3.445,7.649-2.175,15.906,2.833,18.427c5.012,2.521,11.873-1.645,15.317-9.295
						C307.683,220.943,306.413,212.686,301.402,210.167z"/>
					<path style="fill-rule:evenodd;clip-rule:evenodd;fill:#CA7E4A;" d="M289.488,224.097c-0.168,1.396,3.405,1.293,3.817,2.751
						c0.995,3.513-1.432,5.261-0.699,6.042c1.35,1.441,3.453,0.873,6.307-3.426c5.707-8.597,1.616-17.707-3.1-14.838
						C291.899,217.011,289.977,220.033,289.488,224.097z"/>
					<path style="fill-rule:evenodd;clip-rule:evenodd;fill:#FFFFFF;" d="M289.596,227.365c1.161,0.139,1.998,1.218,1.865,2.405
						c-0.133,1.19-1.183,2.041-2.346,1.901c-1.162-0.14-1.998-1.217-1.865-2.405C287.383,228.076,288.434,227.226,289.596,227.365z"
						/>
					<path style="fill-rule:evenodd;clip-rule:evenodd;fill:#0F1E33;" d="M301.856,221.309c-0.065,0.458-0.49,0.778-0.949,0.712
						c-0.458-0.064-0.777-0.49-0.713-0.948c0.39-2.726-0.059-4.329-0.934-5.056c-0.42-0.351-0.967-0.501-1.578-0.48
						c-0.68,0.025-1.439,0.262-2.205,0.674c-2.289,1.229-4.525,3.957-5.059,7.367c1.009,0.176,1.851,0.449,2.533,0.816
						c0.838,0.45,1.438,1.043,1.811,1.771c0.371,0.726,0.501,1.556,0.395,2.485c-0.118,1.05-0.538,2.237-1.245,3.552
						c-0.219,0.407-0.727,0.561-1.137,0.341c-0.407-0.22-0.56-0.727-0.341-1.136c0.605-1.125,0.96-2.108,1.055-2.941
						c0.069-0.604-0.002-1.119-0.217-1.539c-0.212-0.416-0.582-0.77-1.114-1.057c-0.669-0.359-1.58-0.609-2.739-0.742
						c-0.457-0.039-0.799-0.439-0.765-0.898c0.337-4.389,3.148-7.948,6.03-9.497c0.986-0.531,1.996-0.836,2.94-0.87
						c1.014-0.037,1.95,0.235,2.707,0.866C301.634,215.811,302.338,217.925,301.856,221.309z"/>
				</g>
				<g>
					<path style="fill-rule:evenodd;clip-rule:evenodd;fill:#E1A780;" d="M198.016,210.167c5.007-2.521,11.872,1.644,15.316,9.294
						c3.444,7.649,2.175,15.906-2.834,18.427c-5.01,2.521-11.873-1.645-15.317-9.295
						C191.734,220.943,193.004,212.686,198.016,210.167z"/>
					<path style="fill-rule:evenodd;clip-rule:evenodd;fill:#CA7E4A;" d="M209.929,224.097c0.168,1.396-3.405,1.293-3.817,2.751
						c-0.994,3.513,1.432,5.261,0.7,6.042c-1.351,1.441-3.453,0.873-6.307-3.426c-5.707-8.597-1.617-17.707,3.099-14.838
						C207.519,217.011,209.441,220.033,209.929,224.097z"/>
					<path style="fill-rule:evenodd;clip-rule:evenodd;fill:#FFFFFF;" d="M209.822,227.365c-1.161,0.139-1.999,1.218-1.865,2.405
						c0.133,1.19,1.183,2.041,2.346,1.901c1.162-0.14,1.998-1.217,1.865-2.405C212.036,228.076,210.984,227.226,209.822,227.365z"/>
					<path style="fill-rule:evenodd;clip-rule:evenodd;fill:#0F1E33;" d="M199.308,221.313c0.049,0.461-0.284,0.874-0.745,0.923
						c-0.461,0.049-0.874-0.285-0.923-0.745c-0.358-3.317,0.278-5.459,1.449-6.615c0.715-0.706,1.609-1.045,2.597-1.061
						c0.917-0.015,1.902,0.258,2.879,0.774c2.686,1.426,5.438,4.802,6.445,9.205c0.103,0.452-0.18,0.901-0.631,1.005
						c-0.039,0.01-0.079,0.015-0.118,0.019c-1.229,0.13-2.273,0.548-3.038,1.159c-0.482,0.384-0.851,0.845-1.081,1.355
						c-0.226,0.502-0.321,1.058-0.26,1.642c0.079,0.77,0.431,1.604,1.106,2.451c0.287,0.362,0.228,0.891-0.135,1.179
						c-0.363,0.288-0.891,0.228-1.179-0.135c-0.885-1.108-1.35-2.243-1.462-3.324c-0.092-0.889,0.054-1.736,0.399-2.501
						c0.341-0.756,0.875-1.43,1.566-1.98c0.797-0.637,1.807-1.111,2.969-1.363c-1.024-3.474-3.225-6.092-5.364-7.227
						c-0.735-0.389-1.445-0.594-2.071-0.584c-0.557,0.008-1.057,0.194-1.448,0.581C199.44,216.884,199.011,218.563,199.308,221.313z
						"/>
				</g>
				<path style="fill-rule:evenodd;clip-rule:evenodd;fill:#0F1E33;" d="M250.092,173.259c-0.593,6.403-4.032,19.686-17.434,24.431
					c-13.401,4.744,3.32-4.033,7.827-13.758C244.992,174.207,250.092,173.259,250.092,173.259z"/>
				<path style="fill-rule:evenodd;clip-rule:evenodd;fill:#0F1E33;" d="M250.092,173.259c0.592,6.403,4.032,19.686,17.434,24.431
					c13.4,4.744-3.322-4.033-7.828-13.758C255.191,174.207,250.092,173.259,250.092,173.259z"/>
				<path style="fill-rule:evenodd;clip-rule:evenodd;fill:#163559;" d="M290.132,154.388c-20.048,5.492-52.705,2.971-75.013-4.124
					c-3.085,2.438-5.758,5.491-7.945,9.02c0.91,0.416,1.845,0.843,2.803,1.28c2.215,1.012,4.51,1.937,6.868,2.781
					c3.696,1.324,7.549,2.451,11.494,3.408c0.4,0.097,0.801,0.191,1.203,0.286c15.271,3.552,31.821,4.604,45.991,4.614
					c0.465,0,0.929,0,1.389-0.003c7.258-0.028,13.845-0.325,19.252-0.685c0.745-0.05,1.469-0.101,2.168-0.151
					c-0.098-0.511-0.206-1.011-0.327-1.501C296.618,163.651,293.822,158.577,290.132,154.388z"/>
			</g>
			<g>
				<g>
					<path style="fill-rule:evenodd;clip-rule:evenodd;fill:#CA7E4A;" d="M275.067,226.232c4.207,0,7.617,2.658,7.617,5.936
						c0,3.278-3.41,5.936-7.617,5.936s-7.618-2.657-7.618-5.936C267.449,228.891,270.86,226.232,275.067,226.232z"/>
					<path style="fill-rule:evenodd;clip-rule:evenodd;fill:#CA7E4A;" d="M225.35,226.232c4.207,0,7.618,2.658,7.618,5.936
						c0,3.278-3.411,5.936-7.618,5.936s-7.617-2.657-7.617-5.936C217.732,228.891,221.143,226.232,225.35,226.232z"/>
				</g>
				<path style="fill-rule:evenodd;clip-rule:evenodd;fill:#0F1E33;" d="M230.966,210.901c-2.588,0-4.687,2.181-4.687,4.871
					c0,2.689,2.099,4.87,4.687,4.87c2.59,0,4.688-2.181,4.688-4.87C235.654,213.082,233.556,210.901,230.966,210.901z"/>
				<path style="fill-rule:evenodd;clip-rule:evenodd;fill:#FFFFFF;" d="M233.026,211.089c-0.713,0-1.29,0.6-1.29,1.34
					c0,0.74,0.577,1.341,1.29,1.341c0.712,0,1.289-0.601,1.289-1.341C234.315,211.689,233.738,211.089,233.026,211.089z"/>
				<path style="fill-rule:evenodd;clip-rule:evenodd;fill:#0F1E33;" d="M268.565,210.901c2.589,0,4.688,2.181,4.688,4.871
					c0,2.689-2.099,4.87-4.688,4.87c-2.589,0-4.688-2.181-4.688-4.87C263.878,213.082,265.977,210.901,268.565,210.901z"/>
				<path style="fill-rule:evenodd;clip-rule:evenodd;fill:#FFFFFF;" d="M270.522,210.905c0.713,0,1.29,0.601,1.29,1.341
					c0,0.74-0.577,1.34-1.29,1.34c-0.713,0-1.29-0.6-1.29-1.34C269.232,211.506,269.81,210.905,270.522,210.905z"/>
				<path style="fill-rule:evenodd;clip-rule:evenodd;fill:#CA7E4A;" d="M244.769,231.372c0.073-0.393,2.096,0.354,4.908,0.635
					c2.465,0.248,5.86-0.346,5.815-0.103c-0.461,2.494-3.254,5.141-6.058,4.728C246.633,236.222,244.307,233.864,244.769,231.372z"
					/>
				<path style="fill-rule:evenodd;clip-rule:evenodd;fill:#FFFFFF;" d="M252.539,222.198c0.542-0.02,1.199,2.505,1.249,4.018
					c0.049,1.514-1.92,1.581-1.969,0.069C251.769,224.771,251.995,222.216,252.539,222.198z"/>
				<path style="fill-rule:evenodd;clip-rule:evenodd;fill:#CA7E4A;" d="M244.342,252.163c0.033-0.398,2.119,0.129,4.945,0.107
					c2.476-0.018,5.742-0.621,5.723-0.374c-0.214,2.529-2.677,5.111-5.506,5C246.676,256.788,244.129,254.693,244.342,252.163z"/>
				<g>
					<path style="fill-rule:evenodd;clip-rule:evenodd;fill:#0F1E33;" d="M238.444,204.775c1.149-1.888-0.709-3.511-2.607-4.266
						c-4.131-1.639-11.318,0.343-12.34,3.854c-0.447,1.533,3.841,0.947,7.982,0.895
						C234.571,205.221,237.592,206.176,238.444,204.775z"/>
					<path style="fill-rule:evenodd;clip-rule:evenodd;fill:#0F1E33;" d="M261.102,204.87c-1.135-1.897,0.735-3.506,2.641-4.244
						c4.143-1.606,11.314,0.435,12.31,3.955c0.435,1.537-3.85,0.914-7.99,0.829C264.971,205.346,261.943,206.276,261.102,204.87z"/>
				</g>
				<path style="fill-rule:evenodd;clip-rule:evenodd;fill:#0F1E33;" d="M258.042,242.826c0.321-0.334,0.852-0.344,1.186-0.023
					c0.333,0.32,0.343,0.851,0.023,1.185c-0.089,0.093-0.181,0.184-0.273,0.271c-2.276,2.191-5.625,3.349-9.004,3.367
					c-3.377,0.021-6.805-1.094-9.246-3.442c-0.1-0.097-0.198-0.196-0.295-0.297c-0.321-0.333-0.311-0.863,0.023-1.185
					c0.334-0.321,0.864-0.311,1.186,0.023l0.25,0.249c2.11,2.031,5.107,2.995,8.076,2.977c2.967-0.017,5.888-1.014,7.849-2.9
					L258.042,242.826z"/>
				<path style="fill-rule:evenodd;clip-rule:evenodd;fill:#0F1E33;" d="M244.404,232.3c-0.434-0.165-0.651-0.65-0.486-1.084
					c0.165-0.433,0.65-0.65,1.084-0.485c1.496,0.572,3.146,0.827,4.796,0.809c1.753-0.018,3.508-0.344,5.085-0.922
					c0.436-0.159,0.918,0.064,1.077,0.499c0.159,0.436-0.065,0.917-0.499,1.077c-1.744,0.639-3.695,1-5.65,1.02
					C247.954,233.232,246.095,232.945,244.404,232.3z"/>
			</g>
		</g>
		<g>
			<polygon style="fill-rule:evenodd;clip-rule:evenodd;fill:#0F1E33;" points="327.739,427.321 329.502,401.844 170.48,401.844 
				172.243,427.321 			"/>
			<g>
				<path style="fill-rule:evenodd;clip-rule:evenodd;fill:#C0C6CC;" d="M328.861,411.102c1.774-25.623,3.546-51.244,5.317-76.867
					c0.302-4.372-0.655-7.153-6.337-7.153c-52.207,0-102.993,0-155.2,0c-5.64,0-7.227,1.537-6.809,7.596
					c1.742,25.208,3.488,50.415,5.232,75.622c0.228,3.297,1.462,4.38,4.585,4.38c49.929,0,99.202,0,149.132,0
					C327.477,414.679,328.681,413.718,328.861,411.102z"/>
				<path style="fill-rule:evenodd;clip-rule:evenodd;fill:#FFFFFF;" d="M334.609,328.918c0.548,0.747,0.386,1.797-0.361,2.344
					c-0.747,0.548-1.796,0.386-2.345-0.361c-0.264-0.361-0.657-0.651-1.214-0.858c-0.688-0.257-1.621-0.392-2.848-0.392h-155.2
					c-1.299,0-2.328,0.08-3.102,0.278c-0.613,0.158-1.058,0.385-1.349,0.706c-0.62,0.686-1.679,0.738-2.364,0.118
					c-0.686-0.62-0.738-1.678-0.118-2.364c0.756-0.833,1.741-1.379,3.003-1.703c1.102-0.284,2.395-0.397,3.93-0.397h155.2
					c1.616,0,2.936,0.213,4.017,0.615C333.071,327.355,333.964,328.036,334.609,328.918z"/>
				<path style="fill-rule:evenodd;clip-rule:evenodd;fill:#FFFFFF;" d="M252.809,365.684l9.568,8.782
					c1.546,1.419,1.541,3.744-0.01,5.168l-9.548,8.764c-1.552,1.424-4.084,1.428-5.63,0.009l-9.568-8.782
					c-1.545-1.418-1.541-3.744,0.011-5.168l9.547-8.764C248.729,364.27,251.263,364.265,252.809,365.684z"/>
			</g>
		</g>
	</g>
	<g>
		<path style="fill-rule:evenodd;clip-rule:evenodd;fill:#FFFFFF;" d="M440.834,87.43c-6.916-30.425-33.378-45.982-62.983-38.397
			c-62.124,15.916-40.869,113.365,24.933,97.2C431.529,139.173,444.131,115.963,440.834,87.43z"/>
		<g>
			<g>
				<path style="fill-rule:evenodd;clip-rule:evenodd;fill:#E4A636;" d="M389.946,68.327c13.257,0,24.004,10.747,24.004,24.004
					c0,22.62-15.78,11.173-15.78,34.227h-16.446c0-23.054-15.78-11.606-15.78-34.227C365.943,79.074,376.689,68.327,389.946,68.327z
					"/>
				<path style="fill-rule:evenodd;clip-rule:evenodd;fill:#0F1E33;" d="M381.612,126.558h16.446v0.445
					c0,4.523-3.7,8.224-8.224,8.224l0,0c-4.523,0-8.223-3.701-8.223-8.224V126.558z"/>
				<path style="fill-rule:evenodd;clip-rule:evenodd;fill:#0F1E33;" d="M387.193,126.417c0.078,0.457-0.23,0.891-0.687,0.969
					c-0.457,0.077-0.891-0.229-0.968-0.686c-0.34-1.959-1.105-5.842-1.924-9.891c-0.804-3.972-1.7-8.323-2.266-11.061
					c-0.247-1.194-0.232-2.139-0.043-2.852c0.171-0.647,0.485-1.125,0.888-1.444c0.433-0.343,0.945-0.493,1.485-0.469
					c0.471,0.021,0.953,0.178,1.404,0.454c0.12,0.073,0.235,0.155,0.35,0.246c0.232-0.31,0.498-0.582,0.791-0.801
					c1.075-0.801,2.197-0.521,3.176,0.308c0.289,0.244,0.563,0.541,0.816,0.87c0.579-0.811,1.286-1.435,2.052-1.603
					c1.221-0.269,2.131,0.646,2.711,1.898c0.561-0.813,1.069-1.286,1.523-1.5c0.622-0.293,1.157-0.204,1.611,0.158
					c0.337,0.269,0.581,0.688,0.746,1.193c0.382,1.168,0.393,3.026,0.162,4.219l-4.198,19.915c-0.095,0.453-0.538,0.744-0.992,0.649
					c-0.452-0.094-0.744-0.538-0.65-0.991l4.191-19.888c0.19-0.977,0.189-2.473-0.108-3.386c-0.044-0.132-0.087-0.239-0.129-0.312
					c-0.28,0.179-0.668,0.653-1.185,1.536l-0.329,0.567c0.072,0.444,0.109,0.88,0.111,1.269c0.003,0.628-0.106,1.17-0.335,1.507
					c-0.402,0.592-0.945,0.743-1.631,0.278l-0.002-0.002c-0.733-0.496-0.745-1.312-0.384-2.282c0.122-0.325,0.287-0.674,0.477-1.035
					c-0.261-1.131-0.721-2.266-1.233-2.153c-0.539,0.118-1.058,0.754-1.464,1.542c0.295,0.645,0.503,1.314,0.591,1.914
					c0.177,1.216-0.126,2.222-1.121,2.563l-0.051,0.016c-0.639,0.203-1.132,0.041-1.492-0.387c-0.27-0.321-0.397-0.779-0.404-1.314
					c-0.004-0.415,0.063-0.899,0.186-1.405c0.103-0.426,0.253-0.874,0.44-1.317c-0.289-0.493-0.63-0.934-0.991-1.239
					c-0.387-0.327-0.785-0.472-1.095-0.242c-0.245,0.183-0.463,0.444-0.645,0.751c0.108,0.164,0.21,0.333,0.305,0.505
					c0.529,0.959,0.848,2.033,0.811,2.715c-0.044,0.821-0.251,1.353-0.538,1.653c-0.303,0.313-0.663,0.415-1.051,0.346
					c-0.281-0.051-0.543-0.2-0.77-0.425c-0.439-0.434-0.846-1.283-0.962-2.197c-0.094-0.742,0.008-1.581,0.268-2.357
					c-0.14-0.141-0.283-0.26-0.43-0.35c-0.212-0.13-0.42-0.203-0.603-0.211c-0.142-0.007-0.27,0.027-0.37,0.107
					c-0.129,0.103-0.238,0.285-0.311,0.559c-0.127,0.48-0.128,1.167,0.064,2.089c0.54,2.616,1.411,6.845,2.266,11.067
					C386.094,120.626,386.872,124.557,387.193,126.417z"/>
			</g>
			<path style="fill-rule:evenodd;clip-rule:evenodd;fill:#0F1E33;" d="M409.448,79.822c-0.25-0.39-0.138-0.908,0.252-1.158
				c0.391-0.25,0.909-0.137,1.159,0.253c1.262,1.964,2.257,4.123,2.93,6.421c0.651,2.225,1.002,4.572,1.002,6.993
				c0,11.683-4.084,14.629-8.186,17.59c-3.788,2.733-7.595,5.481-7.595,16.637c0,0.465-0.377,0.841-0.841,0.841h-16.446
				c-0.465,0-0.841-0.376-0.841-0.841c0-0.464,0.376-0.84,0.841-0.84h15.614c0.19-11.309,4.249-14.24,8.289-17.156
				c3.75-2.706,7.482-5.4,7.482-16.23c0-2.272-0.324-4.463-0.929-6.526C411.556,83.67,410.628,81.659,409.448,79.822z"/>
			<path style="fill-rule:evenodd;clip-rule:evenodd;fill:#FFFFFF;" d="M384.46,68.666c0.443-0.131,0.909,0.124,1.04,0.568
				c0.13,0.444-0.123,0.91-0.568,1.04c-5.51,1.628-9.617,4.306-12.483,7.801c-3.054,3.722-4.717,8.396-5.185,13.737
				c-0.039,0.462-0.447,0.805-0.908,0.765c-0.464-0.039-0.806-0.446-0.767-0.909c0.496-5.668,2.282-10.654,5.565-14.657
				C374.232,73.26,378.611,70.394,384.46,68.666z"/>
		</g>
		<path style="fill-rule:evenodd;clip-rule:evenodd;fill:#0F1E33;" d="M402.984,147.048c-0.45,0.111-0.905-0.164-1.015-0.613
			c-0.111-0.45,0.163-0.904,0.612-1.015c13.776-3.384,23.777-10.523,30.034-20.191c6.599-10.198,9.051-23.236,7.388-37.673
			c-0.13-0.568-0.262-1.112-0.395-1.631c-3.621-14.135-11.613-24.845-22.184-31.224s-23.733-8.435-37.692-5.262
			c-0.578,0.131-1.138,0.267-1.676,0.404c-0.448,0.114-0.904-0.156-1.018-0.604c-0.114-0.448,0.155-0.904,0.604-1.018
			c0.596-0.153,1.17-0.293,1.722-0.418c14.398-3.272,27.992-1.141,38.928,5.459c10.936,6.6,19.201,17.662,22.938,32.247
			c0.146,0.575,0.283,1.136,0.407,1.681c0.014,0.046,0.023,0.094,0.029,0.144c1.715,14.832-0.824,28.263-7.647,38.807
			C427.536,136.163,417.198,143.556,402.984,147.048z"/>
	</g>
	<path style="fill-rule:evenodd;clip-rule:evenodd;fill:#96AEDB;" d="M441.57,339.052c8.609,3.152,14.522-1.199,16.56-6.286
		c2.529-6.317-0.57-14.192-7.829-15.232C436.459,315.551,425.977,333.342,441.57,339.052z"/>
	<g>
		<g>
			<path style="fill-rule:evenodd;clip-rule:evenodd;fill:#FFFFFF;" d="M152.823,107.506c-22.259-21.45-73.635-25.182-98.374-4.981
				c-23.7,19.354-4.922,41.439,19.34,49.714c9.516,13.219,36.604,16.691,36.604,16.691s-5.321-4.578-7.624-13.172
				C135.59,154.307,175.393,138.415,152.823,107.506z"/>
			<g>
				<path style="fill-rule:evenodd;clip-rule:evenodd;fill:#96AEDB;" d="M141.173,126.059c1.685,0,3.059-1.374,3.059-3.059
					s-1.374-3.059-3.059-3.059c-1.684,0-3.058,1.374-3.058,3.059S139.489,126.059,141.173,126.059z"/>
				<circle style="fill-rule:evenodd;clip-rule:evenodd;fill:#96AEDB;" cx="129.824" cy="123" r="3.059"/>
				<path style="fill-rule:evenodd;clip-rule:evenodd;fill:#96AEDB;" d="M118.475,126.059c1.685,0,3.06-1.374,3.06-3.059
					s-1.375-3.059-3.06-3.059c-1.685,0-3.059,1.374-3.059,3.059S116.79,126.059,118.475,126.059z"/>
				
					<ellipse transform="matrix(0.925 -0.3799 0.3799 0.925 -38.6928 49.9119)" style="fill-rule:evenodd;clip-rule:evenodd;fill:#96AEDB;" cx="107.126" cy="123" rx="3.059" ry="3.059"/>
				<path style="fill-rule:evenodd;clip-rule:evenodd;fill:#96AEDB;" d="M95.776,126.059c1.684,0,3.059-1.374,3.059-3.059
					s-1.374-3.059-3.059-3.059c-1.684,0-3.058,1.374-3.058,3.059S94.093,126.059,95.776,126.059z"/>
				<circle style="fill-rule:evenodd;clip-rule:evenodd;fill:#96AEDB;" cx="84.428" cy="123" r="3.059"/>
				<path style="fill-rule:evenodd;clip-rule:evenodd;fill:#96AEDB;" d="M73.144,126.059c1.685,0,3.06-1.374,3.06-3.059
					s-1.375-3.059-3.06-3.059c-1.684,0-3.059,1.374-3.059,3.059S71.46,126.059,73.144,126.059z"/>
				<path style="fill-rule:evenodd;clip-rule:evenodd;fill:#96AEDB;" d="M61.796,126.059c1.685,0,3.059-1.374,3.059-3.059
					s-1.374-3.059-3.059-3.059c-1.685,0-3.06,1.374-3.06,3.059S60.111,126.059,61.796,126.059z"/>
			</g>
		</g>
		<path style="fill-rule:evenodd;clip-rule:evenodd;fill:#0F1E33;" d="M73.109,152.727c-0.271-0.376-0.186-0.899,0.19-1.169
			c0.375-0.27,0.898-0.185,1.168,0.19c7.608,10.567,26.817,14.779,33.608,15.968c-1.822-2.137-4.606-6.102-6.117-11.742
			c-0.119-0.448,0.146-0.908,0.594-1.027c0.077-0.02,0.154-0.03,0.23-0.029c16.429-0.733,34.591-5.1,45.642-13.169
			c3.258-2.379,5.889-5.077,7.659-8.095c1.749-2.982,2.658-6.288,2.497-9.917c-0.207-4.685-2.191-9.928-6.435-15.739
			c-0.271-0.374-0.189-0.897,0.185-1.169c0.373-0.272,0.896-0.189,1.169,0.184c4.451,6.097,6.534,11.648,6.756,16.652
			c0.175,3.967-0.817,7.579-2.728,10.837c-1.89,3.222-4.678,6.088-8.118,8.6c-11.103,8.105-29.102,12.562-45.542,13.441
			c2.275,7.424,6.735,11.456,7.061,11.743c0.213,0.178,0.333,0.457,0.295,0.753c-0.06,0.458-0.479,0.782-0.938,0.722
			C110.206,169.751,82.839,166.242,73.109,152.727z"/>
	</g>
	<g>
		<path style="fill-rule:evenodd;clip-rule:evenodd;fill:#E4A636;" d="M119.719,319.764c8.136-5.288,8.598-19.008-2.026-35.351
			l-29.459,19.148C98.856,319.905,111.584,325.052,119.719,319.764z"/>
		<path style="fill-rule:evenodd;clip-rule:evenodd;fill:#0F1E33;" d="M125.729,305.982c-0.091-2.162-0.471-4.493-1.157-6.961
			c-4.112-3.966-10.566-8.966-16.396-8.237c-0.123,0.016-0.246,0.034-0.37,0.054l-14.446,9.392
			c-1.704,1.715-3.167,3.361-4.254,4.642c5.711,8.371,11.965,13.579,17.755,15.738L125.729,305.982z"/>
		<path style="fill-rule:evenodd;clip-rule:evenodd;fill:#0F1E33;" d="M42.871,301.342c-0.147-1.101,0.625-2.113,1.726-2.261
			c1.102-0.147,2.114,0.624,2.262,1.726c15.421,112.574,16.897,115.986,16.902,116c0.369,1.049-0.181,2.199-1.229,2.568
			c-1.049,0.37-2.199-0.181-2.568-1.228C59.958,418.131,58.353,414.362,42.871,301.342z"/>
		<path style="fill-rule:evenodd;clip-rule:evenodd;fill:#0F1E33;" d="M66.395,394.982c0.191,1.096-0.542,2.142-1.639,2.332
			c-1.097,0.191-2.141-0.542-2.332-1.639c-5.477-31.296-8.213-52.998-10.114-68.089c-0.997-7.909-1.762-13.972-2.606-18.802
			c-3.453-19.733,2.086-32.66,10.595-39.307c3.758-2.935,8.085-4.642,12.481-5.168c4.396-0.527,8.871,0.125,12.926,1.903
			c8.416,3.692,14.988,12.2,15.222,25.043c0.018,1.109-0.868,2.023-1.978,2.041c-1.109,0.017-2.023-0.868-2.041-1.978
			c-0.201-11.048-5.731-18.313-12.811-21.418c-3.392-1.488-7.146-2.032-10.845-1.59c-3.698,0.443-7.332,1.873-10.481,4.333
			c-7.452,5.82-12.252,17.424-9.099,35.446c0.817,4.673,1.601,10.886,2.622,18.991C58.182,342.032,60.892,363.529,66.395,394.982z"
			/>
		<path style="fill-rule:evenodd;clip-rule:evenodd;fill:#6B8FAE;" d="M88.263,271.221c-12.832,8.34-13.561,29.982,3.195,55.76
			l46.466-30.204C121.168,270.999,101.093,262.88,88.263,271.221z"/>
		<path style="fill-rule:evenodd;clip-rule:evenodd;fill:#0F1E33;" d="M61.861,413.444c13.793,0,25.489,5.938,29.589,14.163H32.272
			C36.373,419.382,48.069,413.444,61.861,413.444z"/>
		<path style="fill-rule:evenodd;clip-rule:evenodd;fill:#0F1E33;" d="M53.644,370.751h13.52c3.001,0,5.456,2.454,5.456,5.455l0,0
			c0,3.001-2.455,5.455-5.456,5.455H55.305L53.644,370.751z"/>
		<path style="fill-rule:evenodd;clip-rule:evenodd;fill:#0F1E33;" d="M132.718,289.375c0.383-0.261,0.904-0.163,1.166,0.221
			c0.261,0.383,0.162,0.904-0.221,1.165c-11.35,7.741-20.317,13.754-27.397,18.42c-8.905,5.869-14.679,9.514-18.415,11.774
			c-0.397,0.239-0.913,0.111-1.152-0.285c-0.239-0.397-0.112-0.914,0.285-1.153c3.787-2.291,9.566-5.936,18.363-11.734
			C112.302,303.198,121.239,297.205,132.718,289.375z"/>
		<path style="fill-rule:evenodd;clip-rule:evenodd;fill:#FFFFFF;" d="M102.423,271.579c-0.462-0.035-0.809-0.439-0.775-0.9
			c0.035-0.462,0.438-0.809,0.9-0.774c4.811,0.37,9.495,2.842,13.766,6.167c4.211,3.278,8.016,7.381,11.128,11.091
			c0.297,0.355,0.25,0.885-0.105,1.183c-0.355,0.296-0.885,0.25-1.182-0.105c-3.056-3.643-6.781-7.664-10.872-10.849
			C111.251,274.251,106.862,271.92,102.423,271.579z"/>
	</g>
	<g>
		<g>
			<path style="fill-rule:evenodd;clip-rule:evenodd;fill:#0F1E33;" d="M142.888,390.807l-0.599-5.825
				c10.95-4.039,18.494,5.135,17.652,15.592c-0.889,11.044-10.059,19.671-21.162,15.315l2.536-5.549
				c7.246,2.842,12.129-2.89,12.683-9.767C154.56,393.587,150.53,387.986,142.888,390.807z"/>
			<path style="fill-rule:evenodd;clip-rule:evenodd;fill:#CD592E;" d="M99.32,376.976h45.628v45.276
				c0,2.788-2.281,5.069-5.069,5.069H104.39c-2.788,0-5.069-2.281-5.069-5.069V376.976z"/>
			<path style="fill-rule:evenodd;clip-rule:evenodd;fill:#AE4E41;" d="M144.948,376.976v45.276c0,2.788-2.281,5.069-5.069,5.069
				H104.39c-2.428,0-4.471-1.729-4.958-4.018c36.095,0,37.867-2.582,40.848-44.497C140.437,376.587,144.307,379.37,144.948,376.976z
				"/>
			<path style="fill-rule:evenodd;clip-rule:evenodd;fill:#0F1E33;" d="M99.32,380.338c-1.856,0-3.361-1.505-3.361-3.362
				c0-1.856,1.505-3.361,3.361-3.361h45.628c1.857,0,3.362,1.505,3.362,3.361c0,1.857-1.506,3.362-3.362,3.362H99.32z"/>
		</g>
		<g>
			<path style="fill-rule:evenodd;clip-rule:evenodd;fill:#C0C6CC;" d="M118.112,365.362c0.731,1.36,0.222,3.056-1.138,3.786
				c-1.359,0.732-3.056,0.223-3.786-1.138c-5.439-10.117-1.965-15.518,1.088-20.261c2.247-3.491,4.145-6.44-3.3-12.869
				c-1.166-1.01-1.294-2.773-0.284-3.939c1.009-1.167,2.773-1.295,3.939-0.285c11.116,9.6,8.018,14.415,4.351,20.114
				C116.762,354.221,114.234,358.148,118.112,365.362z"/>
			<path style="fill-rule:evenodd;clip-rule:evenodd;fill:#C0C6CC;" d="M129.973,365.362c0.73,1.36,0.222,3.056-1.139,3.786
				c-1.359,0.732-3.055,0.223-3.786-1.138c-5.438-10.118-1.964-15.518,1.089-20.26c0.443-0.691,0.877-1.364,1.257-2.042
				c0.756-1.348,2.461-1.828,3.809-1.072c1.348,0.756,1.828,2.461,1.072,3.809c-0.431,0.769-0.926,1.537-1.433,2.325
				C128.621,354.221,126.094,358.148,129.973,365.362z"/>
		</g>
	</g>
	<g>
		<g>
			<rect x="355.311" y="406.585" style="fill-rule:evenodd;clip-rule:evenodd;fill:#FFFFFF;" width="101.45" height="21.022"/>
			<polygon style="fill-rule:evenodd;clip-rule:evenodd;fill:#C0C6CC;" points="370.32,416.443 361.966,409.896 388.751,409.896 			
				"/>
			<path style="fill-rule:evenodd;clip-rule:evenodd;fill:#C0C6CC;" d="M369.763,417.07l-8.312-6.515
				c-0.365-0.285-0.43-0.812-0.145-1.176c0.165-0.211,0.411-0.321,0.66-0.322v-0.003h26.785c0.464,0,0.84,0.377,0.84,0.841
				c0,0.384-0.258,0.709-0.609,0.809l-18.382,6.531C370.302,417.34,369.982,417.267,369.763,417.07L369.763,417.07z
				 M364.395,410.736l6.077,4.763l13.408-4.763H364.395z"/>
			<path style="fill-rule:evenodd;clip-rule:evenodd;fill:#C0C6CC;" d="M455.431,408.896c0.464,0,0.84,0.375,0.84,0.84
				c0,0.464-0.376,0.84-0.84,0.84h-98.67c-0.464,0-0.84-0.376-0.84-0.84c0-0.465,0.376-0.84,0.84-0.84H455.431z"/>
			<path style="fill-rule:evenodd;clip-rule:evenodd;fill:#C0C6CC;" d="M455.431,412.751c0.464,0,0.84,0.376,0.84,0.841
				c0,0.465-0.376,0.841-0.84,0.841h-98.67c-0.464,0-0.84-0.376-0.84-0.841c0-0.465,0.376-0.841,0.84-0.841H455.431z"/>
			<path style="fill-rule:evenodd;clip-rule:evenodd;fill:#C0C6CC;" d="M455.431,416.891c0.464,0,0.84,0.376,0.84,0.841
				c0,0.463-0.376,0.84-0.84,0.84h-98.67c-0.464,0-0.84-0.377-0.84-0.84c0-0.465,0.376-0.841,0.84-0.841H455.431z"/>
			<path style="fill-rule:evenodd;clip-rule:evenodd;fill:#C0C6CC;" d="M455.431,421.03c0.464,0,0.84,0.376,0.84,0.84
				c0,0.465-0.376,0.841-0.84,0.841h-98.67c-0.464,0-0.84-0.376-0.84-0.841c0-0.464,0.376-0.84,0.84-0.84H455.431z"/>
		</g>
		<path style="fill-rule:evenodd;clip-rule:evenodd;fill:#FFFFFF;" d="M459.225,410.795c0.465,0,0.841,0.376,0.841,0.84
			c0,0.464-0.376,0.84-0.841,0.84h-63.502c-0.465,0-0.841-0.376-0.841-0.84c0-0.464,0.376-0.84,0.841-0.84H459.225z"/>
		<path style="fill-rule:evenodd;clip-rule:evenodd;fill:#FFFFFF;" d="M410.719,418.858c0.465,0,0.841,0.377,0.841,0.841
			c0,0.465-0.376,0.841-0.841,0.841h-63.501c-0.465,0-0.842-0.376-0.842-0.841c0-0.464,0.377-0.841,0.842-0.841H410.719z"/>
		<path style="fill-rule:evenodd;clip-rule:evenodd;fill:#FFFFFF;" d="M464.087,406.525c0.465,0,0.841,0.377,0.841,0.84
			c0,0.465-0.376,0.841-0.841,0.841h-63.501c-0.465,0-0.841-0.376-0.841-0.841c0-0.463,0.376-0.84,0.841-0.84H464.087z"/>
		<path style="fill-rule:evenodd;clip-rule:evenodd;fill:#FFFFFF;" d="M465.985,418.385c0.464,0,0.84,0.376,0.84,0.84
			c0,0.465-0.376,0.841-0.84,0.841h-63.503c-0.464,0-0.84-0.376-0.84-0.841c0-0.464,0.376-0.84,0.84-0.84H465.985z"/>
		<polygon style="fill-rule:evenodd;clip-rule:evenodd;fill:#C0C6CC;" points="439.796,424.089 426.403,413.592 453.188,413.592 		
			"/>
		<path style="fill-rule:evenodd;clip-rule:evenodd;fill:#C0C6CC;" d="M439.268,424.739l-13.38-10.487
			c-0.364-0.285-0.429-0.812-0.144-1.177c0.165-0.21,0.411-0.321,0.66-0.321v-0.003h26.785c0.464,0,0.84,0.376,0.84,0.841
			c0,0.295-0.151,0.554-0.382,0.704l-13.336,10.453C439.997,424.994,439.563,424.98,439.268,424.739L439.268,424.739z
			 M428.833,414.433l10.963,8.593l10.963-8.593H428.833z"/>
		<path style="fill-rule:evenodd;clip-rule:evenodd;fill:#FFFFFF;" d="M416.056,406.644c0.465,0,0.84,0.376,0.84,0.841
			c0,0.464-0.375,0.84-0.84,0.84h-63.502c-0.464,0-0.841-0.376-0.841-0.84c0-0.465,0.377-0.841,0.841-0.841H416.056z"/>
		<path style="fill-rule:evenodd;clip-rule:evenodd;fill:#FFFFFF;" d="M413.922,423.01c0.464,0,0.84,0.377,0.84,0.841
			c0,0.464-0.376,0.841-0.84,0.841h-63.503c-0.464,0-0.84-0.377-0.84-0.841c0-0.464,0.376-0.841,0.84-0.841H413.922z"/>
	</g>
	<g>
		<g>
			<path style="fill-rule:evenodd;clip-rule:evenodd;fill:#96AEDB;" d="M462.702,207.281c0-1.688-1.369-3.059-3.059-3.059
				c-1.689,0-3.059,1.37-3.059,3.059c0,1.688,1.37,3.059,3.059,3.059C461.333,210.34,462.702,208.97,462.702,207.281z"/>
			<path style="fill-rule:evenodd;clip-rule:evenodd;fill:#96AEDB;" d="M462.702,195.932c0-1.688-1.369-3.058-3.059-3.058
				c-1.689,0-3.059,1.369-3.059,3.058c0,1.689,1.37,3.06,3.059,3.06C461.333,198.991,462.702,197.621,462.702,195.932z"/>
			<path style="fill-rule:evenodd;clip-rule:evenodd;fill:#96AEDB;" d="M462.702,184.583c0-1.688-1.369-3.059-3.059-3.059
				c-1.689,0-3.059,1.37-3.059,3.059c0,1.69,1.37,3.059,3.059,3.059C461.333,187.642,462.702,186.273,462.702,184.583z"/>
			<path style="fill-rule:evenodd;clip-rule:evenodd;fill:#96AEDB;" d="M462.702,173.233c0-1.688-1.369-3.058-3.059-3.058
				c-1.689,0-3.059,1.369-3.059,3.058c0,1.689,1.37,3.06,3.059,3.06C461.333,176.293,462.702,174.923,462.702,173.233z"/>
			<path style="fill-rule:evenodd;clip-rule:evenodd;fill:#96AEDB;" d="M462.702,161.885c0-1.689-1.369-3.059-3.059-3.059
				c-1.689,0-3.059,1.369-3.059,3.059c0,1.689,1.37,3.059,3.059,3.059C461.333,164.943,462.702,163.574,462.702,161.885z"/>
			<path style="fill-rule:evenodd;clip-rule:evenodd;fill:#96AEDB;" d="M462.702,150.535c0-1.689-1.369-3.058-3.059-3.058
				c-1.689,0-3.059,1.369-3.059,3.058c0,1.689,1.37,3.059,3.059,3.059C461.333,153.595,462.702,152.225,462.702,150.535z"/>
			<path style="fill-rule:evenodd;clip-rule:evenodd;fill:#96AEDB;" d="M462.702,139.253c0-1.689-1.369-3.059-3.059-3.059
				c-1.689,0-3.059,1.369-3.059,3.059c0,1.689,1.37,3.059,3.059,3.059C461.333,142.311,462.702,140.941,462.702,139.253z"/>
			<path style="fill-rule:evenodd;clip-rule:evenodd;fill:#96AEDB;" d="M462.702,127.903c0-1.689-1.369-3.059-3.059-3.059
				c-1.689,0-3.059,1.369-3.059,3.059c0,1.69,1.37,3.059,3.059,3.059C461.333,130.962,462.702,129.593,462.702,127.903z"/>
		</g>
		<g>
			<path style="fill-rule:evenodd;clip-rule:evenodd;fill:#96AEDB;" d="M473.14,207.281c0-1.688-1.37-3.059-3.06-3.059
				c-1.69,0-3.059,1.37-3.059,3.059c0,1.688,1.369,3.059,3.059,3.059C471.769,210.34,473.14,208.97,473.14,207.281z"/>
			<path style="fill-rule:evenodd;clip-rule:evenodd;fill:#96AEDB;" d="M473.14,195.932c0-1.688-1.37-3.058-3.06-3.058
				c-1.69,0-3.059,1.369-3.059,3.058c0,1.689,1.369,3.06,3.059,3.06C471.769,198.991,473.14,197.621,473.14,195.932z"/>
			<path style="fill-rule:evenodd;clip-rule:evenodd;fill:#96AEDB;" d="M473.14,184.583c0-1.688-1.37-3.059-3.06-3.059
				c-1.69,0-3.059,1.37-3.059,3.059c0,1.69,1.369,3.059,3.059,3.059C471.769,187.642,473.14,186.273,473.14,184.583z"/>
			<path style="fill-rule:evenodd;clip-rule:evenodd;fill:#96AEDB;" d="M473.14,173.233c0-1.688-1.37-3.058-3.06-3.058
				c-1.69,0-3.059,1.369-3.059,3.058c0,1.689,1.369,3.06,3.059,3.06C471.769,176.293,473.14,174.923,473.14,173.233z"/>
			<path style="fill-rule:evenodd;clip-rule:evenodd;fill:#96AEDB;" d="M473.14,161.885c0-1.689-1.37-3.059-3.06-3.059
				c-1.69,0-3.059,1.369-3.059,3.059c0,1.689,1.369,3.059,3.059,3.059C471.769,164.943,473.14,163.574,473.14,161.885z"/>
			<path style="fill-rule:evenodd;clip-rule:evenodd;fill:#96AEDB;" d="M473.14,150.535c0-1.689-1.37-3.058-3.06-3.058
				c-1.69,0-3.059,1.369-3.059,3.058c0,1.689,1.369,3.059,3.059,3.059C471.769,153.595,473.14,152.225,473.14,150.535z"/>
			<path style="fill-rule:evenodd;clip-rule:evenodd;fill:#96AEDB;" d="M473.14,139.253c0-1.689-1.37-3.059-3.06-3.059
				c-1.69,0-3.059,1.369-3.059,3.059c0,1.689,1.369,3.059,3.059,3.059C471.769,142.311,473.14,140.941,473.14,139.253z"/>
			<path style="fill-rule:evenodd;clip-rule:evenodd;fill:#96AEDB;" d="M473.14,127.903c0-1.689-1.37-3.059-3.06-3.059
				c-1.69,0-3.059,1.369-3.059,3.059c0,1.69,1.369,3.059,3.059,3.059C471.769,130.962,473.14,129.593,473.14,127.903z"/>
		</g>
	</g>
	<g>
		<g>
			<path style="fill-rule:evenodd;clip-rule:evenodd;fill:#FFFFFF;" d="M308.156,76.249c1.685,0,3.058-1.374,3.058-3.06
				c0-1.685-1.373-3.059-3.058-3.059c-1.685,0-3.059,1.374-3.059,3.059C305.098,74.875,306.472,76.249,308.156,76.249z"/>
			<path style="fill-rule:evenodd;clip-rule:evenodd;fill:#FFFFFF;" d="M296.807,76.249c1.685,0,3.06-1.374,3.06-3.06
				c0-1.685-1.375-3.059-3.06-3.059c-1.684,0-3.058,1.374-3.058,3.059C293.749,74.875,295.123,76.249,296.807,76.249z"/>
			<path style="fill-rule:evenodd;clip-rule:evenodd;fill:#FFFFFF;" d="M285.458,76.249c1.685,0,3.06-1.374,3.06-3.06
				c0-1.685-1.375-3.059-3.06-3.059c-1.685,0-3.059,1.374-3.059,3.059C282.399,74.875,283.773,76.249,285.458,76.249z"/>
			<path style="fill-rule:evenodd;clip-rule:evenodd;fill:#FFFFFF;" d="M274.109,76.249c1.684,0,3.058-1.374,3.058-3.06
				c0-1.685-1.374-3.059-3.058-3.059c-1.686,0-3.06,1.374-3.06,3.059C271.05,74.875,272.424,76.249,274.109,76.249z"/>
			<path style="fill-rule:evenodd;clip-rule:evenodd;fill:#FFFFFF;" d="M262.76,76.249c1.684,0,3.059-1.374,3.059-3.06
				c0-1.685-1.374-3.059-3.059-3.059c-1.685,0-3.059,1.374-3.059,3.059C259.701,74.875,261.075,76.249,262.76,76.249z"/>
			<path style="fill-rule:evenodd;clip-rule:evenodd;fill:#FFFFFF;" d="M251.41,76.249c1.686,0,3.059-1.374,3.059-3.06
				c0-1.685-1.373-3.059-3.059-3.059c-1.684,0-3.058,1.374-3.058,3.059C248.352,74.875,249.727,76.249,251.41,76.249z"/>
			<path style="fill-rule:evenodd;clip-rule:evenodd;fill:#FFFFFF;" d="M240.128,76.249c1.685,0,3.059-1.374,3.059-3.06
				c0-1.685-1.374-3.059-3.059-3.059c-1.684,0-3.059,1.374-3.059,3.059C237.069,74.875,238.443,76.249,240.128,76.249z"/>
			<path style="fill-rule:evenodd;clip-rule:evenodd;fill:#FFFFFF;" d="M228.778,76.249c1.686,0,3.06-1.374,3.06-3.06
				c0-1.685-1.374-3.059-3.06-3.059c-1.684,0-3.059,1.374-3.059,3.059C225.72,74.875,227.095,76.249,228.778,76.249z"/>
		</g>
		<g>
			<path style="fill-rule:evenodd;clip-rule:evenodd;fill:#FFFFFF;" d="M308.156,65.813c1.685,0,3.058-1.374,3.058-3.059
				c0-1.685-1.373-3.059-3.058-3.059c-1.685,0-3.059,1.374-3.059,3.059C305.098,64.438,306.472,65.813,308.156,65.813z"/>
			<path style="fill-rule:evenodd;clip-rule:evenodd;fill:#FFFFFF;" d="M296.807,65.813c1.685,0,3.06-1.374,3.06-3.059
				c0-1.685-1.375-3.059-3.06-3.059c-1.684,0-3.058,1.374-3.058,3.059C293.749,64.438,295.123,65.813,296.807,65.813z"/>
			<path style="fill-rule:evenodd;clip-rule:evenodd;fill:#FFFFFF;" d="M285.458,65.813c1.685,0,3.06-1.374,3.06-3.059
				c0-1.685-1.375-3.059-3.06-3.059c-1.685,0-3.059,1.374-3.059,3.059C282.399,64.438,283.773,65.813,285.458,65.813z"/>
			<path style="fill-rule:evenodd;clip-rule:evenodd;fill:#FFFFFF;" d="M274.109,65.813c1.684,0,3.058-1.374,3.058-3.059
				c0-1.685-1.374-3.059-3.058-3.059c-1.686,0-3.06,1.374-3.06,3.059C271.05,64.438,272.424,65.813,274.109,65.813z"/>
			<circle style="fill-rule:evenodd;clip-rule:evenodd;fill:#FFFFFF;" cx="262.76" cy="62.754" r="3.059"/>
			<path style="fill-rule:evenodd;clip-rule:evenodd;fill:#FFFFFF;" d="M251.41,65.813c1.686,0,3.059-1.374,3.059-3.059
				c0-1.685-1.373-3.059-3.059-3.059c-1.684,0-3.058,1.374-3.058,3.059C248.352,64.438,249.727,65.813,251.41,65.813z"/>
			<circle style="fill-rule:evenodd;clip-rule:evenodd;fill:#FFFFFF;" cx="240.128" cy="62.754" r="3.059"/>
			<path style="fill-rule:evenodd;clip-rule:evenodd;fill:#FFFFFF;" d="M228.778,65.813c1.686,0,3.06-1.374,3.06-3.059
				c0-1.685-1.374-3.059-3.06-3.059c-1.684,0-3.059,1.374-3.059,3.059C225.72,64.438,227.095,65.813,228.778,65.813z"/>
		</g>
	</g>
	<g>
		<path style="fill-rule:evenodd;clip-rule:evenodd;fill:#CD592E;" d="M189.112,32.497c-30.961-39.757-86.845,6.737-53.046,39.732
			c23.22,22.669,71.51-0.849,55.397-35.365L189.112,32.497z"/>
		<path style="fill-rule:evenodd;clip-rule:evenodd;fill:#0F1E33;" d="M135.481,72.831c-0.331-0.323-0.339-0.854-0.017-1.186
			c0.323-0.332,0.854-0.339,1.186-0.017c7.574,7.395,17.904,9.74,27.706,8.326c5.679-0.819,11.177-2.898,15.859-5.989
			c4.666-3.078,8.519-7.16,10.924-11.994c3.44-6.913,3.922-15.393-0.416-24.712l-2.351-4.366c-0.219-0.407-0.066-0.917,0.342-1.136
			c0.408-0.219,0.917-0.066,1.136,0.342l2.352,4.368l0.02,0.042c4.602,9.856,4.082,18.854,0.422,26.21
			c-2.541,5.106-6.598,9.408-11.502,12.645c-4.889,3.226-10.626,5.397-16.549,6.251C154.313,83.099,143.463,80.622,135.481,72.831z"
			/>
		<g>
			<path style="fill-rule:evenodd;clip-rule:evenodd;fill:#FFFFFF;" d="M149.378,27.213c2.586-1.691,4.039-0.018,5.732,2.568
				c1.692,2.587,2.983,5.107,0.396,6.8c-1.512,0.992-1.902,2.132-1.662,3.463c0.489,2.713,2.555,6.57,4.946,11.026
				c1.999,3.727,3.636,6.638,5.178,8.262c0.754,0.794,1.506,1.18,2.415,1.067c0.349-0.043,0.67-0.105,0.966-0.188
				c0.348-0.096,0.796-0.257,1.348-0.481c2.864-1.16,4.052,1.349,5.212,4.213c1.16,2.865,1.854,5.002-1.01,6.162
				c-0.823,0.335-1.68,0.626-2.573,0.875c-0.948,0.264-1.808,0.442-2.585,0.538c-4.941,0.608-8.589-1.026-11.87-4.482
				c-2.492-2.625-4.529-6.195-6.93-10.669c-2.826-5.269-5.268-9.833-6.084-14.354C141.792,36.11,143.3,31.201,149.378,27.213z"/>
			<path style="fill-rule:evenodd;clip-rule:evenodd;fill:#FFFFFF;" d="M149.881,26.292c-0.604-1.078-0.22-2.442,0.858-3.047
				c1.078-0.604,2.442-0.22,3.047,0.858l6.084,10.807c0.604,1.077,0.22,2.442-0.858,3.046c-1.078,0.604-2.442,0.221-3.046-0.858
				L149.881,26.292z"/>
			<path style="fill-rule:evenodd;clip-rule:evenodd;fill:#FFFFFF;" d="M167.433,58.669c-0.604-1.078-0.22-2.443,0.858-3.047
				c1.078-0.604,2.442-0.22,3.047,0.857l6.084,10.807c0.604,1.078,0.22,2.442-0.857,3.047c-1.078,0.604-2.443,0.22-3.047-0.857
				L167.433,58.669z"/>
		</g>
	</g>
	<path style="fill-rule:evenodd;clip-rule:evenodd;fill:#FFFFFF;" d="M211.382,74.616c-10.842-13.922-30.41,2.359-18.575,13.913
		c8.131,7.938,25.04-0.298,19.398-12.384L211.382,74.616z"/>
	<g>
		<g>
			<rect x="24.995" y="427.321" style="fill-rule:evenodd;clip-rule:evenodd;fill:#8B3E4E;" width="450.009" height="14.231"/>
			<path style="fill-rule:evenodd;clip-rule:evenodd;fill:#0F1E33;" d="M475.179,425.641c0.928,0,1.681,0.753,1.681,1.682
				s-0.753,1.681-1.681,1.681H24.82c-0.928,0-1.681-0.752-1.681-1.681s0.753-1.682,1.681-1.682H475.179z"/>
		</g>
		<g>
			<rect x="39.312" y="442.464" style="fill-rule:evenodd;clip-rule:evenodd;fill:#8B3E4E;" width="421.374" height="15.357"/>
			<path style="fill-rule:evenodd;clip-rule:evenodd;fill:#0F1E33;" d="M38.873,444.146c-0.929,0-1.681-0.753-1.681-1.682
				s0.752-1.681,1.681-1.681h422.254c0.928,0,1.68,0.752,1.68,1.681s-0.752,1.682-1.68,1.682H38.873z"/>
			<rect x="45.938" y="457.821" style="fill-rule:evenodd;clip-rule:evenodd;fill:#8B3E4E;" width="408.123" height="42.179"/>
			<polygon style="fill-rule:evenodd;clip-rule:evenodd;fill:#0F1E33;" points="45.938,457.821 454.061,457.821 454.061,471.232 
				45.938,482.661 			"/>
		</g>
		<g>
			<path style="fill-rule:evenodd;clip-rule:evenodd;fill:#622835;" d="M454.061,473.928
				c-111.913,1.462-279.212,4.737-408.123,8.872v-1.882c128.952-4.137,296.229-7.412,408.123-8.876V473.928L454.061,473.928z
				 M454.061,491.431v1.851c-54.297,0.541-118.149,1.46-183.515,2.401c-77.171,1.111-156.424,2.253-224.608,2.812v-1.873
				c68.142-0.564,147.4-1.705,224.573-2.816C335.853,492.863,399.687,491.944,454.061,491.431z"/>
			<path style="fill-rule:evenodd;clip-rule:evenodd;fill:#622835;" d="M45.938,480.918c107.336-3.443,241.22-6.291,347.627-7.991
				l-347.627,9.734V480.918z"/>
		</g>
	</g>
</g>
</svg>
