<?xml version="1.0" encoding="utf-8"?>
<!-- Generator: Adobe Illustrator 27.5.0, SVG Export Plug-In . SVG Version: 6.00 Build 0)  -->
<svg version="1.1" xmlns="http://www.w3.org/2000/svg" xmlns:xlink="http://www.w3.org/1999/xlink" x="0px" y="0px"
	 viewBox="0 0 500 500" style="enable-background:new 0 0 500 500;" xml:space="preserve">
<g id="BACKGROUND">
	<rect style="fill:#FFFFFF;" width="500" height="500"/>
</g>
<g id="OBJECTS">
	<g>
		<g>
			<g>
				<g>
					<path style="fill:#DAF0FD;" d="M106.059,158.27c-10.804,2.725-21.846,5.828-30.719,12.568
						c-8.669,6.585-14.595,16.167-19.087,26.084c-17.973,39.675-14.909,87.331,4.422,126.362
						c19.331,39.031,53.813,69.533,93.298,87.918c23.164,10.786,48.331,17.686,73.874,18.352c17.008,0.443,33.967-1.86,50.746-4.68
						c42.191-7.093,85.421-18.278,118.35-45.592c1.572-1.304,3.11-2.648,4.616-4.027c79.863-73.084,71.877-221.229-25.749-274.918
						c-40.409-22.223-91.465-24.704-133.184-5.05c-21.149,9.963-39.428,24.982-58.953,37.839
						c-12.599,8.296-26.019,15.825-40.525,20.212C130.561,157.146,118.431,155.15,106.059,158.27z"/>
				</g>
				<path style="fill:#FFFFFF;" d="M340.879,130.968c-0.089-0.726-0.149-1.461-0.149-2.212c0-9.989,8.098-18.087,18.087-18.087
					c2.699,0,5.25,0.607,7.551,1.667c3.683-7.452,11.339-12.589,20.214-12.589c12.459,0,22.559,10.1,22.559,22.559
					c0,0.055-0.008,0.109-0.008,0.164c8.895,1.137,15.776,8.719,15.776,17.923c0,9.989-8.098,18.087-18.087,18.087l-64.591,0.351
					c-7.713,0-13.966-6.253-13.966-13.966C328.264,137.609,333.8,131.648,340.879,130.968z"/>
				<path style="fill:#FFFFFF;" d="M116.079,217.663c0.089-0.726,0.149-1.461,0.149-2.212c0-9.989-8.098-18.087-18.087-18.087
					c-2.699,0-5.25,0.607-7.551,1.667c-3.683-7.452-11.339-12.589-20.214-12.589c-12.459,0-22.559,10.1-22.559,22.559
					c0,0.055,0.008,0.109,0.008,0.164c-8.895,1.137-15.776,8.719-15.776,17.923c0,9.989,8.098,18.087,18.087,18.087l64.591,0.351
					c7.713,0,13.966-6.253,13.966-13.966C128.694,224.304,123.158,218.343,116.079,217.663z"/>
			</g>
			<g>
				
					<circle style="fill:none;stroke:#0F1109;stroke-width:1.0641;stroke-linecap:round;stroke-miterlimit:10;" cx="417.647" cy="185.739" r="5.879"/>
				<path style="fill:none;stroke:#0F1109;stroke-width:1.0641;stroke-linecap:round;stroke-miterlimit:10;" d="M234.662,131.974
					c0-3.247-2.632-5.879-5.879-5.879c-3.247,0-5.879,2.632-5.879,5.879c0,3.247,2.632,5.879,5.879,5.879
					C232.03,137.853,234.662,135.221,234.662,131.974z"/>
				
					<circle style="fill:none;stroke:#0F1109;stroke-width:1.0641;stroke-linecap:round;stroke-miterlimit:10;" cx="66.079" cy="287.194" r="5.879"/>
				<path style="fill:#F1D156;" d="M405.92,100.904c-1.137,4.118-2.059,5.04-6.178,6.178c4.119,1.137,5.04,2.059,6.178,6.178
					c1.137-4.118,2.059-5.041,6.178-6.178C407.979,105.944,407.057,105.022,405.92,100.904z"/>
				<path style="fill:#F1D156;" d="M424.908,111.139c-0.829,3.001-1.501,3.673-4.502,4.502c3.001,0.829,3.673,1.501,4.502,4.502
					c0.829-3.001,1.501-3.673,4.502-4.502C426.409,114.812,425.737,114.14,424.908,111.139z"/>
				<path style="fill:#FFFFFF;" d="M266.494,269.024c-0.829,3.001-1.501,3.673-4.502,4.502c3.001,0.829,3.673,1.501,4.502,4.502
					c0.829-3.001,1.501-3.673,4.502-4.502C267.995,272.698,267.323,272.026,266.494,269.024z"/>
				<path style="fill:#FFFFFF;" d="M315.968,122.076c-0.829,3.001-1.501,3.673-4.502,4.502c3.001,0.829,3.673,1.501,4.502,4.502
					c0.829-3.001,1.501-3.673,4.502-4.502C317.468,125.749,316.796,125.077,315.968,122.076z"/>
				<path style="fill:#FFFFFF;" d="M119.083,175.359c-0.829,3.001-1.501,3.673-4.502,4.502c3.002,0.829,3.673,1.501,4.502,4.502
					c0.829-3.001,1.501-3.673,4.502-4.502C120.584,179.032,119.912,178.36,119.083,175.359z"/>
				<path style="fill:#F1D156;" d="M75.729,63.832c-1.137,4.119-2.059,5.041-6.178,6.178c4.118,1.137,5.04,2.059,6.178,6.178
					c1.137-4.118,2.059-5.04,6.178-6.178C77.789,68.872,76.867,67.95,75.729,63.832z"/>
			</g>
			<g>
				<path style="fill:none;stroke:#43434D;stroke-width:1.323;stroke-linecap:round;stroke-miterlimit:10;" d="M102.608,205.816
					c2.421,0,2.421,3.845,4.841,3.845c2.422,0,2.422-3.845,4.843-3.845c2.422,0,2.422,3.845,4.843,3.845
					c2.422,0,2.422-3.845,4.843-3.845c2.422,0,2.422,3.845,4.845,3.845c2.421,0,2.421-3.845,4.842-3.845
					c2.423,0,2.423,3.845,4.846,3.845c2.425,0,2.425-3.845,4.85-3.845c2.425,0,2.425,3.845,4.85,3.845"/>
				<path style="fill:none;stroke:#43434D;stroke-width:1.323;stroke-linecap:round;stroke-miterlimit:10;" d="M353.825,140.527
					c2.421,0,2.421,3.845,4.841,3.845c2.422,0,2.422-3.845,4.843-3.845s2.422,3.845,4.843,3.845s2.422-3.845,4.843-3.845
					c2.422,0,2.422,3.845,4.845,3.845c2.421,0,2.421-3.845,4.842-3.845c2.423,0,2.423,3.845,4.846,3.845
					c2.425,0,2.425-3.845,4.85-3.845s2.425,3.845,4.849,3.845"/>
				<path style="fill:none;stroke:#43434D;stroke-width:1.323;stroke-linecap:round;stroke-miterlimit:10;" d="M418.21,313.065
					c2.421,0,2.421,3.845,4.841,3.845c2.422,0,2.422-3.845,4.843-3.845c2.422,0,2.422,3.845,4.843,3.845
					c2.422,0,2.422-3.845,4.843-3.845c2.422,0,2.422,3.845,4.845,3.845c2.421,0,2.421-3.845,4.842-3.845
					c2.423,0,2.423,3.845,4.846,3.845c2.425,0,2.425-3.845,4.85-3.845c2.425,0,2.425,3.845,4.849,3.845"/>
			</g>
			<g>
				<g>
					<g>
						<polyline style="fill:none;stroke:#5D5D73;stroke-linecap:round;stroke-miterlimit:10;" points="108.662,256.4 108.662,259.4 
							105.662,259.4 						"/>
						
							<line style="fill:none;stroke:#5D5D73;stroke-linecap:round;stroke-miterlimit:10;stroke-dasharray:6.4088,6.4088;" x1="99.253" y1="259.4" x2="76.823" y2="259.4"/>
						<polyline style="fill:none;stroke:#5D5D73;stroke-linecap:round;stroke-miterlimit:10;" points="73.618,259.4 70.618,259.4 
							70.618,256.4 						"/>
						
							<line style="fill:none;stroke:#5D5D73;stroke-linecap:round;stroke-miterlimit:10;stroke-dasharray:6.4088,6.4088;" x1="70.618" y1="249.991" x2="70.618" y2="227.56"/>
						<polyline style="fill:none;stroke:#5D5D73;stroke-linecap:round;stroke-miterlimit:10;" points="70.618,224.356 
							70.618,221.356 73.618,221.356 						"/>
						
							<line style="fill:none;stroke:#5D5D73;stroke-linecap:round;stroke-miterlimit:10;stroke-dasharray:6.4088,6.4088;" x1="80.027" y1="221.356" x2="102.458" y2="221.356"/>
						<polyline style="fill:none;stroke:#5D5D73;stroke-linecap:round;stroke-miterlimit:10;" points="105.662,221.356 
							108.662,221.356 108.662,224.356 						"/>
						
							<line style="fill:none;stroke:#5D5D73;stroke-linecap:round;stroke-miterlimit:10;stroke-dasharray:6.4088,6.4088;" x1="108.662" y1="230.765" x2="108.662" y2="253.195"/>
					</g>
				</g>
				<g>
					<path style="fill:#5D5D73;" d="M99.976,235.858h-1.465c-0.133-1.296-0.419-2.252-0.856-2.869
						c-0.437-0.618-0.908-0.998-1.411-1.141c-0.504-0.145-1.085-0.216-1.743-0.216h-2.654v15.319c0,0.607,0.062,1.078,0.185,1.411
						c0.124,0.335,0.411,0.594,0.865,0.779c0.452,0.186,1.115,0.278,1.989,0.278v1.419h-10.49v-1.419
						c1.285,0,2.113-0.185,2.484-0.555c0.37-0.371,0.555-1.008,0.555-1.913v-15.319h-2.221c-0.875,0-1.6,0.069-2.175,0.208
						c-0.576,0.139-1.082,0.52-1.52,1.142c-0.438,0.622-0.686,1.582-0.748,2.877h-1.465v-5.94h20.672V235.858z"/>
				</g>
			</g>
			<g>
				<g>
					<g>
						<g>
							<path style="fill:#C4C6FC;" d="M190.794,157.122H66.079c-5.564,0-10.075-4.511-10.075-10.075V97.34
								c0-5.564,4.511-10.075,10.075-10.075h124.715c5.564,0,10.075,4.511,10.075,10.075v49.707
								C200.869,152.611,196.358,157.122,190.794,157.122z"/>
							<polygon style="fill:#C4C6FC;" points="179.528,157.122 157.643,157.122 179.835,179.314 							"/>
						</g>
						
							<line style="fill:none;stroke:#0F1109;stroke-width:1.0641;stroke-linecap:round;stroke-miterlimit:10;" x1="66.079" y1="87.264" x2="190.794" y2="87.264"/>
						
							<line style="fill:none;stroke:#0F1109;stroke-width:1.0641;stroke-linecap:round;stroke-miterlimit:10;" x1="56.004" y1="97.34" x2="56.004" y2="147.047"/>
					</g>
					<g>
						<path style="fill:none;stroke:#43434D;stroke-width:1.323;stroke-linecap:round;stroke-miterlimit:10;" d="M80.937,111.796
							c2.571,0,2.571,3.845,5.142,3.845c2.572,0,2.572-3.845,5.143-3.845c2.571,0,2.571,3.845,5.142,3.845
							c2.572,0,2.572-3.845,5.143-3.845c2.572,0,2.572,3.845,5.144,3.845c2.572,0,2.572-3.845,5.143-3.845
							c2.572,0,2.572,3.845,5.143,3.845c2.571,0,2.571-3.845,5.142-3.845c2.57,0,2.57,3.845,5.139,3.845
							c2.571,0,2.571-3.845,5.142-3.845c2.572,0,2.572,3.845,5.144,3.845s2.572-3.845,5.144-3.845c2.572,0,2.572,3.845,5.144,3.845
							c2.573,0,2.573-3.845,5.146-3.845c2.571,0,2.571,3.845,5.143,3.845c2.574,0,2.574-3.845,5.147-3.845
							c2.575,0,2.575,3.845,5.151,3.845c2.575,0,2.575-3.845,5.151-3.845"/>
						<path style="fill:none;stroke:#43434D;stroke-width:1.323;stroke-linecap:round;stroke-miterlimit:10;" d="M80.937,127.476
							c2.571,0,2.571,3.845,5.142,3.845c2.572,0,2.572-3.845,5.143-3.845c2.571,0,2.571,3.845,5.142,3.845
							c2.572,0,2.572-3.845,5.143-3.845c2.572,0,2.572,3.845,5.144,3.845c2.572,0,2.572-3.845,5.143-3.845
							c2.572,0,2.572,3.845,5.143,3.845c2.571,0,2.571-3.845,5.142-3.845c2.57,0,2.57,3.845,5.139,3.845
							c2.571,0,2.571-3.845,5.142-3.845c2.572,0,2.572,3.845,5.144,3.845s2.572-3.845,5.144-3.845c2.572,0,2.572,3.845,5.144,3.845
							c2.573,0,2.573-3.845,5.146-3.845c2.571,0,2.571,3.845,5.143,3.845c2.574,0,2.574-3.845,5.147-3.845
							c2.575,0,2.575,3.845,5.151,3.845c2.575,0,2.575-3.845,5.151-3.845"/>
					</g>
				</g>
				<g>
					<g>
						<g>
							<path style="fill:#E8C245;" d="M240.725,107.059h90.638c4.044,0,7.322-3.278,7.322-7.322V63.611
								c0-4.044-3.278-7.322-7.322-7.322h-90.638c-4.044,0-7.322,3.278-7.322,7.322v36.125
								C233.403,103.78,236.681,107.059,240.725,107.059z"/>
							<polygon style="fill:#E8C245;" points="248.913,107.059 264.818,107.059 248.689,123.187 							"/>
						</g>
						
							<line style="fill:none;stroke:#0F1109;stroke-width:1.0641;stroke-linecap:round;stroke-miterlimit:10;" x1="240.725" y1="56.289" x2="331.363" y2="56.289"/>
						
							<line style="fill:none;stroke:#0F1109;stroke-width:1.0641;stroke-linecap:round;stroke-miterlimit:10;" x1="338.686" y1="63.611" x2="338.686" y2="99.736"/>
					</g>
					<g>
						
							<line style="fill:none;stroke:#FFFFFF;stroke-width:1.0641;stroke-linecap:round;stroke-miterlimit:10;" x1="250.762" y1="70.009" x2="322.959" y2="70.009"/>
						
							<line style="fill:none;stroke:#FFFFFF;stroke-width:1.0641;stroke-linecap:round;stroke-miterlimit:10;" x1="250.762" y1="81.93" x2="322.959" y2="81.93"/>
						
							<line style="fill:none;stroke:#FFFFFF;stroke-width:1.0641;stroke-linecap:round;stroke-miterlimit:10;" x1="250.762" y1="93.851" x2="322.959" y2="93.851"/>
					</g>
				</g>
				<g>
					<path style="fill:none;stroke:#0F1109;stroke-width:1.0641;stroke-linecap:round;stroke-miterlimit:10;" d="M369.907,156.4
						H299.11c-3.159,0-5.719,2.561-5.719,5.719v28.217c0,3.159,2.561,5.719,5.719,5.719l0,0l-0.174,12.598l12.598-12.598h58.373
						c3.159,0,5.719-2.561,5.719-5.719v-28.217C375.626,158.961,373.065,156.4,369.907,156.4z"/>
					<g>
						
							<line style="fill:none;stroke:#FFFFFF;stroke-width:1.0641;stroke-linecap:round;stroke-miterlimit:10;" x1="306.951" y1="167.117" x2="363.343" y2="167.117"/>
						
							<line style="fill:none;stroke:#FFFFFF;stroke-width:1.0641;stroke-linecap:round;stroke-miterlimit:10;" x1="306.951" y1="176.428" x2="363.343" y2="176.428"/>
						
							<line style="fill:none;stroke:#FFFFFF;stroke-width:1.0641;stroke-linecap:round;stroke-miterlimit:10;" x1="306.951" y1="185.739" x2="363.343" y2="185.739"/>
					</g>
				</g>
			</g>
		</g>
		<g>
			<g>
				<g>
					<g>
						<path style="fill:none;stroke:#43434D;stroke-width:1.0641;stroke-miterlimit:10;" d="M191.594,219.553
							c-3.182,3.275-7.334,5.595-11.79,6.59c-4.186,0.934-8.529,0.713-12.815,0.879c-4.286,0.166-8.73,0.786-12.305,3.156
							c-3.575,2.37-6.015,6.901-4.792,11.012"/>
						<path style="fill:#43434D;" d="M260.899,223.51c-2.387-12.435-11.679-23.309-23.589-27.608
							c-12.847-4.637-28.314-1.267-37.799,8.561c-3.444,3.569-6.076,7.826-9.146,11.721c-3.07,3.894-6.757,7.545-11.426,9.217
							c-4.728,1.694-10.019,1.203-14.756,2.872c-8.308,2.926-13.201,12.383-12.449,21.159c0.752,8.776,6.258,16.627,13.262,21.969
							c3.746,2.858,8.198,5.18,12.909,5.047c7.143-0.202,12.824-5.802,19.372-8.663c7.884-3.445,16.849-2.832,25.452-2.671
							c8.319,0.156,18.615-0.289,25.532-5.633c5.98-4.62,10.383-13.232,12.155-20.378
							C261.675,234.018,261.888,228.662,260.899,223.51z"/>
						<path style="fill:#43434D;" d="M235.863,196.356c1.806-1.583,3.612-3.167,5.418-4.75c2.389-2.095,4.926-4.445,5.449-7.579
							c0.386-2.315-0.445-4.723-1.883-6.578c-1.438-1.855-3.434-3.208-5.533-4.256c-6.144-3.067-13.474-3.673-20.038-1.658
							c-2.226,0.683-4.411,1.688-6.06,3.332c-1.649,1.643-2.697,4.008-2.341,6.309c0.472,3.045,3.118,5.193,5.447,7.211
							c2.328,2.018,4.697,4.685,4.305,7.742C225.024,198.905,231.952,199.784,235.863,196.356z"/>
						<path style="fill:none;stroke:#43434D;stroke-width:1.0641;stroke-miterlimit:10;" d="M222.552,194.974
							c-2.001-2.203-4.733-3.638-7.573-4.527c-2.84-0.889-5.81-1.268-8.762-1.644"/>
						<path style="fill:none;stroke:#43434D;stroke-width:1.0641;stroke-miterlimit:10;" d="M221.935,195.332
							c-0.686-1.691-2.685-2.424-4.499-2.617c-2.607-0.277-5.233,0.159-7.854,0.164c-2.621,0.005-5.417-0.509-7.308-2.325"/>
					</g>
					<g>
						<path style="fill:#EAAC93;" d="M216.351,295.595c-2.842-6.971-1.517-25.666,2.007-32.318
							c-4.402-3.007-8.751-7.364-11.325-12.033c-2.574-4.669-4.402-9.705-6.219-14.717c-0.696-0.473-2.647-1.399-3.2-0.765
							c-0.553,0.634-0.768,1.485-0.972,2.301c-4.35,17.381-11.764,33.991-21.798,48.835c-0.142,2.646,0.611,6.664,2.958,7.895
							c2.346,1.231,5.079,1.469,7.729,1.509c8.753,0.132,16.617,8.805,24.611,5.238
							C212.885,300.315,215.173,298.361,216.351,295.595z"/>
						<path style="fill:#EAAC93;" d="M257.99,238.353c-0.011,1.339-8.911,35.965-38.971,34.271
							c-30.06-1.694-22.486-33.405-14.865-45.683C211.775,214.663,258.343,194.248,257.99,238.353z"/>
						<path style="fill:#EAAC93;" d="M187.167,219.5c3.361-6.631,11.46-9.282,18.091-5.921c6.631,3.361,12.982,13.335,9.622,19.966
							c-3.361,6.631-15.16,7.407-21.791,4.046C186.457,234.23,183.806,226.13,187.167,219.5z"/>
					</g>
					<path style="fill:#43434D;" d="M255.414,246.008c1.646-7.262,0.037-15.199-4.307-21.246
						c-13.007,1.951-26.342-0.318-37.862-6.665c6.898-4.965,15.751-10.946,24.209-10.107c8.458,0.838,16.665,5.931,20.102,13.704
						C260.925,229.311,259.088,238.534,255.414,246.008z"/>
					<g>
						<g>
							<path style="fill:none;stroke:#0F1109;stroke-width:1.0641;stroke-linecap:round;stroke-miterlimit:10;" d="M200.536,222.9
								c-2.232,0.692-4.32,1.843-6.098,3.36"/>
							<path style="fill:none;stroke:#0F1109;stroke-width:1.0641;stroke-linecap:round;stroke-miterlimit:10;" d="M196.042,220.359
								c1.278,2.581,2.151,5.363,2.577,8.212"/>
						</g>
						<path style="fill:none;stroke:#0F1109;stroke-width:1.0641;stroke-linecap:round;stroke-miterlimit:10;" d="M221.31,248.665
							c-0.367,2.322,0.66,4.81,2.558,6.196"/>
						<path style="opacity:0.3;fill:#222221;" d="M223.272,236.689c0-4.122-3.342-7.464-7.464-7.464
							c-4.122,0-7.464,3.342-7.464,7.464c0,4.122,3.342,7.464,7.464,7.464C219.93,244.153,223.272,240.811,223.272,236.689z"/>
						<path style="fill:none;stroke:#0F1109;stroke-width:1.0641;stroke-linecap:round;stroke-miterlimit:10;" d="M214.72,272.137
							c-10.168-2.618-13.975-9.701-14.937-17.184"/>
						<path style="fill:none;stroke:#0F1109;stroke-width:1.0641;stroke-linecap:round;stroke-miterlimit:10;" d="M239.036,245.524
							c-1.4,2.357-2.799,4.715-4.199,7.072c-0.46,0.776-0.998,1.613-1.862,1.872c-1.036,0.31-2.094-0.333-2.985-0.946"/>
						<circle style="fill:#0F1109;" cx="245.092" cy="251.763" r="0.988"/>
						<circle style="fill:#0F1109;" cx="232.244" cy="242.338" r="0.988"/>
						<path style="fill:none;stroke:#0F1109;stroke-width:1.0641;stroke-linecap:round;stroke-miterlimit:10;" d="M238.17,237.371
							c-2.266-1.839-4.934-3.182-7.761-3.905"/>
						<path style="fill:none;stroke:#0F1109;stroke-width:1.0641;stroke-linecap:round;stroke-miterlimit:10;" d="M247.987,244.241
							c1.553,1.446,2.813,3.205,3.684,5.141"/>
					</g>
				</g>
				<g>
					<path style="fill:#E06F5B;" d="M214.72,288.576c0,0-1.454,13.103-13.961,10.566c-12.507-2.537-23.134-16.523-23.134-16.523
						s-44.057-14.849-83.564,8.818c-28.608,17.137-44.733,47.834-52.219,79.434c-3.416,14.421-8.07,32.521,0.435,45.951
						c4.097,6.47,11.013,12.14,18.842,12.266c5.007,0.08,9.564,2.975,14.571,3.057c12.321,0.203,214.033-0.103,221.657,0.022
						C297.347,432.168,325.093,305.02,214.72,288.576z"/>
					<g>
						<defs>
							<path id="SVGID_1_" d="M214.72,288.576c0,0-1.454,13.103-13.961,10.566c-12.507-2.537-23.134-16.523-23.134-16.523
								s-43.126-13.221-83.564,8.818c-20.138,10.975-32.333,31.942-39.896,52.882c-3.893,10.779-6.71,21.933-8.817,33.19
								c-2.143,11.451-4.163,23.889,1.106,34.833c0.835,1.735,1.822,3.396,2.954,4.954c13.551,18.642,36.748,15.622,56.837,15.622
								c21.347,0,42.693,0,64.04,0c36.462,0,122.775-1.702,127.368-1.702C297.652,431.217,325.093,305.02,214.72,288.576z"/>
						</defs>
						<clipPath id="SVGID_00000013907714189491781710000002937615098655962761_">
							<use xlink:href="#SVGID_1_"  style="overflow:visible;"/>
						</clipPath>
						<g style="clip-path:url(#SVGID_00000013907714189491781710000002937615098655962761_);">
							<path style="fill:none;stroke:#FFFFFF;stroke-width:1.1521;stroke-miterlimit:10;" d="M61.868,287.452
								c1.55,18.046,11.93,35.226,27.438,44.583c15.508,9.358,35.8,10.47,52.034,2.436c16.233-8.034,27.734-25.11,28.61-43.201
								c0.5-10.32-2.913-21.611-11.58-27.237c-3.503-2.274-8.668-3.242-11.513-0.184c-2.02,2.172-2.042,5.509-1.597,8.441
								c4.624,30.503,38.97,47.534,66.941,39.652c9.724-2.74,17.99-8.319,25.773-14.556c8.048-6.45,13.689-18.297,18.842-27.151"/>
							<path style="fill:none;stroke:#FFFFFF;stroke-width:1.1521;stroke-miterlimit:10;" d="M277.964,299.858
								c-10.447,5.736-19.036,14.796-24.207,25.534c-3.284,6.821-5.094,15.248-1.206,21.744c2.727,4.556,7.852,7.284,13.08,8.215
								c11.671,2.078,24.331-4.741,29.018-15.63c1.432-3.326,2.172-7.059,1.399-10.596c-0.773-3.538-3.251-6.816-6.701-7.919
								c-5.081-1.624-10.32,1.624-14.617,4.784c-16.295,11.981-31.899,25.059-45.202,40.294
								c-13.302,15.236-24.285,32.722-30.521,51.962"/>
						</g>
					</g>
					<g>
						<g>
							<path style="fill:#EAAC93;" d="M186.881,428.186l77.183,0.417c8.456-0.217,15.744-1.257,21.896-6.887
								c1.241-1.125,2.399-2.351,3.459-3.674c5.155-6.432,7.707-14.363,5.794-21.602c-1.277-4.983-3.981-9.223-7.578-12.377
								c-5.879-5.149-14.12-7.419-22.269-5.349l-81.252,20.701C163.104,405.356,164.944,429.535,186.881,428.186z"/>
							<path style="fill:#EAAC93;" d="M184.114,399.414c0,0-33.769-1.516-40.263-0.017c-2.961,0.683-24.072,9.128-30.061,11.782
								c-8.93,3.957-25.967,15.134-23.954,17.078c2.181,2.106,5.452,1,8.27-0.555c-2.713,4.338,4.936,5.058,9.459,0.693
								c-0.141,1.551,0.548,3.38,3.705,3.38c3.88,0,25.614-4.774,30.058-4.985c4.085,2.589,12.216,4.271,21.132,4.985
								c12.498,0,24.422-3.589,24.422-3.589L184.114,399.414z"/>
							<path style="fill:none;stroke:#0F1109;stroke-width:1.0641;stroke-linecap:round;stroke-miterlimit:10;" d="M99.346,425.813
								c9.915-8.236,27.146-14.893,39.537-18.947"/>
							<path style="fill:none;stroke:#0F1109;stroke-width:1.0641;stroke-linecap:round;stroke-miterlimit:10;" d="M108.45,427.702
								c8.62-5.435,22.351-9.847,31.981-14.342"/>
							<path style="fill:none;stroke:#0F1109;stroke-width:1.0641;stroke-linecap:round;stroke-miterlimit:10;" d="M186.939,427.591
								c1.224-0.882,2.449-1.764,3.673-2.647"/>
						</g>
						<path style="fill:#E06F5B;" d="M195.402,432.146l-6.156-37.085l73.785-19.554c0,0,39.999-12.056,43.42,22.124
							c2.999,29.961-21.853,34.251-21.853,34.251L195.402,432.146z"/>
					</g>
					<g>
						<g>
							<path style="fill:#EAAC93;" d="M251.642,324.733c-9.853-4.301-37.049-7.707-46.7-7.591
								c-11.879,0.144-30.048,7.938-30.048,7.938l0.006,0.013c-0.839,0.227-1.686,0.489-2.548,0.832l-77.067,33.033
								c-7.725,3.317-12.882,10.136-14.412,17.799c-0.934,4.692-0.498,9.702,1.521,14.433c2.888,6.908,9.741,11.647,17.746,13.613
								c1.647,0.404,3.312,0.672,4.981,0.81c8.308,0.722,16.694-1.758,23.535-6.733l60.047-43.628c0,0,6.514,3.844,12.722,4.012
								c5.811,0.158,13.632-0.173,16.845,1.544s15.482,8.519,17.162,6.665c1.68-1.854-6.061-8.836-6.954-10.257
								c-0.893-1.421-8.12-7.525-8.12-7.525s8.478,1.605,10.541,2.825c2.062,1.22,9.575,10.992,11.719,9.187
								c2.145-1.805-3.194-11.173-6.398-14.752c-3.204-3.579-8.875-5.918-8.875-5.918s8.131,0.686,10.379,2.144
								c2.248,1.458,11.898,12.638,14.753,10.387c2.855-2.251-3.72-12.184-7.587-15.548c-3.867-3.365-15.878-6.95-15.878-6.95
								s6.664-0.966,13.747-0.846c5.884,0.1,16.452,2.982,16.821,0.386C259.982,327.791,253.916,325.725,251.642,324.733z"/>
							<path style="fill:none;stroke:#0F1109;stroke-width:1.0641;stroke-linecap:round;stroke-miterlimit:10;" d="M188.357,354.964
								c-1.775-1.648-3.55-3.295-5.325-4.943"/>
						</g>
						<path style="fill:#E06F5B;" d="M147.922,331.813l23.019,42.961l-67.776,46.174c0,0-54.772,31.772-68.99-11.72
							c-11.505-35.194,30.477-49.414,30.477-49.414L147.922,331.813z"/>
					</g>
					<path style="fill:none;stroke:#0F1109;stroke-width:1.0641;stroke-linecap:round;stroke-miterlimit:10;" d="M170.941,374.774
						c0,0-69.906,47.329-70.483,47.62"/>
					<path style="fill:none;stroke:#0F1109;stroke-width:1.0641;stroke-linecap:round;stroke-miterlimit:10;" d="M40.046,376.493
						c12.608-12.553,29.708-18.395,29.708-18.395l78.168-26.286"/>
					<path style="fill:none;stroke:#0F1109;stroke-width:1.0641;stroke-linecap:round;stroke-miterlimit:10;" d="M138.883,336.873"
						/>
					
						<line style="fill:none;stroke:#FFFFFF;stroke-width:1.1521;stroke-miterlimit:10;" x1="136.171" y1="337.37" x2="158.967" y2="381.011"/>
					
						<line style="fill:none;stroke:#0F1109;stroke-width:1.0641;stroke-linecap:round;stroke-miterlimit:10;" x1="189.245" y1="395.06" x2="269.63" y2="375.797"/>
					
						<line style="fill:none;stroke:#FFFFFF;stroke-width:1.1521;stroke-miterlimit:10;" x1="199.58" y1="394.037" x2="206.589" y2="426.79"/>
				</g>
			</g>
			<g>
				<g>
					<g>
						<path style="fill:#B3D7F0;" d="M310.148,286.983h19.394l-1.916,4.681c-1.073,2.623-4.83,4.743-8.387,4.743
							c-3.534,0-5.554-2.087-4.548-4.681C315.751,289.108,313.715,286.983,310.148,286.983z"/>
						<g>
							<path style="fill:#FFFFFF;" d="M282.615,339.506l19.166-47.78c1.043-2.6,4.743-4.715,8.299-4.743h0.069
								c3.567,0,5.603,2.126,4.543,4.743c-1.006,2.595,1.015,4.681,4.548,4.681h83.206l-18.557,43.099H282.615z"/>
							<path style="fill:#FFFFFF;" d="M319.239,296.407c3.556,0,7.313-2.12,8.387-4.743l30.017-73.336
								c1.073-2.622,4.899-4.743,8.556-4.743c3.65,0,90.046,0,90.046,0l-33.484,76.581c-1.152,2.622-5.623,6.241-9.187,6.241
								H319.239z"/>
						</g>
						<path style="fill:#B3D7F0;" d="M366.199,213.585h93.187c0,0,7.917,2.032,7.917,9.948h-91.789
							C375.514,223.533,376.053,213.585,366.199,213.585z"/>
					</g>
					
						<line style="fill:none;stroke:#0F1109;stroke-width:1.0641;stroke-linecap:round;stroke-miterlimit:10;" x1="319.239" y1="296.407" x2="413.574" y2="296.407"/>
				</g>
				<g>
					<path style="fill:#43434D;" d="M343.656,431.881H168.294c-6.742,0-12.207-5.465-12.207-12.206l0,0h199.775l0,0
						C350.913,429.164,343.656,431.881,343.656,431.881z"/>
					<path style="fill:none;stroke:#FFFFFF;stroke-width:0.8528;stroke-linecap:round;stroke-miterlimit:10;" d="M215.775,431.445
						c4.843-1.332,8.481-5.574,8.917-10.728"/>
					<polygon style="fill:#43434D;" points="403.181,325.293 272.875,325.293 225.556,419.674 355.862,419.674 					"/>
					<circle style="fill:#FFFFFF;" cx="316.855" cy="374.123" r="7.405"/>
				</g>
			</g>
			<g>
				<g>
					<rect x="330.971" y="403.436" style="fill:#78CD72;" width="90.888" height="13.113"/>
					<circle style="fill:#FFFFFF;" cx="411.369" cy="409.993" r="3.588"/>
				</g>
				<g>
					<rect x="357.829" y="381.521" style="fill:#E8C245;" width="88.833" height="21.916"/>
					<path style="fill:none;stroke:#FFFFFF;stroke-width:1.1521;stroke-miterlimit:10;" d="M443.135,387.877v9.203
						c-2.122,0-3.835,1.713-3.835,3.835h-74.459c0-2.122-1.713-3.835-3.835-3.835v-9.203c2.122,0,3.835-1.713,3.835-3.835H439.3
						C439.3,386.164,441.013,387.877,443.135,387.877z"/>
				</g>
				<g>
					<rect x="366.471" y="341.67" style="fill:#857FF0;" width="89.796" height="24.535"/>
					<g>
						<g>
							
								<line style="fill:none;stroke:#FFFFFF;stroke-width:1.1521;stroke-miterlimit:10;" x1="432.67" y1="344.438" x2="432.67" y2="363.436"/>
							
								<line style="fill:none;stroke:#FFFFFF;stroke-width:1.1521;stroke-miterlimit:10;" x1="438.493" y1="344.438" x2="438.493" y2="363.436"/>
						</g>
						<g>
							
								<line style="fill:none;stroke:#FFFFFF;stroke-width:1.1521;stroke-miterlimit:10;" x1="444.619" y1="344.438" x2="444.619" y2="363.436"/>
							
								<line style="fill:none;stroke:#FFFFFF;stroke-width:1.1521;stroke-miterlimit:10;" x1="450.443" y1="344.438" x2="450.443" y2="363.436"/>
						</g>
					</g>
				</g>
				<g>
					<path style="fill:#E06F5B;" d="M431.673,368.408c-0.473,1.393-0.754,3.324-0.754,5.458c0,2.147,0.294,4.09,0.767,5.484
						c0.268,0.818,0.614,1.457,0.984,1.815v0.358h-89.222V366.21h89.222v0.358C432.286,366.938,431.941,367.577,431.673,368.408z"/>
					<path style="fill:#FFFFFF;" d="M431.685,379.35h-24.734v-10.942h24.721c-0.473,1.393-0.754,3.324-0.754,5.458
						C430.918,376.014,431.212,377.957,431.685,379.35z"/>
					<path style="fill:none;stroke:#0F1109;stroke-width:1.1521;stroke-linecap:round;stroke-miterlimit:10;" d="M431.673,368.408
						c0,0-0.754,1.924-0.754,5.458c0,3.534,0.767,5.484,0.767,5.484"/>
				</g>
				<g>
					<g>
						<path style="fill:#857FF0;" d="M291.153,418.764c0.473,1.393,0.754,3.324,0.754,5.458c0,2.147-0.294,4.09-0.767,5.484
							c-0.268,0.818-0.614,1.457-0.984,1.815v0.358h141.53v-15.314h-141.53v0.358C290.539,417.294,290.884,417.933,291.153,418.764z
							"/>
						<path style="fill:#FFFFFF;" d="M291.14,429.705h24.734v-10.942h-24.721c0.473,1.393,0.754,3.324,0.754,5.458
							C291.907,426.369,291.613,428.312,291.14,429.705z"/>
						<path style="fill:none;stroke:#0F1109;stroke-width:1.1521;stroke-linecap:round;stroke-miterlimit:10;" d="M291.153,418.764
							c0,0,0.754,1.924,0.754,5.458c0,3.534-0.767,5.484-0.767,5.484"/>
					</g>
					<g>
						
							<line style="fill:none;stroke:#FFFFFF;stroke-width:1.1521;stroke-miterlimit:10;" x1="320.92" y1="417.63" x2="320.92" y2="430.986"/>
						
							<line style="fill:none;stroke:#FFFFFF;stroke-width:1.1521;stroke-miterlimit:10;" x1="326.744" y1="417.63" x2="326.744" y2="430.986"/>
					</g>
				</g>
			</g>
			<g>
				<path style="fill:#FFFFFF;" d="M83.582,334.626c-0.023-0.023-0.046-0.047-0.069-0.072c-0.551-0.599-0.534-1.468-0.72-2.215
					c-0.348-1.396,0.298-2.81,1.539-3.538c2.442-1.434,4.09-4.075,4.122-7.104c0.048-4.474-3.627-8.301-8.1-8.424
					c-4.713-0.131-8.574,3.651-8.574,8.334c0,1.007,0.131,1.693-0.964,2.132c-0.749,0.3-1.582,0.248-2.347,0.481
					c-4.722,1.438-8.037,5.924-8.037,10.858c0,4.72,2.884,8.762,6.985,10.471c1.25,0.521,2.051,1.707,2.042,3.062
					c0,0.027,0,0.054,0,0.082c0,8.03,6.953,14.437,15.167,13.528c6.23-0.689,11.28-5.736,11.974-11.966
					c0.238-2.139-0.019-4.323-0.775-6.339c-1.099-2.932-3.223-5.434-5.931-7.005c-1.373-0.796-2.884-1.348-4.448-1.623
					C84.714,335.158,84.119,335.157,83.582,334.626z"/>
				<g>
					<g>
						
							<rect x="55.909" y="368.9" transform="matrix(-1 -1.224647e-16 1.224647e-16 -1 157.1159 800.7805)" style="fill:#E8C245;" width="45.297" height="62.981"/>
						<path style="fill:#E8C245;" d="M36.18,400.392c0,10.899,8.835,19.733,19.733,19.733c10.891,0,19.725-8.835,19.725-19.733
							c0-10.898-8.835-19.733-19.725-19.733C45.014,380.659,36.18,389.494,36.18,400.392z M43.216,400.392
							c0-7.005,5.692-12.697,12.697-12.697c6.997,0,12.689,5.692,12.689,12.697c0,6.997-5.692,12.697-12.689,12.697
							C48.908,413.089,43.216,407.389,43.216,400.392z"/>
					</g>
					<polyline style="fill:none;stroke:#0F1109;stroke-width:1.0641;stroke-linecap:round;stroke-miterlimit:10;" points="
						101.207,431.881 101.207,368.9 55.909,368.9 					"/>
					<path style="fill:none;stroke:#0F1109;stroke-width:1.0641;stroke-linecap:round;stroke-miterlimit:10;" d="M55.913,387.695
						c0,0-12.697,1.602-12.697,12.697c0,11.095,12.697,12.697,12.697,12.697"/>
				</g>
			</g>
		</g>
		<line style="fill:#FFFFFF;stroke:#000000;stroke-miterlimit:10;" x1="457.915" y1="432.059" x2="42.085" y2="432.059"/>
	</g>
</g>
</svg>
