<?xml version="1.0" encoding="utf-8"?>
<!-- Generator: Adobe Illustrator 27.5.0, SVG Export Plug-In . SVG Version: 6.00 Build 0)  -->
<svg version="1.1" xmlns="http://www.w3.org/2000/svg" xmlns:xlink="http://www.w3.org/1999/xlink" x="0px" y="0px"
	 viewBox="0 0 500 500" style="enable-background:new 0 0 500 500;" xml:space="preserve">
<g id="BACKGROUND">
	<rect style="fill:#FFFFFF;" width="500" height="500"/>
</g>
<g id="OBJECTS">
	<g>
		<g>
			<g>
				<path style="fill:#6C5CD7;" d="M172.677,427.353l-0.686-0.005l0.012-0.871l0.675,0.005c0.73,0,1.46-0.016,2.193-0.047
					l0.037,0.869C174.162,427.337,173.418,427.353,172.677,427.353z M169.076,427.226c-0.971-0.068-1.948-0.165-2.903-0.287
					l0.111-0.863c0.939,0.12,1.898,0.215,2.852,0.281L169.076,427.226z M177.818,427.097l-0.088-0.865
					c0.954-0.097,1.912-0.219,2.846-0.365l0.135,0.859C179.761,426.875,178.788,427,177.818,427.097z M163.286,426.486
					c-0.953-0.178-1.913-0.385-2.854-0.616l0.207-0.846c0.926,0.228,1.87,0.432,2.808,0.607L163.286,426.486z M183.57,426.256
					l-0.143-0.859l2.855-0.472l0.142,0.859L183.57,426.256z M189.279,425.314l-0.143-0.859l2.855-0.472l0.143,0.859L189.279,425.314
					z M157.616,425.092c-0.922-0.283-1.852-0.599-2.765-0.936l0.301-0.816c0.898,0.332,1.813,0.641,2.72,0.92L157.616,425.092z
					 M194.988,424.372l-0.143-0.859l2.856-0.472l0.143,0.859L194.988,424.372z M200.698,423.428l-0.142-0.859l2.854-0.471
					l0.142,0.859L200.698,423.428z M152.144,423.065c-0.876-0.383-1.765-0.8-2.641-1.241l0.393-0.777
					c0.861,0.435,1.734,0.845,2.596,1.22L152.144,423.065z M206.407,422.486l-0.143-0.859l2.855-0.472l0.142,0.859L206.407,422.486z
					 M212.117,421.543l-0.143-0.859l2.855-0.472l0.143,0.859L212.117,421.543z M217.826,420.601l-0.143-0.859l2.855-0.472
					l0.143,0.859L217.826,420.601z M146.936,420.434c-0.837-0.483-1.672-0.998-2.483-1.529l0.477-0.728
					c0.798,0.522,1.62,1.028,2.442,1.504L146.936,420.434z M223.534,419.658l-0.141-0.859l2.854-0.471l0.142,0.859L223.534,419.658z
					 M229.245,418.715l-0.142-0.859l2.854-0.472l0.143,0.859L229.245,418.715z M234.954,417.773l-0.143-0.859l2.855-0.472
					l0.143,0.859L234.954,417.773z M142.059,417.236c-0.777-0.574-1.55-1.18-2.296-1.798l0.556-0.67
					c0.733,0.607,1.493,1.203,2.258,1.768L142.059,417.236z M240.662,416.83l-0.142-0.859l2.857-0.471l0.141,0.859L240.662,416.83z
					 M246.373,415.887l-0.143-0.859l2.855-0.471l0.142,0.859L246.373,415.887z M252.082,414.945l-0.143-0.859l2.854-0.472
					l0.143,0.859L252.082,414.945z M257.792,414.002l-0.143-0.859l2.855-0.472l0.143,0.859L257.792,414.002z M137.571,413.514
					c-0.708-0.658-1.408-1.346-2.079-2.044l0.628-0.604c0.66,0.686,1.347,1.362,2.044,2.009L137.571,413.514z M263.501,413.059
					l-0.143-0.859l2.854-0.471l0.143,0.859L263.501,413.059z M269.21,412.117l-0.143-0.859l2.855-0.472l0.143,0.859L269.21,412.117z
					 M274.92,411.174l-0.142-0.859l2.854-0.472l0.142,0.859L274.92,411.174z M280.629,410.232l-0.143-0.859l2.854-0.472l0.143,0.859
					L280.629,410.232z M133.532,409.312c-0.629-0.733-1.246-1.495-1.835-2.264l0.691-0.529c0.579,0.757,1.186,1.506,1.804,2.227
					L133.532,409.312z M286.339,409.289l-0.142-0.859l2.853-0.471l0.142,0.859L286.339,409.289z M292.048,408.346l-0.143-0.859
					l2.854-0.472l0.143,0.859L292.048,408.346z M297.757,407.404l-0.143-0.859l2.854-0.472l0.143,0.859L297.757,407.404z
					 M303.467,406.461l-0.143-0.859l2.854-0.472l0.143,0.859L303.467,406.461z M309.175,405.518l-0.141-0.859l2.854-0.471
					l0.142,0.859L309.175,405.518z M129.994,404.683c-0.54-0.797-1.067-1.623-1.566-2.455l0.747-0.447
					c0.49,0.818,1.008,1.631,1.54,2.414L129.994,404.683z M314.885,404.576l-0.143-0.859l2.855-0.472l0.143,0.859L314.885,404.576z
					 M320.595,403.633l-0.143-0.859l2.855-0.472l0.142,0.859L320.595,403.633z M326.304,402.69l-0.142-0.859l2.855-0.471
					l0.142,0.859L326.304,402.69z M332.014,401.748l-0.143-0.859l2.855-0.471l0.142,0.859L332.014,401.748z M337.723,400.805
					l-0.143-0.859l2.855-0.472l0.143,0.859L337.723,400.805z M343.432,399.863l-0.143-0.859l2.854-0.472l0.143,0.859
					L343.432,399.863z M127.004,399.687c-0.449-0.857-0.879-1.739-1.279-2.621l0.793-0.359c0.393,0.867,0.816,1.733,1.257,2.576
					L127.004,399.687z M349.142,398.919l-0.143-0.859l2.854-0.471l0.143,0.859L349.142,398.919z M354.851,397.977l-0.143-0.859
					l2.855-0.471l0.142,0.859L354.851,397.977z M360.56,397.035l-0.143-0.859l2.855-0.472l0.143,0.859L360.56,397.035z
					 M366.27,396.092l-0.143-0.859l3.03-0.501l0.142,0.859L366.27,396.092z M372.164,395.026l-0.193-0.85
					c0.934-0.212,1.868-0.451,2.777-0.711l0.24,0.836C374.063,394.566,373.112,394.81,372.164,395.026z M124.597,394.375
					c-0.348-0.903-0.675-1.828-0.972-2.75l0.828-0.268c0.292,0.907,0.614,1.816,0.957,2.703L124.597,394.375z M377.769,393.42
					l-0.287-0.822c0.895-0.312,1.796-0.654,2.681-1.021l0.332,0.805C379.595,392.754,378.678,393.103,377.769,393.42z
					 M383.156,391.19l-0.379-0.783c0.862-0.417,1.72-0.86,2.547-1.319l0.422,0.762C384.904,390.315,384.033,390.766,383.156,391.19z
					 M122.81,388.826c-0.243-0.931-0.464-1.887-0.658-2.842l0.854-0.172c0.19,0.938,0.407,1.879,0.646,2.793L122.81,388.826z
					 M388.254,388.366l-0.465-0.736c0.807-0.509,1.606-1.046,2.377-1.597l0.506,0.709
					C389.888,387.301,389.074,387.848,388.254,388.366z M392.995,384.982l-0.545-0.678c0.748-0.602,1.482-1.227,2.183-1.856
					l0.582,0.646C394.503,383.736,393.756,384.371,392.995,384.982z M121.646,383.121l-0.471-2.854l0.858-0.143l0.471,2.854
					L121.646,383.121z M397.325,381.083l-0.617-0.613c0.67-0.677,1.33-1.38,1.96-2.092l0.652,0.578
					C398.679,379.679,398.008,380.395,397.325,381.083z M120.703,377.411l-0.471-2.854l0.858-0.143l0.471,2.854L120.703,377.411z
					 M401.193,376.72l-0.684-0.539c0.592-0.749,1.169-1.522,1.715-2.299l0.713,0.5C402.382,375.173,401.795,375.96,401.193,376.72z
					 M404.548,371.949l-0.739-0.459c0.503-0.809,0.989-1.643,1.445-2.477l0.764,0.418
					C405.554,370.278,405.06,371.125,404.548,371.949z M119.761,371.702l-0.471-2.854l0.858-0.143l0.471,2.855L119.761,371.702z
					 M407.345,366.832l-0.785-0.375c0.407-0.856,0.797-1.739,1.158-2.624l0.807,0.328
					C408.156,365.062,407.76,365.961,407.345,366.832z M118.818,365.993l-0.471-2.855l0.858-0.143l0.471,2.855L118.818,365.993z
					 M409.553,361.427l-0.824-0.283c0.312-0.906,0.599-1.828,0.855-2.74l0.838,0.236
					C410.161,359.567,409.868,360.504,409.553,361.427z M117.875,360.283l-0.471-2.855l0.858-0.143l0.471,2.854L117.875,360.283z
					 M411.131,355.808l-0.85-0.188c0.206-0.934,0.388-1.883,0.539-2.82l0.859,0.139
					C411.525,353.893,411.341,354.859,411.131,355.808z M116.933,354.574l-0.471-2.854l0.858-0.143l0.471,2.855L116.933,354.574z
					 M412.063,350.042l-0.865-0.088c0.097-0.954,0.169-1.916,0.213-2.86l0.869,0.041
					C412.236,348.094,412.163,349.072,412.063,350.042z M115.99,348.865l-0.471-2.855l0.858-0.143l0.471,2.855L115.99,348.865z
					 M411.462,344.225c-0.011-0.953-0.048-1.917-0.111-2.866l0.869-0.059c0.064,0.966,0.103,1.946,0.113,2.915L411.462,344.225z
					 M115.047,343.155l-0.471-2.854l0.858-0.143l0.471,2.854L115.047,343.155z M411.08,338.504c-0.086-0.69-0.185-1.381-0.3-2.072
					l-0.127-0.772l0.859-0.141l0.127,0.771c0.116,0.702,0.218,1.404,0.304,2.107L411.08,338.504z M114.105,337.446l-0.471-2.854
					l0.858-0.143l0.471,2.854L114.105,337.446z M410.182,332.805l-0.472-2.854l0.859-0.143l0.472,2.854L410.182,332.805z
					 M113.162,331.736l-0.471-2.854l0.858-0.143l0.471,2.854L113.162,331.736z M409.239,327.096l-0.472-2.854l0.859-0.143
					l0.472,2.855L409.239,327.096z M112.22,326.027l-0.471-2.854l0.858-0.143l0.471,2.855L112.22,326.027z M408.296,321.386
					l-0.471-2.853l0.859-0.142l0.471,2.854L408.296,321.386z M111.277,320.318l-0.471-2.855l0.858-0.143l0.471,2.855
					L111.277,320.318z M407.353,315.676l-0.471-2.853l0.859-0.142l0.471,2.853L407.353,315.676z M110.334,314.608l-0.471-2.855
					l0.858-0.143l0.471,2.854L110.334,314.608z M406.411,309.968l-0.472-2.854l0.859-0.143l0.472,2.855L406.411,309.968z
					 M109.392,308.899l-0.471-2.854l0.858-0.143l0.471,2.855L109.392,308.899z M405.469,304.259l-0.472-2.855l0.859-0.143
					l0.472,2.855L405.469,304.259z M108.449,303.189l-0.471-2.854l0.858-0.143l0.471,2.854L108.449,303.189z M404.525,298.549
					l-0.471-2.855l0.859-0.142l0.471,2.855L404.525,298.549z M107.506,297.48l-0.471-2.855l0.858-0.143l0.471,2.854L107.506,297.48z
					 M403.583,292.839l-0.471-2.854l0.859-0.142l0.471,2.854L403.583,292.839z M106.564,291.771l-0.471-2.854l0.858-0.143
					l0.471,2.854L106.564,291.771z M402.641,287.131l-0.472-2.855l0.859-0.143l0.472,2.855L402.641,287.131z M105.621,286.061
					l-0.471-2.854l0.858-0.143l0.471,2.854L105.621,286.061z M401.698,281.421l-0.472-2.854l0.859-0.143l0.472,2.855
					L401.698,281.421z M104.679,280.352l-0.471-2.855l0.858-0.143l0.471,2.854L104.679,280.352z M400.755,275.712l-0.471-2.855
					l0.859-0.142l0.471,2.854L400.755,275.712z M103.736,274.643l-0.471-2.855l0.858-0.143l0.471,2.855L103.736,274.643z
					 M399.813,270.002l-0.471-2.855l0.859-0.142l0.471,2.854L399.813,270.002z M102.793,268.933l-0.471-2.854l0.858-0.143
					l0.471,2.854L102.793,268.933z M398.87,264.293l-0.472-2.854l0.859-0.143l0.472,2.855L398.87,264.293z M101.851,263.224
					l-0.471-2.854l0.858-0.142l0.471,2.854L101.851,263.224z M397.928,258.585l-0.472-2.855l0.859-0.142l0.472,2.854
					L397.928,258.585z M100.908,257.514l-0.471-2.855l0.858-0.142l0.471,2.854L100.908,257.514z M396.984,252.874l-0.471-2.855
					l0.859-0.142l0.471,2.855L396.984,252.874z M99.965,251.805l-0.471-2.855l0.858-0.142l0.471,2.855L99.965,251.805z
					 M396.042,247.165l-0.471-2.854l0.859-0.142l0.471,2.855L396.042,247.165z M99.023,246.095l-0.471-2.854l0.858-0.142
					l0.471,2.854L99.023,246.095z M395.1,241.456l-0.472-2.854l0.859-0.142l0.472,2.854L395.1,241.456z M98.08,240.386l-0.471-2.854
					l0.858-0.142l0.471,2.854L98.08,240.386z M394.157,235.746l-0.472-2.854l0.859-0.142l0.472,2.855L394.157,235.746z
					 M97.138,234.677l-0.471-2.855l0.858-0.142l0.471,2.855L97.138,234.677z M393.214,230.037l-0.471-2.855l0.859-0.142l0.471,2.855
					L393.214,230.037z M96.195,228.967l-0.471-2.855l0.858-0.142l0.471,2.854L96.195,228.967z M392.271,224.328l-0.471-2.855
					l0.859-0.142l0.471,2.855L392.271,224.328z M95.252,223.258l-0.471-2.854l0.858-0.142l0.471,2.854L95.252,223.258z
					 M391.329,218.618l-0.472-2.854l0.859-0.142l0.472,2.854L391.329,218.618z M94.31,217.548l-0.471-2.854l0.858-0.142l0.471,2.854
					L94.31,217.548z M390.387,212.909l-0.472-2.855l0.859-0.142l0.472,2.855L390.387,212.909z M93.367,211.839l-0.471-2.855
					l0.858-0.142l0.471,2.855L93.367,211.839z M389.443,207.2l-0.471-2.855l0.859-0.142l0.471,2.855L389.443,207.2z M92.424,206.13
					l-0.471-2.854l0.858-0.142l0.471,2.854L92.424,206.13z M388.501,201.49l-0.471-2.855l0.859-0.142l0.471,2.855L388.501,201.49z
					 M91.482,200.42l-0.471-2.854l0.858-0.142l0.471,2.854L91.482,200.42z M387.559,195.781l-0.472-2.855l0.859-0.142l0.472,2.855
					L387.559,195.781z M90.539,194.711l-0.471-2.855l0.858-0.142l0.471,2.855L90.539,194.711z M386.616,190.071l-0.472-2.855
					l0.859-0.142l0.472,2.855L386.616,190.071z M89.597,189.002l-0.471-2.855l0.858-0.142l0.471,2.855L89.597,189.002z
					 M385.673,184.362l-0.471-2.855l0.859-0.142l0.471,2.855L385.673,184.362z M88.697,183.268c-0.118-0.963-0.21-1.94-0.272-2.905
					l0.868-0.057c0.062,0.948,0.152,1.909,0.268,2.856L88.697,183.268z M384.73,178.653l-0.471-2.855l0.859-0.142l0.471,2.855
					L384.73,178.653z M88.317,177.448l-0.002-0.452c0-0.825,0.02-1.647,0.059-2.465l0.869,0.042
					c-0.039,0.804-0.058,1.612-0.058,2.423l0.002,0.443L88.317,177.448z M383.788,172.943l-0.472-2.855l0.859-0.142l0.472,2.855
					L383.788,172.943z M89.462,171.713l-0.865-0.091c0.101-0.963,0.232-1.938,0.389-2.896l0.859,0.141
					C89.691,169.809,89.563,170.767,89.462,171.713z M382.846,167.234l-0.472-2.855l0.859-0.142l0.472,2.855L382.846,167.234z
					 M90.388,166.047l-0.85-0.189c0.21-0.944,0.451-1.896,0.715-2.832l0.838,0.237C90.832,164.183,90.595,165.119,90.388,166.047z
					 M381.902,161.524l-0.471-2.854l0.859-0.142l0.471,2.854L381.902,161.524z M91.952,160.524l-0.823-0.284
					c0.314-0.911,0.662-1.83,1.031-2.731l0.806,0.33C92.602,158.726,92.261,159.629,91.952,160.524z M380.96,155.815l-0.471-2.855
					l0.859-0.142l0.471,2.855L380.96,155.815z M94.129,155.217l-0.785-0.376c0.418-0.875,0.867-1.749,1.333-2.596l0.763,0.419
					C94.981,153.497,94.541,154.356,94.129,155.217z M96.89,150.189l-0.738-0.461c0.514-0.823,1.057-1.64,1.615-2.43l0.711,0.502
					C97.929,148.577,97.395,149.38,96.89,150.189z M380.018,150.106l-0.472-2.855l0.859-0.142l0.472,2.855L380.018,150.106z
					 M100.196,145.504l-0.682-0.541c0.6-0.756,1.231-1.507,1.876-2.232l0.65,0.578C101.406,144.023,100.786,144.762,100.196,145.504
					z M379.075,144.396l-0.472-2.854l0.859-0.142l0.472,2.854L379.075,144.396z M104.006,141.222l-0.617-0.614
					c0.682-0.685,1.394-1.36,2.115-2.007l0.581,0.648C105.375,139.885,104.676,140.549,104.006,141.222z M378.132,138.687
					l-0.153-0.931c-0.105-0.638-0.223-1.272-0.35-1.901l0.853-0.174c0.13,0.64,0.249,1.284,0.356,1.933l0.153,0.931L378.132,138.687
					z M108.271,137.396l-0.544-0.68c0.756-0.605,1.539-1.195,2.326-1.755l0.505,0.709
					C109.783,136.221,109.014,136.801,108.271,137.396z M112.938,134.078l-0.463-0.737c0.818-0.514,1.662-1.012,2.509-1.479
					l0.421,0.762C114.572,133.083,113.742,133.572,112.938,134.078z M376.977,133.063c-0.242-0.92-0.513-1.846-0.807-2.751
					l0.828-0.269c0.299,0.921,0.574,1.862,0.82,2.799L376.977,133.063z M117.953,131.31l-0.377-0.785
					c0.874-0.419,1.77-0.818,2.665-1.187l0.331,0.805C119.693,130.505,118.812,130.898,117.953,131.31z M123.253,129.127
					l-0.285-0.822c0.913-0.316,1.849-0.612,2.782-0.877l0.238,0.837C125.07,128.526,124.15,128.816,123.253,129.127z
					 M375.208,127.61c-0.34-0.878-0.714-1.767-1.112-2.643l0.793-0.36c0.405,0.891,0.785,1.795,1.132,2.688L375.208,127.61z
					 M128.767,127.558l-0.19-0.85c0.947-0.212,1.91-0.401,2.862-0.56l0.144,0.858C130.645,127.164,129.698,127.349,128.767,127.558z
					 M134.436,126.536l-0.142-0.858l2.855-0.471l0.142,0.858L134.436,126.536z M140.145,125.594l-0.142-0.858l2.854-0.472
					l0.142,0.858L140.145,125.594z M145.854,124.651l-0.143-0.858l2.855-0.471l0.143,0.858L145.854,124.651z M151.564,123.709
					l-0.143-0.858l2.855-0.472l0.143,0.858L151.564,123.709z M157.273,122.766l-0.143-0.858l2.855-0.471l0.143,0.858
					L157.273,122.766z M372.835,122.393c-0.439-0.836-0.91-1.675-1.403-2.495l0.746-0.448c0.501,0.834,0.981,1.688,1.429,2.538
					L372.835,122.393z M162.982,121.823l-0.143-0.858l2.855-0.472l0.143,0.858L162.982,121.823z M168.692,120.88l-0.143-0.858
					l2.855-0.471l0.143,0.858L168.692,120.88z M174.401,119.938l-0.143-0.858l2.855-0.472l0.143,0.858L174.401,119.938z
					 M180.111,118.995l-0.143-0.858l2.855-0.471l0.142,0.858L180.111,118.995z M185.82,118.053l-0.143-0.858l2.855-0.472
					l0.142,0.858L185.82,118.053z M369.887,117.486c-0.538-0.789-1.103-1.571-1.68-2.322l0.691-0.529
					c0.586,0.764,1.16,1.559,1.707,2.361L369.887,117.486z M191.529,117.11l-0.143-0.858l2.855-0.471l0.143,0.858L191.529,117.11z
					 M197.239,116.168l-0.143-0.858l2.855-0.471l0.143,0.858L197.239,116.168z M202.948,115.225l-0.143-0.858l2.855-0.471
					l0.143,0.858L202.948,115.225z M208.658,114.282l-0.142-0.858l2.854-0.471l0.143,0.858L208.658,114.282z M214.367,113.339
					l-0.143-0.858l2.855-0.471l0.143,0.858L214.367,113.339z M366.401,112.942c-0.62-0.72-1.27-1.433-1.931-2.119l0.627-0.604
					c0.672,0.697,1.333,1.422,1.964,2.155L366.401,112.942z M220.076,112.397l-0.143-0.858l2.855-0.471l0.143,0.858L220.076,112.397
					z M225.786,111.454l-0.143-0.858l2.854-0.471l0.143,0.858L225.786,111.454z M231.495,110.512l-0.142-0.858l2.854-0.471
					l0.143,0.858L231.495,110.512z M237.204,109.569l-0.143-0.858l2.855-0.471l0.143,0.858L237.204,109.569z M362.422,108.817
					c-0.701-0.649-1.427-1.284-2.157-1.888l0.555-0.671c0.743,0.615,1.481,1.261,2.194,1.92L362.422,108.817z M242.914,108.627
					l-0.143-0.858l2.854-0.471l0.143,0.858L242.914,108.627z M248.623,107.684l-0.143-0.858l2.854-0.471l0.143,0.858
					L248.623,107.684z M254.333,106.741l-0.143-0.858l2.854-0.471l0.143,0.858L254.333,106.741z M260.042,105.798l-0.143-0.858
					l2.855-0.471l0.143,0.858L260.042,105.798z M358.005,105.164c-0.762-0.561-1.555-1.111-2.357-1.635l0.477-0.729
					c0.816,0.533,1.623,1.093,2.396,1.664L358.005,105.164z M265.751,104.856l-0.143-0.858l2.854-0.471l0.143,0.858L265.751,104.856
					z M271.461,103.914l-0.143-0.858l2.854-0.472l0.143,0.858L271.461,103.914z M277.17,102.971l-0.142-0.858l2.854-0.471
					l0.142,0.858L277.17,102.971z M353.202,102.029c-0.819-0.473-1.669-0.93-2.524-1.361l0.391-0.777
					c0.871,0.438,1.735,0.903,2.569,1.384L353.202,102.029z M282.879,102.028l-0.143-0.858l2.855-0.472l0.143,0.858L282.879,102.028
					z M288.589,101.086l-0.143-0.858l2.854-0.471l0.143,0.858L288.589,101.086z M294.298,100.143l-0.143-0.858l2.854-0.472
					l0.143,0.858L294.298,100.143z M348.079,99.452c-0.879-0.381-1.774-0.74-2.664-1.068l0.301-0.816
					c0.904,0.333,1.817,0.699,2.709,1.086L348.079,99.452z M300.008,99.2l-0.142-0.858l2.854-0.471l0.143,0.858L300.008,99.2z
					 M305.717,98.258l-0.143-0.858l2.854-0.472l0.143,0.858L305.717,98.258z M342.694,97.468c-0.918-0.28-1.85-0.535-2.769-0.76
					l0.207-0.846c0.935,0.229,1.882,0.488,2.816,0.772L342.694,97.468z M311.426,97.315l-0.143-0.858l2.854-0.471l0.143,0.858
					L311.426,97.315z M317.136,96.373l-0.143-0.858l2.857-0.471l0.137,0.859L317.136,96.373z M337.117,96.108
					c-0.94-0.174-1.895-0.322-2.838-0.441l0.109-0.863c0.959,0.121,1.93,0.271,2.887,0.448L337.117,96.108z M322.832,95.533
					l-0.088-0.866c0.966-0.098,1.944-0.17,2.91-0.213l0.039,0.869C324.744,95.366,323.781,95.437,322.832,95.533z M331.425,95.39
					c-0.944-0.065-1.908-0.104-2.864-0.115l0.01-0.87c0.973,0.011,1.953,0.05,2.915,0.117L331.425,95.39z"/>
			</g>
			<g>
				<path style="fill:#C0B6FF;" d="M320.608,443.395l-0.02-0.914c1.002-0.022,2.014-0.073,3.006-0.151l0.072,0.912
					C322.657,443.321,321.628,443.373,320.608,443.395z M317.544,443.375c-1.014-0.035-2.043-0.101-3.061-0.195l0.084-0.91
					c1,0.092,2.013,0.156,3.008,0.191L317.544,443.375z M326.712,442.913l-0.123-0.906c0.981-0.134,1.981-0.299,2.971-0.492
					l0.176,0.898C328.728,442.609,327.711,442.777,326.712,442.913z M311.439,442.813c-1.008-0.15-2.023-0.332-3.019-0.538
					l0.186-0.897c0.978,0.203,1.977,0.382,2.968,0.53L311.439,442.813z M332.724,441.742l-0.225-0.887
					c0.972-0.247,1.946-0.524,2.897-0.825l0.275,0.873C334.705,441.207,333.713,441.491,332.724,441.742z M305.436,441.568
					l-3.12-0.843l0.238-0.883l3.12,0.843L305.436,441.568z M299.379,439.932l-2.936-0.793l0.238-0.883l2.935,0.793L299.379,439.932z
					 M338.567,439.899l-0.324-0.855c0.931-0.352,1.868-0.737,2.787-1.145l0.371,0.836
					C340.467,439.149,339.514,439.542,338.567,439.899z M293.508,438.346l-2.936-0.793l0.238-0.883l2.936,0.793L293.508,438.346z
					 M344.167,437.412l-0.418-0.814c0.895-0.46,1.783-0.949,2.642-1.452l0.463,0.789
					C345.982,436.446,345.077,436.943,344.167,437.412z M287.636,436.76l-2.936-0.793l0.238-0.883l2.935,0.793L287.636,436.76z
					 M281.764,435.174l-2.936-0.793l0.238-0.883l2.936,0.793L281.764,435.174z M349.451,434.308l-0.506-0.762
					c0.833-0.555,1.662-1.14,2.463-1.74l0.549,0.732C351.143,433.149,350.3,433.745,349.451,434.308z M275.893,433.589l-2.936-0.793
					l0.238-0.883l2.936,0.793L275.893,433.589z M270.021,432.003l-2.936-0.793l0.238-0.883l2.935,0.793L270.021,432.003z
					 M354.359,430.63l-0.588-0.701c0.765-0.643,1.522-1.316,2.252-2.005l0.627,0.666C355.908,429.29,355.138,429.976,354.359,430.63
					z M264.149,430.418l-2.936-0.793l0.238-0.883l2.936,0.793L264.149,430.418z M258.277,428.832l-2.936-0.793l0.238-0.883
					l2.936,0.793L258.277,428.832z M252.405,427.246l-2.936-0.793l0.238-0.883l2.936,0.793L252.405,427.246z M358.821,426.423
					l-0.664-0.629c0.69-0.729,1.367-1.485,2.012-2.248l0.699,0.59C360.212,424.913,359.523,425.682,358.821,426.423z
					 M246.534,425.66l-2.937-0.793l0.238-0.883l2.936,0.793L246.534,425.66z M240.662,424.074l-2.936-0.793l0.238-0.883l2.936,0.793
					L240.662,424.074z M234.79,422.488l-2.936-0.793l0.238-0.883l2.936,0.793L234.79,422.488z M362.781,421.736l-0.732-0.549
					c0.604-0.804,1.19-1.632,1.744-2.463l0.762,0.508C363.991,420.077,363.395,420.919,362.781,421.736z M228.919,420.902
					l-2.937-0.793l0.238-0.883l2.937,0.793L228.919,420.902z M223.047,419.316l-2.936-0.792l0.238-0.883l2.936,0.792
					L223.047,419.316z M217.175,417.731l-2.935-0.793l0.238-0.883l2.936,0.793L217.175,417.731z M366.184,416.629l-0.789-0.463
					c0.508-0.866,0.996-1.755,1.45-2.643l0.814,0.418C367.196,414.844,366.7,415.749,366.184,416.629z M211.304,416.145
					l-2.937-0.793l0.238-0.883l2.936,0.793L211.304,416.145z M205.432,414.559l-2.936-0.793l0.238-0.883l2.936,0.793
					L205.432,414.559z M199.561,412.973l-2.937-0.793l0.238-0.883l2.937,0.793L199.561,412.973z M193.688,411.387l-2.936-0.793
					l0.238-0.883l2.936,0.793L193.688,411.387z M368.979,411.173l-0.836-0.371c0.402-0.909,0.786-1.848,1.142-2.788l0.855,0.322
					C369.78,409.293,369.39,410.248,368.979,411.173z M187.816,409.801l-2.936-0.793l0.238-0.883l2.936,0.793L187.816,409.801z
					 M181.945,408.215l-2.937-0.793l0.238-0.883l2.936,0.793L181.945,408.215z M176.073,406.629l-2.936-0.793l0.238-0.883
					l2.936,0.793L176.073,406.629z M371.14,405.44l-0.873-0.275c0.22-0.697,0.426-1.401,0.618-2.112l0.214-0.792l0.883,0.238
					l-0.214,0.792C371.571,404.015,371.363,404.731,371.14,405.44z M170.201,405.043l-2.936-0.793l0.238-0.883l2.936,0.793
					L170.201,405.043z M164.33,403.458l-2.936-0.793l0.238-0.883l2.936,0.793L164.33,403.458z M158.458,401.873l-2.936-0.793
					l0.238-0.883l2.936,0.793L158.458,401.873z M152.586,400.287l-2.936-0.793l0.238-0.883l2.936,0.793L152.586,400.287z
					 M372.774,399.563l-0.883-0.238l0.793-2.936l0.883,0.238L372.774,399.563z M146.715,398.701l-2.937-0.793l0.238-0.883
					l2.937,0.793L146.715,398.701z M140.843,397.115l-2.936-0.793l0.238-0.883l2.936,0.793L140.843,397.115z M134.971,395.529
					l-2.936-0.793l0.238-0.883l2.936,0.793L134.971,395.529z M129.1,393.943l-2.936-0.793l0.238-0.883l2.936,0.793L129.1,393.943z
					 M374.36,393.691l-0.883-0.238l0.793-2.936l0.883,0.238L374.36,393.691z M123.228,392.357l-2.936-0.793l0.238-0.883l2.935,0.793
					L123.228,392.357z M117.356,390.771l-2.936-0.793l0.238-0.883l2.936,0.793L117.356,390.771z M111.481,389.182
					c-0.982-0.274-1.967-0.579-2.928-0.905l0.295-0.867c0.945,0.322,1.914,0.621,2.879,0.892L111.481,389.182z M375.946,387.82
					l-0.883-0.238l0.793-2.937l0.883,0.238L375.946,387.82z M105.679,387.208c-0.945-0.382-1.89-0.795-2.809-1.228l0.39-0.828
					c0.903,0.426,1.832,0.832,2.762,1.208L105.679,387.208z M100.136,384.594c-0.899-0.488-1.791-1.006-2.652-1.54l0.482-0.777
					c0.846,0.524,1.723,1.033,2.606,1.513L100.136,384.594z M377.532,381.948l-0.883-0.238l0.793-2.936l0.883,0.238L377.532,381.948
					z M94.921,381.366c-0.83-0.582-1.659-1.199-2.462-1.833l0.566-0.719c0.79,0.624,1.604,1.23,2.421,1.802L94.921,381.366z
					 M90.106,377.562c-0.763-0.677-1.516-1.384-2.237-2.101l0.645-0.648c0.71,0.704,1.449,1.399,2.199,2.064L90.106,377.562z
					 M379.117,376.076l-0.883-0.238l0.793-2.936l0.883,0.238L379.117,376.076z M85.755,373.239
					c-0.676-0.752-1.344-1.539-1.985-2.338l0.714-0.572c0.63,0.785,1.287,1.559,1.952,2.299L85.755,373.239z M380.703,370.205
					l-0.883-0.238l0.793-2.937l0.883,0.238L380.703,370.205z M81.919,368.456c-0.595-0.835-1.17-1.692-1.709-2.547l0.773-0.488
					c0.53,0.841,1.095,1.683,1.681,2.504L81.919,368.456z M382.289,364.332l-0.883-0.238l0.793-2.936l0.883,0.238L382.289,364.332z
					 M78.646,363.272c-0.497-0.895-0.972-1.81-1.413-2.722l0.823-0.398c0.434,0.896,0.901,1.797,1.389,2.675L78.646,363.272z
					 M383.875,358.461l-0.883-0.238l0.793-2.936l0.883,0.238L383.875,358.461z M75.977,357.755
					c-0.392-0.941-0.761-1.904-1.098-2.862l0.863-0.303c0.331,0.941,0.694,1.888,1.08,2.814L75.977,357.755z M385.461,352.589
					l-0.883-0.238l0.793-2.936l0.883,0.238L385.461,352.589z M73.943,351.976c-0.284-0.979-0.542-1.977-0.769-2.965l0.892-0.205
					c0.223,0.972,0.477,1.953,0.756,2.916L73.943,351.976z M387.047,346.717l-0.883-0.238l0.793-2.936l0.883,0.238L387.047,346.717z
					 M72.574,346.005c-0.17-1.002-0.314-2.022-0.428-3.033l0.909-0.102c0.112,0.993,0.253,1.996,0.421,2.98L72.574,346.005z
					 M388.633,340.845l-0.883-0.238l0.793-2.936l0.883,0.238L388.633,340.845z M71.892,339.922
					c-0.054-0.977-0.081-1.971-0.081-2.955v-0.109h0.915v0.109c0,0.968,0.027,1.944,0.08,2.904L71.892,339.922z M390.219,334.974
					l-0.883-0.238l0.793-2.936l0.883,0.238L390.219,334.974z M72.817,333.846l-0.913-0.055c0.06-1.012,0.149-2.039,0.267-3.055
					l0.909,0.105C72.965,331.84,72.876,332.851,72.817,333.846z M391.804,329.102l-0.883-0.238l0.793-2.936l0.883,0.238
					L391.804,329.102z M73.513,327.859l-0.901-0.156c0.174-1.003,0.379-2.014,0.609-3.005l0.892,0.207
					C73.886,325.879,73.684,326.874,73.513,327.859z M393.39,323.231l-0.883-0.238l0.793-2.936l0.883,0.238L393.39,323.231z
					 M74.868,321.976l-0.883-0.238l0.793-2.936l0.883,0.238L74.868,321.976z M394.976,317.359l-0.883-0.238l0.793-2.936l0.883,0.238
					L394.976,317.359z M76.453,316.105l-0.883-0.238l0.793-2.936l0.883,0.238L76.453,316.105z M396.561,311.487l-0.883-0.238
					l0.793-2.936l0.883,0.238L396.561,311.487z M78.039,310.233l-0.883-0.238l0.793-2.935l0.883,0.238L78.039,310.233z
					 M398.147,305.616l-0.883-0.238l0.793-2.937l0.883,0.238L398.147,305.616z M79.625,304.361l-0.883-0.238l0.793-2.936
					l0.883,0.238L79.625,304.361z M399.733,299.744l-0.883-0.238l0.793-2.936l0.883,0.238L399.733,299.744z M81.211,298.49
					l-0.883-0.238l0.793-2.937l0.883,0.238L81.211,298.49z M401.319,293.872l-0.883-0.238l0.793-2.935l0.883,0.238L401.319,293.872z
					 M82.797,292.618l-0.883-0.238l0.792-2.935l0.883,0.238L82.797,292.618z M402.905,288l-0.883-0.238l0.793-2.936l0.883,0.238
					L402.905,288z M84.382,286.746l-0.883-0.238l0.793-2.935l0.883,0.238L84.382,286.746z M404.491,282.128l-0.883-0.238
					l0.792-2.936l0.883,0.238L404.491,282.128z M85.968,280.875l-0.883-0.238l0.793-2.936l0.883,0.238L85.968,280.875z
					 M406.076,276.256l-0.883-0.238l0.793-2.936l0.883,0.238L406.076,276.256z M87.554,275.002l-0.883-0.238l0.793-2.936
					l0.883,0.238L87.554,275.002z M407.662,270.385l-0.883-0.238l0.793-2.936l0.883,0.238L407.662,270.385z M89.14,269.13
					l-0.883-0.238l0.793-2.936l0.883,0.238L89.14,269.13z M409.248,264.513l-0.883-0.238l0.793-2.936l0.883,0.238L409.248,264.513z
					 M90.726,263.259l-0.883-0.238l0.793-2.936l0.883,0.238L90.726,263.259z M410.834,258.642l-0.883-0.238l0.793-2.937l0.883,0.238
					L410.834,258.642z M92.312,257.387l-0.883-0.238l0.793-2.936l0.883,0.238L92.312,257.387z M412.42,252.77l-0.883-0.238
					l0.793-2.936l0.883,0.238L412.42,252.77z M93.897,251.516l-0.883-0.238l0.793-2.936l0.883,0.238L93.897,251.516z
					 M414.006,246.898l-0.883-0.238l0.793-2.936l0.883,0.238L414.006,246.898z M95.483,245.644l-0.883-0.238l0.793-2.936
					l0.883,0.238L95.483,245.644z M415.592,241.026l-0.883-0.238l0.793-2.936l0.883,0.238L415.592,241.026z M97.07,239.772
					l-0.883-0.238l0.792-2.936l0.883,0.238L97.07,239.772z M417.178,235.155l-0.883-0.238l0.793-2.936l0.883,0.238L417.178,235.155z
					 M98.655,233.9l-0.883-0.238l0.793-2.936l0.883,0.238L98.655,233.9z M418.763,229.283l-0.883-0.238l0.793-2.936l0.883,0.238
					L418.763,229.283z M100.241,228.029l-0.883-0.238l0.793-2.936l0.883,0.238L100.241,228.029z M420.349,223.411l-0.883-0.238
					l0.793-2.936l0.883,0.238L420.349,223.411z M101.827,222.157l-0.883-0.238l0.793-2.936l0.883,0.238L101.827,222.157z
					 M421.935,217.54l-0.883-0.238l0.793-2.936l0.883,0.238L421.935,217.54z M103.413,216.285l-0.883-0.238l0.793-2.936l0.883,0.238
					L103.413,216.285z M423.52,211.668l-0.883-0.238l0.793-2.936l0.883,0.238L423.52,211.668z M104.998,210.414l-0.883-0.238
					l0.793-2.936l0.883,0.238L104.998,210.414z M425.106,205.796l-0.883-0.238l0.793-2.936l0.883,0.238L425.106,205.796z
					 M106.584,204.542l-0.883-0.238l0.793-2.936l0.883,0.238L106.584,204.542z M426.692,199.924l-0.883-0.238l0.259-0.959
					c0.177-0.656,0.342-1.313,0.493-1.97l0.892,0.205c-0.154,0.668-0.321,1.336-0.502,2.003L426.692,199.924z M108.17,198.67
					l-0.883-0.238l0.793-2.936l0.883,0.238L108.17,198.67z M428.058,193.957l-0.902-0.155c0.171-0.99,0.314-1.994,0.428-2.983
					l0.908,0.104C428.377,191.929,428.23,192.95,428.058,193.957z M109.756,192.798l-0.883-0.238l0.793-2.936l0.883,0.238
					L109.756,192.798z M428.754,187.867l-0.914-0.053c0.059-1.003,0.088-2.016,0.088-3.013h0.914
					C428.842,185.816,428.813,186.847,428.754,187.867z M111.342,186.927l-0.883-0.238l0.792-2.936l0.883,0.238L111.342,186.927z
					 M427.842,181.79c-0.058-1.007-0.145-2.016-0.256-3l0.908-0.104c0.114,1,0.202,2.027,0.262,3.051L427.842,181.79z
					 M112.927,181.055l-0.883-0.238l0.793-2.936l0.883,0.238L112.927,181.055z M427.159,175.809
					c-0.168-0.982-0.368-1.976-0.594-2.953l0.891-0.206c0.23,0.994,0.434,2.005,0.605,3.003L427.159,175.809z M114.513,175.183
					l-0.883-0.238l0.793-2.936l0.883,0.238L114.513,175.183z M425.804,169.942c-0.282-0.968-0.594-1.933-0.925-2.868l0.863-0.306
					c0.336,0.951,0.652,1.933,0.94,2.917L425.804,169.942z M116.099,169.311l-0.883-0.238l0.793-2.936l0.883,0.238L116.099,169.311z
					 M423.795,164.263c-0.384-0.918-0.801-1.841-1.241-2.746l0.822-0.4c0.448,0.919,0.873,1.859,1.263,2.794L423.795,164.263z
					 M117.686,163.44l-0.884-0.238l0.793-2.936l0.883,0.238L117.686,163.44z M421.159,158.845c-0.485-0.871-1.004-1.743-1.542-2.59
					l0.773-0.49c0.547,0.862,1.074,1.749,1.567,2.635L421.159,158.845z M119.271,157.568l-0.883-0.238l0.793-2.936l0.883,0.238
					L119.271,157.568z M417.933,153.753c-0.58-0.811-1.194-1.619-1.823-2.402l0.713-0.573c0.64,0.796,1.264,1.618,1.854,2.443
					L417.933,153.753z M120.856,151.696l-0.883-0.238l0.793-2.935l0.883,0.238L120.856,151.696z M414.153,149.057
					c-0.67-0.744-1.37-1.477-2.082-2.181l0.645-0.65c0.723,0.716,1.436,1.463,2.117,2.219L414.153,149.057z M122.442,145.825
					l-0.883-0.238l0.793-2.936l0.883,0.238L122.442,145.825z M409.866,144.815c-0.744-0.659-1.523-1.309-2.316-1.933l0.566-0.719
					c0.806,0.635,1.599,1.296,2.355,1.966L409.866,144.815z M405.128,141.085c-0.819-0.572-1.668-1.13-2.522-1.657l0.48-0.778
					c0.869,0.536,1.732,1.104,2.565,1.686L405.128,141.085z M124.028,139.953l-0.883-0.238l0.793-2.936l0.883,0.238L124.028,139.953
					z M399.995,137.919c-0.878-0.475-1.782-0.931-2.689-1.357l0.389-0.828c0.923,0.434,1.844,0.898,2.736,1.381L399.995,137.919z
					 M394.541,135.359c-0.926-0.372-1.877-0.724-2.826-1.045l0.293-0.866c0.966,0.327,1.933,0.685,2.875,1.063L394.541,135.359z
					 M125.614,134.081l-0.883-0.238l0.793-2.936l0.883,0.238L125.614,134.081z M388.832,133.428l-2.931-0.793l0.238-0.883
					l2.939,0.795L388.832,133.428z M382.965,131.842l-2.936-0.793l0.238-0.883l2.936,0.793L382.965,131.842z M377.094,130.256
					l-2.936-0.793l0.238-0.883l2.936,0.793L377.094,130.256z M371.222,128.67l-2.935-0.793l0.238-0.883l2.936,0.793L371.222,128.67z
					 M127.2,128.21l-0.883-0.238l0.793-2.936l0.883,0.238L127.2,128.21z M365.351,127.085l-2.936-0.793l0.238-0.883l2.936,0.793
					L365.351,127.085z M359.478,125.498l-2.935-0.793l0.238-0.883l2.935,0.793L359.478,125.498z M353.606,123.913l-2.936-0.793
					l0.238-0.883l2.936,0.793L353.606,123.913z M128.786,122.338l-0.883-0.238l0.793-2.936l0.883,0.238L128.786,122.338z
					 M347.735,122.327l-2.936-0.793l0.238-0.883l2.937,0.793L347.735,122.327z M341.863,120.741l-2.936-0.793l0.238-0.883
					l2.936,0.793L341.863,120.741z M335.991,119.155l-2.935-0.793l0.238-0.883l2.935,0.793L335.991,119.155z M330.12,117.569
					l-2.936-0.793l0.238-0.883l2.936,0.793L330.12,117.569z M130.413,116.498l-0.872-0.275c0.307-0.972,0.645-1.946,1.005-2.896
					l0.855,0.324C131.047,114.585,130.715,115.543,130.413,116.498z M324.248,115.983l-2.936-0.793l0.238-0.883l2.936,0.793
					L324.248,115.983z M318.376,114.397l-2.936-0.793l0.238-0.883l2.936,0.793L318.376,114.397z M312.505,112.812l-2.935-0.792
					l0.238-0.883l2.936,0.793L312.505,112.812z M306.633,111.226l-2.935-0.793l0.238-0.883l2.936,0.793L306.633,111.226z
					 M132.548,110.864l-0.836-0.372c0.413-0.929,0.859-1.859,1.325-2.765l0.814,0.419
					C133.392,109.037,132.954,109.951,132.548,110.864z M300.762,109.64l-2.936-0.793l0.238-0.883l2.936,0.793L300.762,109.64z
					 M294.89,108.054l-2.936-0.793l0.238-0.883l2.936,0.793L294.89,108.054z M289.018,106.468l-2.935-0.793l0.238-0.883l2.936,0.793
					L289.018,106.468z M135.306,105.507l-0.788-0.464c0.516-0.877,1.065-1.752,1.633-2.601l0.761,0.509
					C136.353,103.785,135.813,104.645,135.306,105.507z M283.146,104.882l-2.936-0.792l0.238-0.883l2.936,0.792L283.146,104.882z
					 M277.274,103.297l-2.935-0.793l0.238-0.883l2.936,0.793L277.274,103.297z M271.402,101.711l-2.936-0.793l0.238-0.883
					l2.936,0.793L271.402,101.711z M138.659,100.491l-0.73-0.551c0.61-0.809,1.255-1.615,1.917-2.397l0.698,0.592
					C139.893,98.904,139.258,99.697,138.659,100.491z M265.531,100.125l-2.937-0.793l0.238-0.883l2.937,0.793L265.531,100.125z
					 M259.659,98.539l-2.935-0.793l0.238-0.883l2.936,0.793L259.659,98.539z M253.787,96.953l-2.936-0.793l0.238-0.883l2.936,0.793
					L253.787,96.953z M142.56,95.891l-0.663-0.63c0.703-0.74,1.435-1.467,2.176-2.163l0.627,0.667
					C143.97,94.449,143.251,95.165,142.56,95.891z M247.916,95.368l-2.937-0.793l0.238-0.883l2.937,0.793L247.916,95.368z
					 M242.044,93.782l-2.936-0.793l0.238-0.883l2.936,0.793L242.044,93.782z M236.173,92.196l-2.937-0.793l0.238-0.883l2.937,0.793
					L236.173,92.196z M146.954,91.763l-0.588-0.701c0.784-0.657,1.593-1.298,2.405-1.903l0.547,0.733
					C148.52,90.487,147.725,91.117,146.954,91.763z M230.301,90.61l-2.935-0.793l0.238-0.883l2.936,0.793L230.301,90.61z
					 M224.429,89.024l-2.936-0.793l0.238-0.883l2.936,0.793L224.429,89.024z M151.785,88.157l-0.506-0.763
					c0.854-0.565,1.729-1.11,2.604-1.621l0.461,0.79C153.484,87.065,152.624,87.601,151.785,88.157z M218.558,87.438l-2.937-0.793
					l0.238-0.883l2.937,0.793L218.558,87.438z M212.686,85.853l-2.936-0.793l0.238-0.883l2.936,0.793L212.686,85.853z
					 M156.987,85.116l-0.416-0.814c0.905-0.463,1.837-0.907,2.767-1.319l0.371,0.837C158.794,84.224,157.878,84.66,156.987,85.116z
					 M206.813,84.267l-2.936-0.793l0.238-0.883l2.936,0.793L206.813,84.267z M200.942,82.681l-2.937-0.793l0.238-0.883l2.936,0.793
					L200.942,82.681z M162.498,82.679l-0.322-0.856c0.954-0.359,1.929-0.696,2.898-0.999l0.273,0.873
					C164.395,81.995,163.436,82.325,162.498,82.679z M195.071,81.096c-0.972-0.261-1.959-0.496-2.934-0.7l0.188-0.896
					c0.991,0.207,1.995,0.447,2.982,0.712L195.071,81.096z M168.245,80.877l-0.225-0.887c0.987-0.25,1.993-0.473,2.99-0.666
					l0.174,0.898C170.204,80.412,169.215,80.632,168.245,80.877z M189.171,79.86c-0.992-0.15-1.998-0.273-2.992-0.366l0.086-0.911
					c1.011,0.095,2.034,0.22,3.043,0.373L189.171,79.86z M174.157,79.735l-0.122-0.906c1.01-0.136,2.034-0.245,3.045-0.323
					l0.07,0.912C176.157,79.495,175.149,79.602,174.157,79.735z M183.173,79.297c-1.009-0.036-2.014-0.046-3.015-0.025l-0.019-0.915
					c1.022-0.021,2.041-0.012,3.067,0.026L183.173,79.297z"/>
			</g>
		</g>
		<g>
			<path style="fill:#F9B089;" d="M394.276,94.717c-21.367,0-38.689,17.322-38.689,38.689c0,6.62,1.666,12.85,4.596,18.299
				l-3.353,13.966c-0.531,2.211,1.619,4.12,3.752,3.332l11.189-4.136c6.342,4.545,14.108,7.229,22.505,7.229
				c21.367,0,38.689-17.322,38.689-38.689C432.965,112.039,415.644,94.717,394.276,94.717z"/>
			<g>
				<path style="fill:#FFFFFF;" d="M411.793,149.723h-35.033c-3.222,0-5.834-2.612-5.834-5.834v-20.967
					c0-3.222,2.612-5.834,5.834-5.834h35.033c3.222,0,5.834,2.612,5.834,5.834v20.967
					C417.626,147.111,415.015,149.723,411.793,149.723z"/>
				<path style="fill:#F9B089;" d="M416.426,119.389c-0.154-0.201-0.316-0.396-0.494-0.575l-19.222,14.814
					c-1.59,1.188-3.779,1.149-5.329-0.102l-18.788-14.683c-0.177,0.18-0.339,0.375-0.491,0.577l14.211,11.107l-13.737,17.425
					c0.176,0.182,0.365,0.351,0.563,0.508l13.77-17.467l4,3.126c0.933,0.753,2.065,1.131,3.2,1.131c1.073,0,2.148-0.339,3.059-1.019
					l4.371-3.368l13.873,17.597c0.198-0.158,0.387-0.327,0.563-0.508L402.139,130.4L416.426,119.389z"/>
			</g>
		</g>
		<g>
			<circle style="fill:#F9B089;" cx="353.685" cy="357.915" r="113.161"/>
			<path style="fill:#6A59D2;" d="M270.915,435.07c20.657,22.15,50.093,36.006,82.77,36.006c32.677,0,62.113-13.856,82.77-36.006
				H270.915z"/>
			<g>
				<path style="fill:#6F54D6;" d="M459.812,337.992c-5.235-3.886-10.886-7.217-13.491-13.613c-0.805-1.976-1.195-4.096-1.545-6.205
					c-1.029-6.217-1.746-12.487-2.925-18.678c-1.043-5.477-2.154-12.15-5.345-16.793c-4.124-6.001-11.032-9.408-17.785-11.357
					c-7.562-2.182-15.313-3.182-23.155-2.366c-2.508,0.261-5.023,1.063-6.964,2.698c-5.936-0.265-11.869,2.011-16.434,5.876
					c-5.072,4.294-7.974,10.013-9.755,16.334c-0.95,3.371-0.992,6.948-0.62,10.434c0.704,6.598,2.738,13.806-0.646,19.481
					c-1.5,2.515-3.88,4.327-6.025,6.302c-4.322,3.981-8.055,9.702-6.786,15.488c0.698,3.183,2.85,5.984,3.031,9.24
					c0.179,3.234-1.609,6.186-2.84,9.173c-1.231,2.987-1.794,6.812,0.403,9.158l108.428,22.844c0.807,0.498,1.721,0.717,2.654,0.724
					c4.421-12.107,6.835-25.181,6.835-38.818c0-4.878-0.309-9.685-0.908-14.4C464.062,341.427,461.936,339.568,459.812,337.992z"/>
			</g>
			<g style="opacity:0.16;">
				<path style="fill:#6F54D6;" d="M381.036,281.018c-9.025,2.632-15.748,11.694-15.65,21.094c0.03,2.829,0.609,5.618,1.092,8.406
					c0.639,3.689,1.113,7.406,1.418,11.137c0.221,2.705,0.339,5.518-0.662,8.041c-1.972,4.967-7.882,7.857-8.948,13.094
					c-1.264,6.211,5.022,12.314,3.246,18.399c-0.689,2.36-2.488,4.204-3.771,6.301c-1.283,2.097-1.998,4.962-0.496,6.909
					c1.156,1.498,3.206,1.916,5.079,2.185c6.034,0.867,12.134,1.275,18.229,1.221c3.614-0.032,7.37-0.266,10.54-2.001
					c7.505-4.108,9.911-11.68,11.621-19.552c1.298-5.977,7.251-22.762,0.705-27.446"/>
			</g>
			<path style="fill:#E8939C;" d="M446.214,364.318l-16.116-4.69c-2.522-0.734-4.424-2.816-4.926-5.394l-3.65-18.72l-22.233,8.579
				l0.71,9.976c0.245,3.444-2.045,6.558-5.409,7.331c-6.379,1.466-16.434,4.31-22.077,8.633c-8.708,6.672-9.822,67.67-9.822,67.67
				s26.023,11.262,62.786,7.684c17.909-14.716,31.213-34.826,37.441-57.844C459.351,375.996,454.059,366.441,446.214,364.318z"/>
			<g style="opacity:0.22;">
				<path style="fill:#D1468F;" d="M400.003,354.562c7.653,0.077,15.378-1.359,22.518-3.915c0.608-0.218,1.216-0.44,1.822-0.668
					l-2.82-14.464l-22.233,8.579l0.71,9.976C400.011,354.235,400.003,354.397,400.003,354.562z"/>
			</g>
			<g>
				<path style="fill:#DCD5F9;" d="M354.898,216.698h-82.431c-9.48,0-17.165,7.685-17.165,17.165v22.862
					c0,9.48,7.685,17.165,17.165,17.165h63.432l13.701,10.72c1.973,1.543,4.857,0.138,4.857-2.367v-8.354h0.441
					c9.48,0,17.165-7.685,17.165-17.165v-22.862C372.063,224.383,364.378,216.698,354.898,216.698z"/>
				<g>
					<path style="fill:#FFFFFF;" d="M354.944,233.549h-80.235c-0.809,0-1.464-0.656-1.464-1.464l0,0
						c0-0.809,0.656-1.464,1.464-1.464h80.235c0.809,0,1.464,0.656,1.464,1.464l0,0
						C356.409,232.894,355.753,233.549,354.944,233.549z"/>
					<path style="fill:#FFFFFF;" d="M354.944,245.668h-80.235c-0.809,0-1.464-0.656-1.464-1.464l0,0
						c0-0.809,0.656-1.464,1.464-1.464h80.235c0.809,0,1.464,0.656,1.464,1.464l0,0
						C356.409,245.012,355.753,245.668,354.944,245.668z"/>
					<path style="fill:#FFFFFF;" d="M354.944,257.786h-80.235c-0.809,0-1.464-0.656-1.464-1.464l0,0
						c0-0.809,0.656-1.464,1.464-1.464h80.235c0.809,0,1.464,0.656,1.464,1.464l0,0C356.409,257.13,355.753,257.786,354.944,257.786
						z"/>
				</g>
			</g>
			<g>
				<path style="fill:#8C3165;" d="M446.214,364.318l-15.775-4.591c-4.167,3.652-9.434,6.065-14.949,6.654
					c-6.841,0.73-13.895-1.371-19.35-5.543c-0.485,0.242-1.001,0.436-1.55,0.562c-6.379,1.466-16.434,4.31-22.077,8.633
					c-7.503,5.748-9.367,51.816-9.74,64.464c17.545,6.277,37.348,6.313,55.675,6.889c3.803,0.12,7.632,0.21,11.458,0.168
					c15.675-14.293,27.311-32.935,33.014-54.015C459.352,375.993,454.059,366.441,446.214,364.318z"/>
			</g>
			<g>
				<path style="fill:#9E3576;" d="M414.842,373.115c9.293-0.418,18.264-4.385,25.212-10.59l-9.616-2.798
					c-4.167,3.652-9.434,6.065-14.949,6.654c-6.841,0.73-13.895-1.37-19.35-5.543c-0.485,0.242-1.001,0.436-1.55,0.562
					c-1.909,0.439-4.149,1.004-6.499,1.692C395.076,369.902,405.057,373.555,414.842,373.115z"/>
			</g>
			<g>
				<g>
					<path style="fill:#FFFFFF;" d="M365.444,316.917c3.496-0.374,6.991-0.747,10.487-1.12c0.721-0.077,0.729-1.214,0-1.137
						c-3.496,0.374-6.991,0.747-10.487,1.12C364.723,315.857,364.715,316.995,365.444,316.917L365.444,316.917z"/>
				</g>
			</g>
			<path style="fill:#E8939C;" d="M404.933,348.273l-6.114,0.487c-14.008,1.115-26.267-9.336-27.383-23.344l-1.534-19.264
				c-1.232-15.469,10.31-29.007,25.778-30.239l3.469-0.276c15.469-1.232,29.007,10.31,30.239,25.778l1.323,16.619
				C431.943,333.503,420.402,347.041,404.933,348.273z"/>
			<path style="fill:#E8939C;" d="M442.03,306.75c3.228,4.586,1.543,11.332-3.765,15.069c-5.307,3.736-12.227,3.047-15.456-1.539
				c-3.228-4.586-1.543-11.333,3.765-15.069C431.882,301.474,438.802,302.164,442.03,306.75z"/>
			<g>
				<path style="fill:#964D58;" d="M392.258,322.411c0.008-0.063-0.349-0.097-0.879-0.39c-0.511-0.284-1.238-0.9-1.488-1.913
					c-0.124-0.494-0.075-1.077,0.111-1.665c0.192-0.592,0.523-1.197,0.891-1.846c0.362-0.649,0.772-1.354,1.017-2.195
					c0.243-0.844,0.252-1.764,0.108-2.65c-0.313-1.783-1.019-3.292-1.641-4.663c-0.646-1.364-1.331-2.539-1.954-3.492
					c-1.256-1.903-2.233-2.925-2.303-2.868c-0.091,0.07,0.733,1.201,1.854,3.143c0.556,0.973,1.181,2.152,1.779,3.504
					c0.576,1.353,1.249,2.87,1.529,4.494c0.132,0.811,0.123,1.612-0.075,2.337c-0.201,0.727-0.568,1.402-0.917,2.061
					c-0.35,0.658-0.689,1.316-0.88,1.998c-0.186,0.683-0.215,1.381-0.027,1.979c0.379,1.199,1.273,1.805,1.873,2.038
					C391.882,322.521,392.26,322.449,392.258,322.411z"/>
			</g>
			<g>
				<path style="fill:#964D58;" d="M394.842,320.706c-0.139-0.152-0.505-0.043-0.818,0.244c-0.313,0.286-0.453,0.641-0.314,0.793
					c0.139,0.152,0.505,0.043,0.818-0.244C394.84,321.213,394.981,320.858,394.842,320.706z"/>
			</g>
			<path style="fill:#4E40A0;" d="M385.461,315.231c0.338,1.839-0.109,3.463-0.999,3.627c-0.89,0.164-1.885-1.195-2.223-3.034
				c-0.338-1.839,0.109-3.463,0.999-3.627C384.127,312.033,385.123,313.392,385.461,315.231z"/>
			<path style="fill:#4E40A0;" d="M402.768,311.756c0.338,1.839-0.109,3.463-0.999,3.627c-0.89,0.164-1.885-1.195-2.223-3.034
				c-0.338-1.84,0.109-3.463,0.999-3.627C401.435,308.558,402.43,309.916,402.768,311.756z"/>
			<path style="fill:#4E40A0;" d="M405.767,298.764c0,1.489-2.024,2.695-4.521,2.695c-2.497,0-4.521-1.207-4.521-2.695
				c0-1.489,2.024-2.695,4.521-2.695C403.743,296.069,405.767,297.276,405.767,298.764z"/>
			<path style="fill:#4E40A0;" d="M381.96,302.173c0.646,1.341-0.654,3.307-2.904,4.39c-2.25,1.083-4.597,0.875-5.243-0.467
				c-0.646-1.341,0.654-3.307,2.904-4.39C378.967,300.623,381.315,300.832,381.96,302.173z"/>
			<circle style="opacity:0.22;fill:#D1468F;" cx="414.614" cy="324.374" r="8.847"/>
			<path style="opacity:0.22;fill:#D1468F;" d="M385.58,332.344c0-4.886-3.961-8.847-8.847-8.847c-1.994,0-3.828,0.668-5.308,1.781
				l0.038,0.48c0.475,5.961,2.999,11.267,6.821,15.288C382.43,340.312,385.58,336.7,385.58,332.344z"/>
			<g>
				<path style="fill:#964D58;" d="M399.289,321.838c-0.104-0.04-0.33,0.38-0.794,0.949c-0.458,0.568-1.197,1.275-2.188,1.737
					c-0.991,0.46-2.008,0.569-2.738,0.553c-0.734-0.012-1.201-0.111-1.237-0.005c-0.034,0.086,0.386,0.373,1.182,0.529
					c0.784,0.159,1.962,0.131,3.107-0.401c1.145-0.533,1.926-1.415,2.31-2.117C399.325,322.374,399.377,321.867,399.289,321.838z"/>
			</g>
			<g>
				<path style="fill:#964D58;" d="M440.151,307.166c0.017-0.068-1.158-0.296-2.932,0.29c-1.749,0.57-3.989,2.093-5.452,4.536
					c-1.471,2.426-1.95,4.977-2.139,6.764c-0.093,0.905-0.11,1.63-0.099,2.146c0.01,0.128,0.011,0.219-0.007,0.262
					c-0.003,0.028-0.035,0.018-0.014,0.068c0.012-0.016,0.007-0.018-0.013-0.034c-0.034-0.04-0.024-0.072-0.052-0.08
					c-0.009,0.001,0.041,0.001,0.039-0.01c-0.005-0.008,0.026-0.038-0.055-0.054c-0.095,0.037-0.084,0.122-0.07,0.203
					c0.013,0.038,0.034,0.113,0.141,0.134c0.108-0.001,0.149-0.041,0.205-0.097c0.095-0.12,0.101-0.263,0.117-0.383
					c0.077-0.485,0.174-1.209,0.331-2.081c0.316-1.737,0.865-4.167,2.253-6.45c1.372-2.29,3.402-3.768,5.002-4.431
					C439.022,307.273,440.159,307.301,440.151,307.166z"/>
			</g>
			<g>
				<path style="fill:#964D58;" d="M433.672,320.77c0.09,0.041,0.425-0.418,0.846-1.242c0.397-0.817,0.939-2.07,0.82-3.582
					c-0.127-1.505-0.917-2.691-1.618-3.325c-0.713-0.649-1.299-0.814-1.338-0.734c-0.059,0.099,0.408,0.421,0.954,1.095
					c0.543,0.664,1.152,1.737,1.259,3.028c0.107,1.285-0.296,2.469-0.564,3.316C433.745,320.178,433.575,320.726,433.672,320.77z"/>
			</g>
			<g style="opacity:0.16;">
				<path style="fill:#D1468F;" d="M381.048,280.253c1.075,4.186,2.481,8.345,4.846,11.962c2.365,3.617,5.78,6.678,9.908,7.957
					c4.128,1.279,8.985,0.55,12.135-2.409c0.826,3.02,3.354,5.512,6.385,6.294c3.031,0.782,6.45-0.175,8.634-2.418
					c0.928,1.035,2.104,1.946,3.481,2.138c1.377,0.192,2.947-0.545,3.326-1.883c0.283-1-0.126-2.054-0.553-3.001
					c-2.566-5.684-6.195-11.049-11.313-14.613c-0.9-0.626-1.893-1.211-2.988-1.264c-1.212-0.058-2.352,0.541-3.546,0.757
					c-4.431,0.8-8.376-3.673-12.87-3.393"/>
			</g>
			<g>
				<path style="fill:#6F54D6;" d="M401.655,271.73c-6.454,1.576-12.907,3.153-19.361,4.729c-0.149,0.036-0.308,0.079-0.407,0.196
					c-0.153,0.181-0.098,0.452-0.033,0.68c1.765,6.164,5.082,12.085,10.221,16.037c2.512,1.932,5.46,3.522,8.628,3.591
					c3.168,0.069,6.53-1.744,7.452-4.775c1.262,3.139,3.262,6.151,6.263,7.714c2.758,1.437,7.217,1.593,9.488-0.82
					c1.209,2.016,2.864,4.158,5.209,4.331c2.079,0.154,3.997-1.424,4.802-3.347s0.698-4.104,0.345-6.158
					c-0.65-3.785-2.096-7.431-4.217-10.632c-0.81-1.222-1.739-2.401-2.959-3.215c-1.814-1.209-4.067-1.488-6.205-1.913
					c-4.137-0.822-8.142-2.309-11.813-4.386"/>
			</g>
			<g>
				<g>
					<path style="fill:#FFFFFF;" d="M376.733,327.952c-6.851,0-12.424-5.573-12.424-12.424s5.573-12.424,12.424-12.424
						s12.425,5.573,12.425,12.424S383.584,327.952,376.733,327.952z M376.733,304.43c-6.119,0-11.098,4.979-11.098,11.098
						s4.979,11.098,11.098,11.098c6.12,0,11.099-4.979,11.099-11.098S382.853,304.43,376.733,304.43z"/>
				</g>
				<g>
					<path style="fill:#FFFFFF;" d="M406.323,322.318c-6.851,0-12.425-5.574-12.425-12.425c0-6.851,5.574-12.424,12.425-12.424
						c6.851,0,12.424,5.573,12.424,12.424C418.747,316.744,413.174,322.318,406.323,322.318z M406.323,298.795
						c-6.12,0-11.099,4.979-11.099,11.098c0,6.12,4.979,11.099,11.099,11.099c6.119,0,11.098-4.979,11.098-11.099
						C417.421,303.774,412.442,298.795,406.323,298.795z"/>
				</g>
				<g>
					<g>
						<path style="fill:#FFFFFF;" d="M388.85,313.349c0.918-2.268,3.712-2.865,5.534-1.282c0.55,0.479,1.358-0.322,0.804-0.804
							c-2.511-2.182-6.189-1.29-7.433,1.784C387.478,313.726,388.578,314.019,388.85,313.349L388.85,313.349z"/>
					</g>
				</g>
				<g>
					<g>
						<path style="fill:#FFFFFF;" d="M416.903,304.918c4.662-1.451,9.412-2.44,14.269-2.95c5.502-0.578,10.921,0.197,13.173,5.886
							c0.267,0.673,1.366,0.38,1.096-0.302c-1.881-4.75-5.617-6.702-10.602-6.908c-6.036-0.249-12.527,1.4-18.238,3.177
							C415.903,304.039,416.201,305.136,416.903,304.918L416.903,304.918z"/>
					</g>
				</g>
			</g>
			<g>
				<path style="fill:#E8939C;" d="M461.643,391.922l-6.328-0.745c-5.659,2.844-11.424,5.476-17.28,7.891
					c0.359,6.115,0.717,12.231,1.076,18.346c-19.441,1.664-39.322,2.667-58.597,5.703c-0.47,0.074-0.97,0.163-1.314,0.491
					c-0.396,0.378-0.479,0.97-0.54,1.514c-0.617,5.528-1.234,11.057-1.851,16.585c-0.077,0.694,22.566,4.023,24.745,4.311
					c6.915,0.914,13.872,1.549,20.844,1.803C440.682,433.829,454.573,414.389,461.643,391.922z"/>
			</g>
			<g>
				<path style="fill:#8C3165;" d="M458.121,369.568c-2.89-3.025-6.547-5.039-10.53-6.073c-1.862-0.483-6.948-0.167-8.5,1.124
					c-0.409,0.34-0.453,0.951-0.518,1.488c-0.697,5.687-6.608,8.031-8.327,13.044c-1.372,4.001,1.317,10.845,1.999,14.873
					c1.122,6.625,2.229,13.252,3.341,19.879c5.344,0.67,10.986,0.711,16.478-0.037c6.064-10.639,10.447-22.357,12.8-34.795
					C463.034,375.614,460.81,372.384,458.121,369.568z"/>
			</g>
			<g>
				<g>
					<path style="fill:#6F54D6;" d="M465.786,372.903c-0.622-3.023-0.485-5.922-0.656-8.964c-0.267-4.746-4.691-6.399-8.409-8.623
						c-6.583-3.939-12.662-9.865-13.848-17.444c-0.596-3.81,0.097-7.692,0.102-11.549c0-0.436-0.002-0.884-0.026-1.33l1.504-0.924
						c-0.505,0.089-1.026,0.195-1.556,0.301c-0.023-0.195-0.051-0.389-0.089-0.578c-0.239,0.224-0.467,0.472-0.69,0.73
						c-1.509,0.287-3.06,0.507-4.496,0.27c-2.064-0.341-4.074-0.099-6.168,0.042c-0.139,0.009-0.284,0.021-0.4,0.097
						c-0.127,0.084-0.196,0.229-0.258,0.368c-2.742,6.12-7.138,10.896-10.623,16.555c-0.812,1.318-1.546,2.695-2.037,4.163
						c-3.315,9.913,0.511,22.039,8.616,28.537c4.966,3.981,11.917,5.716,17.928,3.625c2.284-0.795,4.418-2.108,6.815-2.428
						c3.653-0.488,7.186,1.413,10.19,3.548c0.852,0.605,1.818,1.24,2.807,1.679c0.538-2.599,0.983-5.233,1.34-7.894
						C465.811,373.008,465.794,372.941,465.786,372.903z M438.125,329.163c-0.769,0.544-1.557,0.518-2.251,0.178l4.789-2.943
						C439.888,327.445,439.098,328.476,438.125,329.163z"/>
				</g>
			</g>
			<g>
				<path style="fill:#DCD5F9;" d="M393.932,444.918H286.526v-75.969c0-2.783,2.256-5.039,5.039-5.039h97.329
					c2.783,0,5.039,2.256,5.039,5.039V444.918z"/>
				<circle style="fill:#FFFFFF;" cx="340.229" cy="397.495" r="8.985"/>
				<g style="opacity:0.19;">
					<path style="fill:#DCD5F9;" d="M393.932,411.961c-3.575-2.415-7.496-4.354-11.506-5.72
						c-14.041-4.784-29.234-4.259-44.046-5.068c-5.864-0.32-11.828-0.885-17.238-3.17c-7.728-3.265-13.762-9.929-17.134-17.612
						c-2.277-5.188-3.403-10.807-3.644-16.48h-8.8c-2.783,0-5.039,2.256-5.039,5.039v75.969h107.406V411.961z"/>
				</g>
				<path style="fill:#BDB5E5;" d="M393.973,446.195H286.485c-1.025,0-1.856-0.831-1.856-1.856v-1.171
					c0-1.025,0.831-1.856,1.856-1.856h107.488c1.025,0,1.856,0.831,1.856,1.856v1.171
					C395.829,445.364,394.998,446.195,393.973,446.195z"/>
			</g>
			<g>
				<path style="fill:#9E3576;" d="M434.894,414.059c0.153-0.032-0.124-1.984-0.602-5.126c-0.478-3.142-1.134-7.479-1.721-12.285
					c-0.583-4.807-0.979-9.174-1.253-12.34c-0.274-3.165-0.452-5.128-0.61-5.124c-0.144,0.004-0.239,1.978-0.162,5.167
					c0.076,3.189,0.353,7.593,0.939,12.428c0.59,4.835,1.371,9.177,2.046,12.293C434.206,412.19,434.751,414.089,434.894,414.059z"
					/>
			</g>
			<path style="fill:#9E3576;" d="M454.003,406.438c-8.453,2.326-15.664,1.989-15.657,2.344c-0.007,0.131,1.78,0.387,4.694,0.341
				c2.909-0.042,6.943-0.472,11.249-1.629c0.453-0.123,0.895-0.254,1.334-0.387c0.212-0.438,0.415-0.881,0.621-1.322
				C455.516,406.012,454.773,406.234,454.003,406.438z"/>
			<g>
				<g>
					<g>
						<path style="fill:#6C5CD7;" d="M340.776,322.013c0-16.838-13.65-30.487-30.487-30.487c-16.838,0-30.487,13.649-30.487,30.487
							c0,16.838,13.65,30.487,30.487,30.487c0.694,0,1.381-0.032,2.064-0.077l5.159,6.564c1.161,1.477,3.515,0.954,3.941-0.876
							l2-8.594C333.7,344.605,340.776,334.136,340.776,322.013z"/>
					</g>
					<g>
						<path style="fill:#8E6DEA;" d="M320.657,306.995l-9.486-3.781l0.567-1.423c0.773-1.94,2.973-2.886,4.913-2.113l2.46,0.98
							c1.94,0.773,2.886,2.973,2.113,4.913L320.657,306.995z"/>
						
							<rect x="295.805" y="313.246" transform="matrix(0.3702 -0.9289 0.9289 0.3702 -100.179 489.2357)" style="fill:#F9B089;" width="29.866" height="10.514"/>
						
							<rect x="308.812" y="303.944" transform="matrix(0.9289 0.3703 -0.3703 0.9289 140.0754 -92.3779)" style="fill:#E89470;" width="3.708" height="29.479"/>
						<path style="fill:#FFFFFF;" d="M320.198,308.404l-9.379-3.738c-0.534-0.213-0.794-0.818-0.582-1.352l0.163-0.408
							c0.213-0.534,0.818-0.794,1.352-0.582l9.379,3.738c0.534,0.213,0.794,0.818,0.582,1.352l-0.163,0.408
							C321.337,308.356,320.732,308.616,320.198,308.404z"/>
						<g>
							<polygon style="fill:#FFFFFF;" points="310.092,334.322 300.325,330.429 299.969,341.214 302.932,342.395 							"/>
						</g>
						<polygon style="fill:#F9B089;" points="302.932,342.395 299.969,341.214 299.814,345.911 						"/>
					</g>
				</g>
				<g>
					<path style="fill:#4E40A0;" d="M267.736,279.206c-12.29,0-22.254,9.963-22.254,22.254c0,4.517,1.349,8.717,3.662,12.226
						l-2.433,7.317c-0.491,1.477,0.955,2.861,2.41,2.306l7.193-2.749c3.339,2.001,7.246,3.154,11.422,3.154
						c12.29,0,22.254-9.963,22.254-22.254C289.99,289.169,280.026,279.206,267.736,279.206z"/>
					<g>
						<path style="fill:#F9B089;" d="M259.674,300.972c0-1.638-1.328-2.966-2.966-2.966c-1.638,0-2.966,1.328-2.966,2.966
							c0,1.638,1.328,2.966,2.966,2.966C258.347,303.938,259.674,302.61,259.674,300.972z"/>
						<path style="fill:#F9B089;" d="M270.702,300.972c0-1.638-1.328-2.966-2.966-2.966c-1.638,0-2.966,1.328-2.966,2.966
							c0,1.638,1.328,2.966,2.966,2.966C269.374,303.938,270.702,302.61,270.702,300.972z"/>
						<path style="fill:#F9B089;" d="M281.73,300.972c0-1.638-1.328-2.966-2.966-2.966c-1.638,0-2.966,1.328-2.966,2.966
							c0,1.638,1.328,2.966,2.966,2.966C280.402,303.938,281.73,302.61,281.73,300.972z"/>
					</g>
				</g>
			</g>
		</g>
		<g>
			<circle style="fill:#DCD5F9;" cx="146.315" cy="171.474" r="113.161"/>
			<path style="fill:#E8939C;" d="M85.712,233.66l2.082,0.034c9.291-4.93,18.756-9.532,28.107-14.357
				c6.014-3.103,11.982-6.31,17.926-9.549c-1.202-2.967-2.431-5.925-3.663-8.882c-6.452-4.608-12.903-7.373-20.277-7.373
				c-9.217-0.922-8.295-12.903-9.674-20.422l-27.302,0.029l-2.718,14.908l-4.826,27.78c0,0,1.119,7.728,10.732,12.781
				C85.712,233.66,85.712,233.66,85.712,233.66z"/>
			<g>
				<path style="fill:#D88490;" d="M150.776,257.682c2.542-3.136,5.949-5.67,9.859-6.678c3.91-1.008,8.327-0.352,11.477,2.174
					c1.32,1.058,2.382,2.396,3.433,3.721c0.956,1.206,1.911,2.412,2.867,3.617c-9.223,0.298-18.44,0.762-27.645,1.391"/>
			</g>
			<g>
				<path style="fill:#D88490;" d="M152.825,247.553c-6.921-13.765-12.797-27.947-19.253-41.914l-20.171,17.812
					c5.866,11.461,10.644,23.478,14.251,35.837c10.458,0.726,20.96,0.828,31.431,0.307
					C156.871,255.634,154.84,251.561,152.825,247.553z"/>
			</g>
			<g style="opacity:0.11;">
				<path style="fill:#D1468F;" d="M72.912,173.139l-1.541,8.456c4.725,2.441,9.685,4.414,14.883,5.483
					c5.337,1.098,10.953,1.196,16.23-0.068c-1.446-4.257-1.509-9.755-2.269-13.899L72.912,173.139z"/>
			</g>
			<path style="fill:#E8939C;" d="M140.244,234.54c0.669-0.165,1.344-0.301,2.024-0.41c-0.15-0.567-0.315-1.129-0.472-1.693
				c-1.373,0.679-2.742,1.366-4.105,2.062L140.244,234.54z"/>
			<g>
				<path style="fill:#332971;" d="M128.321,219.995c4.642,13.531,9.063,27.137,13.262,40.812
					c-8.197,0.16-16.397,0.147-24.594-0.039c-2.949-9.037-5.898-18.074-8.848-27.111"/>
			</g>
			<g>
				<path style="fill:#C64A9D;" d="M225.457,72.227l82.43,0.374c9.48,0.043,17.13,7.763,17.087,17.243l-0.104,22.862
					c-0.043,9.48-7.763,17.13-17.243,17.087l-63.431-0.288l-13.749,10.658c-1.98,1.535-4.858,0.116-4.846-2.389l0.038-8.354
					l-0.441-0.002c-9.48-0.043-17.13-7.763-17.087-17.242l0.104-22.862C208.257,79.835,215.977,72.184,225.457,72.227z"/>
				<g>
					<path style="fill:#9E3576;" d="M226.473,89.079l80.234,0.364c0.809,0.004,1.467-0.649,1.471-1.458l0,0
						c0.004-0.809-0.649-1.467-1.458-1.471l-80.234-0.364c-0.809-0.004-1.467,0.649-1.471,1.458l0,0
						C225.012,88.417,225.664,89.075,226.473,89.079z"/>
					<path style="fill:#9E3576;" d="M226.418,101.197l80.234,0.364c0.809,0.004,1.467-0.649,1.471-1.458l0,0
						c0.004-0.809-0.649-1.467-1.458-1.471l-80.234-0.364c-0.809-0.004-1.467,0.649-1.471,1.458l0,0
						C224.957,100.535,225.609,101.193,226.418,101.197z"/>
					<path style="fill:#9E3576;" d="M226.363,113.315l80.234,0.364c0.809,0.004,1.467-0.649,1.471-1.458l0,0
						c0.004-0.809-0.649-1.467-1.458-1.471l-80.234-0.364c-0.809-0.004-1.467,0.649-1.471,1.458v0
						C224.902,112.653,225.554,113.311,226.363,113.315z"/>
				</g>
			</g>
			<g>
				<path style="fill:#6F6F68;" d="M122.194,260.794c0.091-0.077-0.663-0.575-1.049-1.971c-0.415-1.389-0.21-3.517,0.504-6.065
					c0.624-2.576,1.557-5.603,2.259-9.088c0.701-3.464,0.999-7.52-0.044-11.565c-0.993-4.063-3.049-7.465-4.754-10.516
					c-1.748-3.046-3.191-5.831-3.96-8.342c-0.812-2.495-0.988-4.631-0.939-6.093c0.055-1.466,0.249-2.271,0.16-2.293
					c-0.052-0.017-0.386,0.759-0.574,2.263c-0.181,1.496-0.114,3.734,0.631,6.338c0.699,2.618,2.12,5.529,3.823,8.604
					c1.668,3.087,3.639,6.43,4.578,10.296c0.993,3.857,0.747,7.714,0.114,11.125c-0.634,3.424-1.493,6.484-2.028,9.1
					c-0.285,1.296-0.513,2.516-0.541,3.6c-0.035,1.085,0.106,2.034,0.376,2.762c0.262,0.732,0.645,1.222,0.94,1.494
					C121.985,260.72,122.177,260.817,122.194,260.794z"/>
			</g>
			<g>
				<path style="fill:#332971;" d="M108.739,193.018c-0.973-0.085-1.877-0.4-2.679-0.871c-3.424,2.567-7.372,4.437-11.545,5.39
					c-7.55,1.724-15.744,0.441-22.405-3.508l-20.738,39.03c7.892,12.141,18.047,22.674,29.871,30.999l41.632-1.005l8.557-1.583
					c-0.137-7.611,0.095-15.229,0.429-22.849c0.419-9.548,0.131-19.427,1.942-28.869c-0.741-1.973-1.419-3.703-2-5.069
					C128.087,195.946,115.682,193.627,108.739,193.018z"/>
			</g>
			<path style="fill:#6C5CD7;" d="M108.739,193.018c-0.973-0.085-1.877-0.4-2.679-0.871c-3.424,2.567-7.372,4.437-11.545,5.39
				c-7.246,1.655-15.08,0.533-21.589-3.051l-2.305,2.343l-1.814,3.415c6.138,4.647,14.574,5.306,22.288,4.43
				c8.72-0.99,17.925-4.267,23.328-10.865C112.349,193.409,110.388,193.163,108.739,193.018z"/>
			<g>
				<g>
					<path style="fill:#EA9E7E;" d="M61.087,125.354c-5.396,0.997-11.123,0.706-16.15-1.493c-4.582-2.004-8.656-5.758-10.449-10.495
						c-1.5-3.963-1.312-9.169-0.81-13.34c0.544-4.523,2.35-8.901,5.224-12.443c3.979-4.903,9.591-7.378,15.873-8.14
						c5.277-0.64,10.922,0.25,15.781,2.459c3.817,1.736,6.055,5.691,7.866,9.307c2.04,4.073,2.938,8.743,2.337,13.273"/>
				</g>
				<g>
					<path style="fill:#F9B089;" d="M56.361,149.956c-2.191-5.163-3.455-10.672-4.185-16.22c-0.657-5.002-2.291-9.812-1.101-14.923
						c0.767-3.295,2.948-6.471,6.182-7.463c1.24-0.381,2.66-0.472,3.587-1.379c0.559-0.547,0.841-1.306,1.175-2.013
						c2.631-5.561,9.905-9.539,16.014-9.13c2.397,0.16,4.582,1.025,7.03,1.014c4.042-0.018,8.214-0.166,12.203-0.852
						c3.593-0.618,6.954-1.051,10.566-1.273c3.474-0.214,5.913,0.903,8.86,2.782c1.669,1.064,3.393,2.182,4.444,3.859
						c1.84,2.934,1.167,6.698,0.91,10.152c-0.048,0.648-0.078,1.313,0.107,1.937c0.37,1.248,1.502,2.081,2.437,2.986
						c3.215,3.111,4.502,7.977,3.56,12.35c-0.942,4.373-3.979,8.179-7.88,10.368"/>
				</g>
				<path style="fill:#E8939C;" d="M97.171,177.948l5.752-1.377c13.747-3.29,22.224-17.102,18.934-30.849l-4.597-19.206
					c-3.633-15.181-18.885-24.542-34.066-20.908l-3.156,0.756c-15.181,3.633-24.542,18.885-20.908,34.066l3.975,16.61
					C66.738,172.221,81.99,181.581,97.171,177.948z"/>
				<path style="fill:#E8939C;" d="M49.435,154.947c-1.601,5.193,1.974,10.905,7.984,12.757c6.01,1.852,12.18-0.856,13.781-6.049
					c1.601-5.193-1.974-10.905-7.984-12.757C57.206,147.046,51.036,149.754,49.435,154.947z"/>
				<g>
					<path style="fill:#964D58;" d="M100.983,146.925c0.019-0.208-0.359-0.41-0.8-0.603c-0.444-0.186-0.85-0.321-0.988-0.164
						c-0.137,0.149,0.131,0.608,0.695,0.849C100.452,147.249,100.969,147.127,100.983,146.925z"/>
				</g>
				<g>
					<path style="fill:#964D58;" d="M105.403,150.048c-0.1-0.064-0.446,0.434-1.198,0.97c-0.734,0.536-1.952,1.075-3.321,0.98
						c-1.37-0.103-2.498-0.808-3.157-1.437c-0.675-0.632-0.961-1.166-1.067-1.115c-0.081,0.028,0.036,0.671,0.681,1.474
						c0.622,0.79,1.871,1.698,3.489,1.822c1.619,0.111,2.987-0.613,3.71-1.316C105.288,150.712,105.48,150.084,105.403,150.048z"/>
				</g>
				<g style="opacity:0.08;">
					<path style="fill:#D1468F;" d="M59.157,148.282c2.471,2.037,6.169,2.413,8.99,0.914c2.821-1.499,4.6-4.785,4.323-7.988
						c3.615-0.169,6.986-2.512,8.654-5.746c1.668-3.233,1.678-7.226,0.264-10.584c3.101-0.192,6.115-1.13,8.972-2.357
						c3.801-1.632,7.609-4.04,9.212-7.877c1.245-2.98,0.966-6.355,0.665-9.575c-1.841,2.551-5.025,3.674-8.035,4.545
						c-2.15,0.622-4.337,1.193-6.572,1.284c-2.682,0.109-5.349-0.476-8.033-0.471c-6.238,0.012-12.361,3.459-15.637,8.804"/>
				</g>
				<path style="opacity:0.22;fill:#D1468F;" d="M95.931,159.239c0.378,5.074-3.429,9.495-8.503,9.873s-9.495-3.428-9.873-8.503
					c-0.378-5.074,3.428-9.495,8.503-9.873C91.133,150.358,95.553,154.165,95.931,159.239z"/>
				<path style="opacity:0.22;fill:#D1468F;" d="M113.903,152.665c0.302,4.058,3.192,7.298,6.932,8.243
					c1.814-4.679,2.278-9.936,1.021-15.186l-0.658-2.751C116.744,143.903,113.556,148.003,113.903,152.665z"/>
				<path style="fill:#964D58;" d="M91.404,143.129c0.226,1.936-0.345,3.593-1.276,3.702c-0.93,0.108-1.867-1.373-2.093-3.309
					c-0.226-1.936,0.345-3.593,1.276-3.702S91.179,141.193,91.404,143.129z"/>
				<path style="fill:#964D58;" d="M111.688,139.613c0.226,1.936-0.345,3.593-1.275,3.702c-0.93,0.109-1.867-1.373-2.093-3.309
					c-0.226-1.936,0.345-3.593,1.276-3.701C110.525,136.196,111.462,137.678,111.688,139.613z"/>
				<path style="fill:#964D58;" d="M91.093,128.221c0.512,1.392-1.225,3.311-3.88,4.287c-2.654,0.976-5.221,0.638-5.733-0.754
					c-0.512-1.392,1.225-3.311,3.88-4.287C88.014,126.491,90.581,126.828,91.093,128.221z"/>
				<path style="fill:#964D58;" d="M113.882,128.428c-0.476,1.405-3.033,1.808-5.711,0.901c-2.679-0.907-4.464-2.781-3.989-4.186
					c0.476-1.405,3.033-1.808,5.711-0.901C112.573,125.149,114.358,127.023,113.882,128.428z"/>
				<g>
					<path style="fill:#F9B089;" d="M100.239,105.069c0.55,5.273-3.055,10.289-7.634,12.96c-4.579,2.671-9.985,3.459-15.248,4.093
						c0.507,2.665,0.978,5.371,0.774,8.075c-0.203,2.705-1.151,5.446-3.11,7.322c-1.959,1.876-5.04,2.695-7.497,1.549
						c0.143,2.724,0.186,5.755-1.617,7.803c-1.542,1.751-4.112,2.294-6.422,1.964c-0.56-0.08-1.156-0.23-1.519-0.663
						c-0.277-0.331-0.372-0.775-0.453-1.199c-0.899-4.689-1.324-9.468-1.267-14.242c0.031-2.598,0.207-5.212,0.848-7.731
						c1.437-5.65,5.2-10.562,9.942-13.952c4.742-3.391,10.411-5.335,16.173-6.224c5.58-0.86,11.394-0.748,16.743,1.059"/>
				</g>
				<g>
					<path style="fill:#FFFFFF;" d="M81.656,153.486c-2.957,0.221-5.619-1.81-6.191-4.724l-1.07-5.445
						c-0.303-1.539,0.012-3.103,0.887-4.405c0.874-1.302,2.203-2.186,3.742-2.489l10.195-2.004c3.21-0.634,6.276,1.486,6.894,4.629
						l1.071,5.444c0.624,3.177-1.452,6.27-4.629,6.894l-10.195,2.004C82.124,153.437,81.889,153.469,81.656,153.486z
						 M90.023,135.704c-0.178,0.013-0.358,0.038-0.539,0.073l-10.195,2.004c-1.176,0.232-2.192,0.907-2.861,1.902
						c-0.668,0.996-0.909,2.192-0.677,3.368l1.07,5.445c0.472,2.404,2.817,4.024,5.27,3.538l10.195-2.004
						c2.429-0.477,4.016-2.842,3.539-5.271l-1.071-5.444C94.318,137.088,92.284,135.535,90.023,135.704z"/>
				</g>
				<g>
					<path style="fill:#FFFFFF;" d="M124.578,139.117l-1.071-5.444c-0.617-3.143-3.679-5.266-6.894-4.629l-10.195,2.004
						c-1.539,0.303-2.867,1.187-3.742,2.489c-0.875,1.302-1.189,2.866-0.887,4.405l0.647,3.294c0.637-0.093,1.196,0.226,1.55,0.717
						l-0.841-4.278c-0.231-1.176,0.009-2.372,0.677-3.368c0.669-0.995,1.685-1.671,2.861-1.902l10.195-2.004
						c0.18-0.035,0.36-0.06,0.538-0.073c2.261-0.169,4.295,1.384,4.733,3.612l1.071,5.444c0.478,2.429-1.11,4.794-3.539,5.271
						l-10.194,2.005c-2.074,0.403-4.047-0.689-4.903-2.478c-0.079,0.566-0.285,1.066-0.68,1.514
						c-0.003,0.003-0.007,0.004-0.009,0.007c1.164,1.593,3.079,2.564,5.157,2.409c0.233-0.017,0.467-0.049,0.702-0.095l10.194-2.005
						C123.125,145.387,125.202,142.295,124.578,139.117z"/>
				</g>
				<g>
					<g>
						<path style="fill:#FFFFFF;" d="M74.452,141.714c-6.754,0.863-13.35,2.263-19.873,4.218c-4.835,1.449-7.04,3.891-8.737,8.551
							c-0.282,0.775,0.875,1.347,1.16,0.567c0.917-2.518,1.676-4.414,3.95-6.207c1.926-1.519,5.263-2.066,7.583-2.72
							c5.242-1.478,10.616-2.433,16.013-3.122C75.37,142.895,75.278,141.608,74.452,141.714L74.452,141.714z"/>
					</g>
				</g>
				<g>
					<g>
						<g>
							<path style="fill:#964D58;" d="M51.784,154.078c0.033,0.127,1.073-0.24,2.765-0.102c1.673,0.131,3.986,0.885,5.937,2.584
								c1.963,1.689,3.197,3.763,4.009,5.269c0.406,0.757,0.712,1.395,0.928,1.819c0.051,0.106,0.099,0.236,0.223,0.318
								c0.069,0.035,0.118,0.06,0.218,0.028c0.092-0.052,0.088-0.127,0.089-0.166c-0.011-0.079-0.027-0.16-0.125-0.166
								c-0.07,0.04-0.033,0.058-0.035,0.066c0.002,0.01,0.048-0.004,0.039-0.003c-0.024,0.016-0.005,0.042-0.024,0.089
								c-0.013,0.021-0.017,0.025-0.002,0.036c0.004-0.052-0.023-0.034-0.034-0.058c-0.03-0.034-0.056-0.119-0.085-0.24
								c-0.145-0.479-0.377-1.142-0.734-1.948c-0.71-1.591-1.915-3.798-3.998-5.592c-2.08-1.813-4.601-2.545-6.383-2.546
								C52.763,153.458,51.749,154.021,51.784,154.078z"/>
						</g>
					</g>
					<g>
						<path style="fill:#964D58;" d="M63.213,162.429c-0.004-0.114-0.619-0.115-1.51-0.414c-0.882-0.286-2.058-0.951-2.838-2.117
							c-0.774-1.169-0.934-2.51-0.857-3.435c0.068-0.938,0.305-1.505,0.201-1.553c-0.071-0.043-0.491,0.464-0.706,1.483
							c-0.22,0.994-0.138,2.543,0.762,3.905c0.909,1.356,2.306,2.029,3.308,2.21C62.595,162.703,63.226,162.511,63.213,162.429z"/>
					</g>
				</g>
				<g>
					<path style="fill:#964D58;" d="M103,147.102c0.039,0.029,0.294-0.205,0.698-0.688c0.381-0.487,0.999-1.228,1.224-2.424
						c0.091-0.594,0.04-1.284-0.293-1.945c-0.167-0.328-0.423-0.64-0.76-0.874c-0.341-0.235-0.754-0.355-1.146-0.407
						c-0.786-0.106-1.558-0.006-2.168-0.298c-0.625-0.273-1.083-0.898-1.357-1.638c-0.542-1.493-0.503-3.15-0.57-4.597
						c-0.029-1.457,0.02-2.771,0.094-3.873c0.153-2.204,0.372-3.564,0.26-3.586c-0.09-0.02-0.493,1.311-0.785,3.535
						c-0.143,1.111-0.248,2.445-0.256,3.929c-0.005,0.742,0.017,1.522,0.069,2.328c0.054,0.817,0.173,1.678,0.491,2.529
						c0.307,0.837,0.889,1.671,1.758,2.04c0.879,0.377,1.718,0.222,2.378,0.312c1.38,0.056,1.884,1.498,1.763,2.477
						c-0.123,1.025-0.631,1.801-0.937,2.323C103.137,146.771,102.957,147.07,103,147.102z"/>
				</g>
				<g>
					<g>
						<path style="fill:#FFFFFF;" d="M96.495,141.628c0.457-1.144,1.145-2.079,2.287-2.606c1.173-0.542,2.737-0.042,3.318,1.114
							c0.368,0.732,1.589,0.309,1.215-0.435c-0.745-1.481-2.097-2.176-3.735-2.17c-2.01,0.007-3.563,1.824-4.246,3.53
							C95.028,141.831,96.186,142.401,96.495,141.628L96.495,141.628z"/>
					</g>
				</g>
			</g>
			<g>
				<path style="fill:#D88490;" d="M76.494,166.453c-1.095-1.313-2.01-2.775-2.715-4.333c-0.392-0.865-0.772-3.72-2.205-3.234
					c-0.591,0.2-0.782,0.93-0.852,1.551c-0.091,0.803-0.129,1.619,0.009,2.415c0.535,3.092,3.52,5.185,4.591,8.133
					c0.547,1.503-0.947,1.55-1.959,1.164c-0.998-0.381-1.814-1.209-2.49-2.007c-1.295-1.527-2.412-3.417-3.04-5.326
					c-0.594-1.806-0.969-3.587-1.694-5.331c-0.407-0.978-0.62-2.039-1.016-3.028c-0.15-0.375-0.933-2.698-1.316-2.751
					c-0.432-0.059-0.74,0.41-0.872,0.825c-0.745,2.346-0.155,4.81,0.519,7.097c1.04,3.524,2.525,6.917,4.408,10.073
					c-1.539-0.671-2.634-2.061-3.552-3.466c-2.451-3.75-4.167-7.772-5.847-11.862c-0.138-0.335-0.292-0.68-0.569-0.913
					c-0.278-0.233-0.715-0.316-1-0.093c-0.216,0.169-0.291,0.459-0.331,0.73c-0.245,1.661,0.318,3.323,0.873,4.908
					c0.593,1.695,1.186,3.391,1.797,5.08c0.506,1.399,1.366,2.871,2.206,4.104c0.721,1.058,1.893,2.822,3.093,3.375
					c-2.445-1.127-4.656-2.757-6.455-4.76c-0.673-0.749-1.288-1.549-1.984-2.276c-0.182-0.19-0.442-0.391-0.682-0.283
					c-0.226,0.103-0.261,0.405-0.251,0.654c0.131,3.515,2.52,5.728,5.02,7.877c1.076,0.925,2.19,1.804,3.283,2.708
					c0.426,0.352,1.337,0.872,1.399,1.405c0.066,0.574-0.771,1.635-1.036,2.123c-6.881,12.67-13.462,25.514-20.066,38.34
					c5.1,10.906,11.887,20.864,20.027,29.538c2.508-4.208,4.506-8.703,6.16-13.365c3.689-10.396,5.712-21.594,8.115-32.129
					c1.747-7.658,3.576-15.193,4.153-23.046c0.198-2.694,0.371-5.379-0.841-7.885C80.247,170.132,78.154,168.443,76.494,166.453z"/>
			</g>
			<g>
				<g>
					<path style="fill:#332971;" d="M118.866,241.238c1.222,0,1.222-1.895,0-1.895S117.644,241.238,118.866,241.238L118.866,241.238
						z"/>
				</g>
			</g>
			<g>
				<path style="fill:#201D47;" d="M128.808,257.016c0.075-0.005,0.089-0.768,0.049-2.147c-0.032-1.379-0.163-3.37-0.399-5.825
					c-0.466-4.909-1.474-11.669-3.269-18.987c-1.805-7.316-4.048-13.772-5.912-18.337c-0.93-2.284-1.738-4.109-2.349-5.345
					c-0.604-1.24-0.971-1.91-1.04-1.879c-0.156,0.069,0.998,2.885,2.666,7.5c1.671,4.613,3.78,11.058,5.573,18.322
					c1.782,7.267,2.903,13.954,3.563,18.816C128.354,253.997,128.637,257.027,128.808,257.016z"/>
			</g>
			<g>
				<path style="fill:#6C5CD7;" d="M233.832,238.035H131.308c-3.686,0-6.674-2.988-6.674-6.674v-72.931
					c0-3.686,2.988-6.674,6.674-6.674h102.524c3.686,0,6.674,2.988,6.674,6.674v72.931
					C240.506,235.048,237.518,238.035,233.832,238.035z"/>
				<circle style="fill:#DCD5F9;" cx="182.57" cy="183.609" r="9.198"/>
				<path style="fill:#EFBA70;" d="M189.181,263.368h-79.306c-0.957,0-1.733-0.776-1.733-1.733V260.2
					c0-0.957,0.776-1.733,1.733-1.733h79.306c0.957,0,1.733,0.776,1.733,1.733v1.435
					C190.913,262.592,190.137,263.368,189.181,263.368z"/>
				<g>
					<path style="fill:#4A4AA8;" d="M139.435,231.133c0-0.789-0.64-1.429-1.429-1.429c-0.789,0-1.429,0.64-1.429,1.429
						c0,0.789,0.64,1.429,1.429,1.429C138.795,232.561,139.435,231.922,139.435,231.133z"/>
					<path style="fill:#4A4AA8;" d="M146.096,231.133c0-0.789-0.64-1.429-1.429-1.429c-0.789,0-1.429,0.64-1.429,1.429
						c0,0.789,0.64,1.429,1.429,1.429C145.456,232.561,146.096,231.922,146.096,231.133z"/>
					<path style="fill:#4A4AA8;" d="M155.634,232.132h-3.952c-0.513,0-0.929-0.416-0.929-0.929v-0.14
						c0-0.513,0.416-0.929,0.929-0.929h3.952c0.513,0,0.929,0.416,0.929,0.929v0.14
						C156.563,231.716,156.147,232.132,155.634,232.132z"/>
					<path style="fill:#4A4AA8;" d="M164.026,232.132h-3.952c-0.513,0-0.929-0.416-0.929-0.929v-0.14
						c0-0.513,0.416-0.929,0.929-0.929h3.952c0.513,0,0.929,0.416,0.929,0.929v0.14
						C164.955,231.716,164.539,232.132,164.026,232.132z"/>
				</g>
				<path style="fill:#4A4AA8;" d="M191.987,210.724c-0.184-1.702-1.62-2.992-3.333-2.992h-3.447h-5.274h-3.447
					c-1.712,0-3.149,1.29-3.333,2.992l-5.644,52.33h12.424h5.274h12.424L191.987,210.724z"/>
			</g>
			<path style="fill:#6A59D2;" d="M78.397,261.992c18.917,14.216,42.432,22.643,67.917,22.643c25.485,0,49.001-8.427,67.917-22.643
				H78.397z"/>
			<g>
				<path style="fill:#F9B089;" d="M198.576,86.939c0-20.154-16.338-36.492-36.492-36.492c-20.154,0-36.492,16.338-36.492,36.492
					c0,20.154,16.338,36.492,36.492,36.492c0.831,0,1.653-0.038,2.47-0.092l6.176,7.857c1.389,1.768,4.207,1.142,4.717-1.048
					l2.395-10.286C190.105,113.981,198.576,101.45,198.576,86.939z"/>
				<path style="fill:#6C5CD7;" d="M110.253,28.924c-15.944,0-28.87,12.925-28.87,28.87c0,5.86,1.751,11.308,4.751,15.861
					l-3.156,9.493c-0.637,1.917,1.239,3.712,3.126,2.991l9.332-3.567c4.332,2.596,9.399,4.092,14.817,4.092
					c15.944,0,28.87-12.925,28.87-28.87C139.123,41.849,126.198,28.924,110.253,28.924z"/>
				<g>
					<path style="fill:#FFFFFF;" d="M123.899,76.551H96.608c-1.414,0-2.561-1.146-2.561-2.561V41.596
						c0-1.414,1.147-2.561,2.561-2.561h27.292c1.414,0,2.561,1.147,2.561,2.561v32.394C126.46,75.405,125.313,76.551,123.899,76.551
						z"/>
					<rect x="97.959" y="42.388" style="fill:#8E6DEA;" width="24.862" height="6.2"/>
					<rect x="97.959" y="50.609" style="fill:#F9B089;" width="6.453" height="3.606"/>
					<rect x="107.163" y="50.609" style="fill:#F9B089;" width="6.453" height="3.606"/>
					<rect x="97.959" y="56.795" style="fill:#F9B089;" width="6.453" height="3.606"/>
					<rect x="107.163" y="56.795" style="fill:#F9B089;" width="6.453" height="3.606"/>
					<rect x="97.959" y="62.981" style="fill:#F9B089;" width="6.453" height="3.606"/>
					<rect x="107.163" y="62.981" style="fill:#F9B089;" width="6.453" height="3.606"/>
					<rect x="97.959" y="69.168" style="fill:#F9B089;" width="6.453" height="3.606"/>
					<rect x="107.163" y="69.168" style="fill:#F9B089;" width="6.453" height="3.606"/>
					<rect x="116.368" y="50.609" style="fill:#F9B089;" width="6.453" height="3.606"/>
					<rect x="116.368" y="56.795" style="fill:#8E6DEA;" width="6.453" height="15.906"/>
				</g>
				<g>
					<path style="fill:#8E6DEA;" d="M179.78,111.081h-36.282V62.044h36.282c1.764,0,3.194,1.43,3.194,3.194v42.65
						C182.974,109.651,181.544,111.081,179.78,111.081z"/>
					<rect x="143.498" y="78.265" style="fill:#7259CE;" width="39.476" height="14.366"/>
					<g>
						<g>
							<path style="fill:#F4BC58;" d="M178.059,108.695h-32.672V64.431h32.672c1.668,0,3.025,1.357,3.025,3.025v38.213
								C181.084,107.337,179.727,108.695,178.059,108.695z M145.715,108.367h32.344c1.488,0,2.698-1.21,2.698-2.698V67.456
								c0-1.488-1.21-2.698-2.698-2.698h-32.344V108.367z"/>
						</g>
					</g>
					<g>
						<g>
							<path style="fill:#FFFFFF;" d="M146.779,66.109h-4.715c-0.481,0-0.872-0.39-0.872-0.871l0,0c0-0.481,0.39-0.872,0.872-0.872
								h4.715c0.481,0,0.872,0.39,0.872,0.872l0,0C147.651,65.719,147.261,66.109,146.779,66.109z"/>
						</g>
						<g>
							<path style="fill:#FFFFFF;" d="M146.779,70.848h-4.715c-0.481,0-0.872-0.39-0.872-0.872l0,0c0-0.481,0.39-0.872,0.872-0.872
								h4.715c0.481,0,0.872,0.39,0.872,0.872l0,0C147.651,70.458,147.261,70.848,146.779,70.848z"/>
						</g>
						<g>
							<path style="fill:#FFFFFF;" d="M146.779,75.587h-4.715c-0.481,0-0.872-0.39-0.872-0.872l0,0c0-0.481,0.39-0.871,0.872-0.871
								h4.715c0.481,0,0.872,0.39,0.872,0.871l0,0C147.651,75.197,147.261,75.587,146.779,75.587z"/>
						</g>
						<g>
							<path style="fill:#FFFFFF;" d="M146.779,80.326h-4.715c-0.481,0-0.872-0.39-0.872-0.871l0,0c0-0.481,0.39-0.872,0.872-0.872
								h4.715c0.481,0,0.872,0.39,0.872,0.872l0,0C147.651,79.936,147.261,80.326,146.779,80.326z"/>
						</g>
						<g>
							<path style="fill:#FFFFFF;" d="M146.779,85.065h-4.715c-0.481,0-0.872-0.39-0.872-0.872l0,0c0-0.481,0.39-0.872,0.872-0.872
								h4.715c0.481,0,0.872,0.39,0.872,0.872l0,0C147.651,84.675,147.261,85.065,146.779,85.065z"/>
						</g>
						<g>
							<path style="fill:#FFFFFF;" d="M146.779,89.804h-4.715c-0.481,0-0.872-0.39-0.872-0.872l0,0c0-0.481,0.39-0.871,0.872-0.871
								h4.715c0.481,0,0.872,0.39,0.872,0.871l0,0C147.651,89.414,147.261,89.804,146.779,89.804z"/>
						</g>
						<g>
							<path style="fill:#FFFFFF;" d="M146.779,94.543h-4.715c-0.481,0-0.872-0.39-0.872-0.871l0,0c0-0.481,0.39-0.872,0.872-0.872
								h4.715c0.481,0,0.872,0.39,0.872,0.872l0,0C147.651,94.153,147.261,94.543,146.779,94.543z"/>
						</g>
						<g>
							<path style="fill:#FFFFFF;" d="M146.779,99.282h-4.715c-0.481,0-0.872-0.39-0.872-0.872l0,0c0-0.481,0.39-0.872,0.872-0.872
								h4.715c0.481,0,0.872,0.39,0.872,0.872l0,0C147.651,98.892,147.261,99.282,146.779,99.282z"/>
						</g>
						<g>
							<path style="fill:#FFFFFF;" d="M146.779,104.021h-4.715c-0.481,0-0.872-0.39-0.872-0.871l0,0c0-0.481,0.39-0.872,0.872-0.872
								h4.715c0.481,0,0.872,0.39,0.872,0.872l0,0C147.651,103.631,147.261,104.021,146.779,104.021z"/>
						</g>
						<g>
							<path style="fill:#FFFFFF;" d="M146.779,108.76h-4.715c-0.481,0-0.872-0.39-0.872-0.872l0,0c0-0.481,0.39-0.872,0.872-0.872
								h4.715c0.481,0,0.872,0.39,0.872,0.872l0,0C147.651,108.369,147.261,108.76,146.779,108.76z"/>
						</g>
					</g>
				</g>
			</g>
		</g>
		<g>
			<path style="fill:#C64A9D;" d="M171.797,355.348l-15.306-0.58c-8.905-12.423-23.455-20.525-39.906-20.525
				c-27.106,0-49.08,21.974-49.08,49.08c0,27.106,21.974,49.08,49.08,49.08c27.106,0,49.08-21.974,49.08-49.08
				c0-3.079-0.297-6.088-0.84-9.01l9.604-13.651C175.969,358.473,174.471,355.449,171.797,355.348z"/>
			<g>
				<path style="fill:#D6CECE;" d="M123.322,355.924h-14.903c-1.782,0-3.226-1.444-3.226-3.226v-3.908
					c0-1.782,1.444-3.226,3.226-3.226h14.903c1.782,0,3.226,1.444,3.226,3.226v3.908
					C126.548,354.48,125.104,355.924,123.322,355.924z"/>
				<path style="fill:#FFFFFF;" d="M136.644,417.345H95.097c-2.189,0-3.964-1.775-3.964-3.964v-58.673
					c0-2.189,1.775-3.964,3.964-3.964h41.547c2.189,0,3.964,1.775,3.964,3.964v58.673
					C140.608,415.571,138.833,417.345,136.644,417.345z"/>
				<g>
					<g>
						<path style="fill:#F9B089;" d="M116.977,363.407H97.679c-0.533,0-0.965-0.432-0.965-0.965l0,0
							c0-0.533,0.432-0.965,0.965-0.965h19.298c0.533,0,0.965,0.432,0.965,0.965l0,0
							C117.942,362.975,117.51,363.407,116.977,363.407z"/>
						<path style="fill:#F9B089;" d="M116.977,369.76H97.679c-0.533,0-0.965-0.432-0.965-0.965l0,0c0-0.533,0.432-0.965,0.965-0.965
							h19.298c0.533,0,0.965,0.432,0.965,0.965l0,0C117.942,369.328,117.51,369.76,116.977,369.76z"/>
					</g>
					<path style="fill:#F9B089;" d="M133.312,371.735h-8.802c-0.948,0-1.716-0.768-1.716-1.716v-8.802
						c0-0.948,0.768-1.716,1.716-1.716h8.802c0.948,0,1.716,0.768,1.716,1.716v8.802
						C135.027,370.967,134.259,371.735,133.312,371.735z"/>
					<g>
						<path style="fill:#C64A9D;" d="M129.482,369.802c-0.276,0-0.533-0.147-0.672-0.39l-3.781-6.613
							c-0.212-0.372-0.084-0.845,0.288-1.057c0.371-0.212,0.845-0.084,1.057,0.288l2.904,5.077l3.248-10.264
							c0.129-0.408,0.564-0.634,0.973-0.505c0.408,0.129,0.634,0.565,0.505,0.973l-3.781,11.95c-0.093,0.294-0.35,0.504-0.656,0.537
							C129.537,369.801,129.51,369.802,129.482,369.802z"/>
					</g>
				</g>
				<g>
					<g>
						<path style="fill:#F9B089;" d="M116.977,382.584H97.679c-0.533,0-0.965-0.432-0.965-0.965l0,0
							c0-0.533,0.432-0.965,0.965-0.965h19.298c0.533,0,0.965,0.432,0.965,0.965l0,0
							C117.942,382.152,117.51,382.584,116.977,382.584z"/>
						<path style="fill:#F9B089;" d="M116.977,388.937H97.679c-0.533,0-0.965-0.432-0.965-0.965l0,0
							c0-0.533,0.432-0.965,0.965-0.965h19.298c0.533,0,0.965,0.432,0.965,0.965l0,0
							C117.942,388.505,117.51,388.937,116.977,388.937z"/>
					</g>
					<path style="fill:#F9B089;" d="M133.312,390.912h-8.802c-0.948,0-1.716-0.768-1.716-1.716v-8.802
						c0-0.948,0.768-1.716,1.716-1.716h8.802c0.948,0,1.716,0.768,1.716,1.716v8.802
						C135.027,390.144,134.259,390.912,133.312,390.912z"/>
					<g>
						<path style="fill:#6C5CD7;" d="M129.482,388.979c-0.276,0-0.533-0.147-0.672-0.39l-3.781-6.613
							c-0.212-0.372-0.084-0.845,0.288-1.057c0.371-0.212,0.845-0.084,1.057,0.288l2.904,5.077l3.248-10.264
							c0.129-0.408,0.564-0.634,0.973-0.505c0.408,0.129,0.634,0.565,0.505,0.973l-3.781,11.95c-0.093,0.294-0.35,0.504-0.656,0.537
							C129.537,388.978,129.51,388.979,129.482,388.979z"/>
					</g>
				</g>
				<g>
					<g>
						<path style="fill:#F9B089;" d="M116.977,401.761H97.679c-0.533,0-0.965-0.432-0.965-0.965l0,0
							c0-0.533,0.432-0.965,0.965-0.965h19.298c0.533,0,0.965,0.432,0.965,0.965l0,0
							C117.942,401.329,117.51,401.761,116.977,401.761z"/>
						<path style="fill:#F9B089;" d="M116.977,408.114H97.679c-0.533,0-0.965-0.432-0.965-0.965l0,0
							c0-0.533,0.432-0.965,0.965-0.965h19.298c0.533,0,0.965,0.432,0.965,0.965l0,0
							C117.942,407.682,117.51,408.114,116.977,408.114z"/>
					</g>
					<path style="fill:#F9B089;" d="M133.312,410.089h-8.802c-0.948,0-1.716-0.768-1.716-1.716v-8.802
						c0-0.947,0.768-1.716,1.716-1.716h8.802c0.948,0,1.716,0.768,1.716,1.716v8.802
						C135.027,409.321,134.259,410.089,133.312,410.089z"/>
					<g>
						<path style="fill:#6C5CD7;" d="M129.482,408.156c-0.276,0-0.533-0.147-0.672-0.39l-3.781-6.613
							c-0.212-0.372-0.084-0.845,0.288-1.057c0.371-0.212,0.845-0.084,1.057,0.288l2.904,5.077l3.248-10.264
							c0.129-0.408,0.564-0.634,0.973-0.505c0.408,0.129,0.634,0.565,0.505,0.973l-3.781,11.95c-0.093,0.294-0.35,0.504-0.656,0.537
							C129.537,408.154,129.51,408.156,129.482,408.156z"/>
					</g>
				</g>
			</g>
		</g>
	</g>
</g>
</svg>
