<?xml version="1.0" encoding="utf-8"?>
<!-- Generator: Adobe Illustrator 27.5.0, SVG Export Plug-In . SVG Version: 6.00 Build 0)  -->
<svg version="1.1" xmlns="http://www.w3.org/2000/svg" xmlns:xlink="http://www.w3.org/1999/xlink" x="0px" y="0px"
	 viewBox="0 0 499.999 500" style="enable-background:new 0 0 499.999 500;" xml:space="preserve">
<g id="BACKGROUND">
	<rect x="-0.001" y="0.001" style="fill:#536CD6;" width="500" height="500"/>
</g>
<g id="OBJECTS">
	<g>
		<g>
			<g>
				<path style="fill:none;stroke:#283A8A;stroke-width:8;stroke-miterlimit:10;" d="M70.999,383c121.398,0,243.699,0,366,0"/>
				<path style="fill:none;stroke:#283A8A;stroke-width:8;stroke-miterlimit:10;" d="M70.999,367c121.398,0,243.699,0,366,0"/>
			</g>
			<g>
				<path style="fill:none;stroke:#283A8A;stroke-width:11;stroke-miterlimit:10;" d="M71.693,331c0,51.324,0,117.676,0,169"/>
				<path style="fill:none;stroke:#283A8A;stroke-width:11;stroke-miterlimit:10;" d="M436.306,331c0,48.367,0,119.557,0,169"/>
			</g>
		</g>
		<g>
			<g>
				<path style="fill:#7AA5FF;" d="M155.954,291.167c0.517,6.866-2.167,13.833-4.406,20.199c-2.826,8.039-6.001,15.951-8.339,24.154
					c-3.77,13.226-4.804,28.837,9.039,36.307c8.864,4.783,19.217,4.184,28.937,4.424c6.053,0.15,11.964,0.99,17.184,4.237
					c6.331,3.939,10.723,12.284,9.633,19.696c-1.578,10.729-13.47,17.953-22.455,21.984c-7.408,3.324-14.429,7.884-17.522,15.782
					c-4.434,11.322,0.392,23.698,10.265,30.331c10.863,7.299,26.746,4.749,36.149-3.747c10.228-9.24,17.223-21.545,27.474-30.825
					c4.61-4.173,10.615-8.182,17.133-7.181c8.492,1.304,13.913,10.634,17.577,17.442c0.764,1.42,2.922,0.157,2.158-1.262
					c-3.899-7.248-8.855-14.968-16.895-18.016c-5.726-2.171-11.82,0.092-16.658,3.258c-12.944,8.47-20.655,23.014-31.443,33.756
					c-12.458,12.404-34.872,10.858-42.9-5.585c-3.771-7.722-2.222-16.829,3.197-23.307c6.398-7.647,17.321-9.845,25.111-15.834
					c5.455-4.194,10.882-10.42,11.433-17.604c0.646-8.429-4.303-16.255-10.995-21.048c-14.929-10.693-36.673,1.098-51.023-12.09
					c-10.493-9.643-4.046-27.649-0.197-38.859c3.852-11.217,10.963-24.012,10.044-36.214
					C158.333,289.569,155.833,289.557,155.954,291.167L155.954,291.167z"/>
			</g>
		</g>
		<path style="fill:none;stroke:#FFFFFF;stroke-width:14;stroke-miterlimit:10;" d="M29.5,330c148.957,0,298.979,0,449,0"/>
		<g>
			<g>
				<g>
					<g>
						
							<rect x="242.215" y="264.236" transform="matrix(0.9626 -0.2709 0.2709 0.9626 -66.17 76.6431)" style="fill:#7AA5FF;" width="4.578" height="27.485"/>
					</g>
					<g>
						<polygon style="fill:#FFFFFF;" points="238.799,257.684 243.003,264.176 238.594,265.417 						"/>
					</g>
					<g>
						<path style="fill:#283A8A;" d="M240.87,260.881l-2.07-3.197l-0.101,3.805C239.391,261.633,240.182,261.348,240.87,260.881z"/>
					</g>
				</g>
				<g>
					<path style="fill:#283A8A;" d="M265.693,256.143c-0.188-0.033-0.316-0.172-0.291-0.313l0.256-1.432
						c0.023-0.141,0.193-0.229,0.38-0.195l0,0c0.187,0.035,0.315,0.174,0.29,0.314l-0.254,1.432
						C266.048,256.09,265.878,256.176,265.693,256.143L265.693,256.143z"/>
					<g>
						
							<rect x="244.478" y="277.558" transform="matrix(0.1755 -0.9845 0.9845 0.1755 -60.5224 488.479)" style="fill:#61B996;" width="33.801" height="5.631"/>
					</g>
					<g>
						
							<rect x="244.477" y="279.095" transform="matrix(0.1756 -0.9845 0.9845 0.1756 -60.5477 488.44)" style="fill:#B3DDCD;" width="33.801" height="2.557"/>
					</g>
					<g>
						<polyline style="fill:#FFFFFF;" points="265.272,255.516 261.558,263.301 267.101,264.29 266.302,255.702 						"/>
					</g>
				</g>
				<g>
					<g>
						
							<rect x="236.376" y="274.383" transform="matrix(0.0795 -0.9968 0.9968 0.0795 -44.7258 506.6645)" style="fill:#F0C44D;" width="31.229" height="6.335"/>
						
							<rect x="236.376" y="276.312" transform="matrix(0.0796 -0.9968 0.9968 0.0796 -44.7388 506.6487)" style="fill:#283A8A;" width="31.23" height="2.479"/>
					</g>
					<g>
						<polygon style="fill:#FFFFFF;" points="253.791,254.975 250.07,261.795 256.385,262.299 						"/>
						<polygon style="fill:#283A8A;" points="253.791,254.975 252.457,257.426 254.722,257.606 						"/>
					</g>
				</g>
				<g>
					<polygon style="fill:#D85FA2;" points="266.68,322.827 237.19,322.827 232.987,276.565 270.882,276.565 					"/>
					<g>
						<g>
							<path style="fill:#AD008C;" d="M232.912,279.537c12.682,0,25.363,0,38.045,0c2.777,0,2.777-4.307,0-4.307
								c-12.682,0-25.363,0-38.045,0C230.134,275.23,230.134,279.537,232.912,279.537L232.912,279.537z"/>
						</g>
					</g>
					<g>
						<g>
							<g>
								<path style="fill:#AD008C;" d="M233.664,291.302c12.18,0,24.36,0,36.541,0c1.122,0,1.122-1.74,0-1.74
									c-12.181,0-24.361,0-36.541,0C232.541,289.562,232.541,291.302,233.664,291.302L233.664,291.302z"/>
							</g>
						</g>
						<g>
							<g>
								<path style="fill:#AD008C;" d="M234.099,294.783c11.89,0,23.78,0,35.67,0c1.122,0,1.122-1.74,0-1.74
									c-11.89,0-23.78,0-35.67,0C232.977,293.043,232.977,294.783,234.099,294.783L234.099,294.783z"/>
							</g>
						</g>
						<g>
							<g>
								<path style="fill:#AD008C;" d="M234.535,298.263c11.6,0,23.199,0,34.799,0c1.122,0,1.122-1.74,0-1.74
									c-11.6,0-23.199,0-34.799,0C233.413,296.523,233.413,298.263,234.535,298.263L234.535,298.263z"/>
							</g>
						</g>
					</g>
				</g>
			</g>
			<g>
				<g>
					<path style="fill-rule:evenodd;clip-rule:evenodd;fill:#3E51A1;" d="M163.472,314.081c0,1.787-3.826,3.236-5.957,3.236h-31.348
						c-2.133,0-5.959-1.449-5.959-3.236l4.197-29.268c0-1.787-0.371-3.236,1.762-3.236h31.348c2.131,0,1.762,1.449,1.762,3.236
						L163.472,314.081z"/>
					<polyline style="fill-rule:evenodd;clip-rule:evenodd;fill:#3E51A1;" points="104.351,319.901 103.934,318.633 
						112.245,312.721 171.438,312.721 179.747,318.633 179.321,319.012 					"/>
					<rect x="103.934" y="318.633" style="fill-rule:evenodd;clip-rule:evenodd;fill:#1E2C68;" width="75.813" height="4.557"/>
				</g>
				<path style="fill-rule:evenodd;clip-rule:evenodd;fill:#1E2C68;" d="M226.345,285.85c0,3.826-3.102,6.926-6.925,6.926H64.262
					c-3.824,0-6.925-3.1-6.925-6.926V181.208c0-3.823,3.101-6.924,6.925-6.924H219.42c3.823,0,6.925,3.101,6.925,6.924V285.85z"/>
				<path style="fill-rule:evenodd;clip-rule:evenodd;fill:#7AA5FF;" d="M226.345,271.477v15.314c0,3.824-3.102,6.924-6.925,6.924
					H64.262c-3.824,0-6.925-3.1-6.925-6.924v-15.314"/>
				<g>
					<path style="fill:#1E2C68;" d="M141.84,287.241c6.897,0,6.897-10.346,0-10.346C134.943,276.895,134.943,287.241,141.84,287.241
						L141.84,287.241z"/>
				</g>
				<path style="fill-rule:evenodd;clip-rule:evenodd;fill:#283A8A;" d="M218.013,257.788c0,3.047-2.613,5.518-5.844,5.518H71.513
					c-3.23,0-5.844-2.471-5.844-5.518v-69.984c0-3.045,2.613-5.516,5.844-5.516h139.962c3.234,0,6.538,2.471,6.538,5.516V257.788z"
					/>
				<g style="opacity:0.16;">
					<defs>
						<path id="SVGID_1_" style="opacity:0.16;" d="M226.345,285.85c0,3.826-3.102,6.926-6.925,6.926H64.262
							c-3.824,0-6.925-3.1-6.925-6.926V181.208c0-3.823,3.101-6.924,6.925-6.924H219.42c3.823,0,6.925,3.101,6.925,6.924V285.85z"/>
					</defs>
					<clipPath id="SVGID_00000177451101862705070960000008744898544801372090_">
						<use xlink:href="#SVGID_1_"  style="overflow:visible;"/>
					</clipPath>
					<g style="clip-path:url(#SVGID_00000177451101862705070960000008744898544801372090_);">
						
							<rect x="-8.699" y="180.65" transform="matrix(0.7071 -0.7071 0.7071 0.7071 -106.8034 112.8757)" style="fill:#7AA5FF;" width="183.098" height="9.419"/>
						
							<rect x="26.548" y="215.898" transform="matrix(0.7071 -0.7071 0.7071 0.7071 -121.4026 148.1196)" style="fill:#7AA5FF;" width="183.098" height="9.419"/>
						
							<rect x="4.602" y="189.256" transform="matrix(0.7071 -0.7071 0.7071 0.7071 -112.3149 126.1831)" style="fill:#7AA5FF;" width="183.098" height="18.81"/>
						
							<rect x="37.854" y="224.859" transform="matrix(0.7071 -0.7071 0.7071 0.7071 -126.0822 159.4143)" style="fill:#7AA5FF;" width="183.097" height="14.108"/>
						
							<rect x="16.573" y="207.339" transform="matrix(0.7073 -0.707 0.707 0.7073 -117.255 138.0977)" style="fill:#7AA5FF;" width="183.097" height="6.584"/>
					</g>
				</g>
			</g>
			<path style="fill:#7AA5FF;" d="M222.332,314.868c0,4.699-3.81,8.51-8.509,8.51h-14.659c-4.699,0-8.509-3.811-8.509-8.51l0,0
				c0-4.699,3.81-8.508,8.509-8.508h14.659C218.522,306.36,222.332,310.168,222.332,314.868L222.332,314.868z"/>
			<g>
				<g>
					<g>
						
							<line style="fill:none;stroke:#FFFFFF;stroke-width:3.2;stroke-linecap:round;stroke-linejoin:round;stroke-miterlimit:10;" x1="281.699" y1="220.922" x2="333.298" y2="272.522"/>
						
							<line style="fill:none;stroke:#FFFFFF;stroke-width:3.2;stroke-linecap:round;stroke-linejoin:round;stroke-miterlimit:10;" x1="289.619" y1="213.003" x2="341.216" y2="264.602"/>
						
							<line style="fill:none;stroke:#FFFFFF;stroke-width:3.2;stroke-linecap:round;stroke-linejoin:round;stroke-miterlimit:10;" x1="281.699" y1="220.922" x2="289.619" y2="213.003"/>
						
							<line style="fill:none;stroke:#FFFFFF;stroke-width:3.2;stroke-linecap:round;stroke-linejoin:round;stroke-miterlimit:10;" x1="274.386" y1="205.692" x2="289.341" y2="220.645"/>
					</g>
					<g>
						
							<line style="fill:none;stroke:#FFFFFF;stroke-width:3.2;stroke-linecap:round;stroke-linejoin:round;stroke-miterlimit:10;" x1="281.699" y1="308.491" x2="333.298" y2="256.891"/>
						
							<line style="fill:none;stroke:#FFFFFF;stroke-width:3.2;stroke-linecap:round;stroke-linejoin:round;stroke-miterlimit:10;" x1="289.619" y1="316.409" x2="341.216" y2="264.811"/>
						
							<line style="fill:none;stroke:#FFFFFF;stroke-width:3.2;stroke-linecap:round;stroke-linejoin:round;stroke-miterlimit:10;" x1="281.699" y1="308.491" x2="289.619" y2="316.411"/>
					</g>
				</g>
				<g>
					<path style="fill:#FFFFFF;" d="M275.398,204.045c-0.938,0.938-2.457,0.938-3.395,0l-6.787-6.787
						c-0.938-0.938-0.938-2.457,0-3.395l9.178-9.178c0.938-0.938,2.457-0.938,3.395,0l6.787,6.788c0.938,0.937,0.938,2.456,0,3.394
						L275.398,204.045z"/>
					<path style="fill:#F0C44D;" d="M246.96,235.232c-3.57,3.571-9.359,3.571-12.93,0l0,0c-3.572-3.571-3.572-9.36-0.002-12.931
						l3.035-3.035c3.572-3.57,9.361-3.57,12.932,0l0,0c3.57,3.57,3.57,9.359,0,12.931L246.96,235.232z"/>
					<polygon style="fill:#7AA5FF;" points="260.806,245.508 242.281,226.982 223.753,208.456 258.066,194.509 265.05,183.001 
						275.656,193.606 286.261,204.212 274.753,211.196 					"/>
					<path style="fill:#3E51A1;" d="M264.349,246.913c-1.455,1.455-3.814,1.455-5.27,0l-36.73-36.73
						c-1.455-1.455-1.455-3.814,0-5.27l0,0c1.455-1.455,3.814-1.455,5.27,0l36.73,36.73
						C265.804,243.098,265.804,245.458,264.349,246.913L264.349,246.913z"/>
				</g>
				<g>
					<path style="fill:#3E51A1;" d="M271.207,308.411c0,1.371-1.111,2.482-2.482,2.482l0,0c-1.371,0-2.484-1.111-2.484-2.482v-5.729
						c0-1.371,1.113-2.482,2.484-2.482l0,0c1.371,0,2.482,1.111,2.482,2.482V308.411z"/>
					<path style="fill:#7AA5FF;" d="M251.339,319.53v-3.777c0-5.867,3.582-10.623,8-10.623h59.732c4.418,0,8,4.756,8,10.623v3.777"
						/>
					<path style="fill:#3E51A1;" d="M330.207,321.217c0,1.215-0.83,2.199-1.854,2.199h-78.295c-1.023,0-1.852-0.984-1.852-2.199l0,0
						c0-1.215,0.828-2.201,1.852-2.201h78.295C329.376,319.016,330.207,320.003,330.207,321.217L330.207,321.217z"/>
				</g>
			</g>
			<g>
				<path style="fill:#3E51A1;" d="M93.794,317.868c0,3.043-2.467,5.51-5.51,5.51H51.82c-3.043,0-5.51-2.467-5.51-5.51l0,0
					c0-3.043,2.467-5.51,5.51-5.51h36.465C91.328,312.358,93.794,314.825,93.794,317.868L93.794,317.868z"/>
				<g>
					<g>
						<g>
							<path style="fill:#F0C44D;" d="M83.881,320.723c3.224,0,3.224-5,0-5C80.657,315.723,80.657,320.723,83.881,320.723
								L83.881,320.723z"/>
						</g>
					</g>
					<g>
						<g>
							<path style="fill:#61B996;" d="M75.186,320.723c3.224,0,3.224-5,0-5S71.962,320.723,75.186,320.723L75.186,320.723z"/>
						</g>
					</g>
				</g>
			</g>
		</g>
	</g>
	<g>
		<path style="fill:#FFFFFF;" d="M407.155,145.216c0,2.611-2.685,4.729-6,4.729H276.391c-3.313,0-6-2.117-6-4.729v-4.543
			c0-2.611,2.688-4.729,6-4.729h124.764c3.315,0,6,2.117,6,4.729V145.216z"/>
		<g>
			<rect x="354.228" y="65.899" style="fill:#D85FA2;" width="19.334" height="72.105"/>
			<path style="fill:#AD008C;" d="M367.134,129.45c0,1.636-1.343,2.961-3,2.961l0,0c-1.656,0-3-1.325-3-2.961V74.371
				c0-1.635,1.344-2.96,3-2.96l0,0c1.657,0,3,1.325,3,2.96V129.45z"/>
		</g>
		<g>
			<rect x="379.228" y="83.803" style="fill:#7AA5FF;" width="14.667" height="54.201"/>
			<path style="fill:#3E51A1;" d="M388.069,131.616c0,1.262-0.672,2.285-1.5,2.285l0,0c-0.828,0-1.5-1.023-1.5-2.285v-41.43
				c0-1.262,0.672-2.285,1.5-2.285l0,0c0.828,0,1.5,1.023,1.5,2.285V131.616z"/>
		</g>
		<g>
			<g>
				<g>
					<path style="fill:#61B996;" d="M312.38,106.315c0,0-0.12-0.263-0.308-0.757c-0.174-0.493-0.475-1.217-0.766-2.138
						c-0.597-1.847-1.376-4.459-1.98-7.637c-0.623-3.173-1.151-6.895-1.468-10.817c-0.183-1.967-0.277-4.005-0.361-6.052
						c-0.074-2.052-0.101-4.134-0.075-6.216c0.002-2.072,0.039-4.139,0.135-6.178c0.116-2.044,0.199-4.037,0.354-5.972
						c0.124-1.934,0.374-3.821,0.539-5.597c0.17-1.775,0.381-3.465,0.615-5.036c0.132-0.787,0.239-1.541,0.375-2.263
						c0.118-0.719,0.189-1.398,0.306-2.043c0.21-1.289,0.424-2.425,0.632-3.37c0.192-0.943,0.414-1.699,0.534-2.212
						c0.134-0.515,0.226-0.794,0.226-0.794s0.153,0.242,0.401,0.705c0.234,0.464,0.625,1.142,1.031,2.022
						c0.422,0.879,0.895,1.958,1.404,3.21c0.259,0.625,0.506,1.297,0.768,2.005c0.232,0.709,0.441,1.46,0.68,2.244
						c0.446,1.57,0.887,3.283,1.3,5.107c0.397,1.824,0.672,3.743,0.941,5.742c0.281,1.998,0.501,4.07,0.588,6.159
						c0.105,2.093,0.166,4.223,0.169,6.349c-0.076,4.228-0.304,8.469-0.837,12.39c-0.49,3.947-1.163,7.569-1.912,10.692
						c-0.76,3.118-1.515,5.753-2.166,7.579c-0.308,0.916-0.622,1.635-0.804,2.125C312.505,106.054,312.38,106.315,312.38,106.315z"
						/>
				</g>
				<g>
					<path style="fill:#61B996;" d="M311.138,106.315c0,0-0.183-0.212-0.487-0.617c-0.291-0.409-0.764-0.998-1.276-1.771
						c-1.066-1.521-2.389-3.81-3.895-6.459c-0.738-1.336-1.494-2.786-2.238-4.33c-0.735-1.545-1.559-3.176-2.298-4.882
						c-0.75-1.706-1.465-3.484-2.207-5.282c-0.727-1.804-1.411-3.652-2.058-5.514c-0.683-1.847-1.322-3.709-1.902-5.563
						c-0.562-1.863-1.147-3.68-1.647-5.47c-0.517-1.782-0.896-3.563-1.332-5.219c-0.414-1.666-0.762-3.267-1.048-4.766
						c-0.265-1.515-0.507-2.903-0.722-4.133c-0.197-1.244-0.343-2.348-0.435-3.273c-0.105-0.92-0.125-1.676-0.167-2.18
						c-0.03-0.509-0.027-0.791-0.027-0.791s0.219,0.171,0.594,0.51c0.364,0.345,0.938,0.832,1.59,1.496
						c0.665,0.657,1.438,1.476,2.296,2.437c0.436,0.477,0.863,1.003,1.335,1.55c0.446,0.557,0.882,1.16,1.357,1.782
						c0.921,1.256,1.882,2.64,2.85,4.131c0.967,1.492,1.863,3.118,2.776,4.813c0.899,1.7,1.813,3.469,2.58,5.325
						c0.793,1.848,1.549,3.745,2.261,5.659c0.663,1.929,1.267,3.878,1.819,5.81c0.572,1.926,1.002,3.86,1.377,5.742
						c0.371,1.886,0.695,3.706,0.914,5.472c0.21,1.769,0.356,3.449,0.451,5.004c0.034,0.781,0.087,1.523,0.099,2.237
						c-0.004,0.711,0.007,1.379-0.02,2.019c-0.034,1.272-0.096,2.39-0.178,3.319c-0.066,0.924-0.189,1.669-0.241,2.169
						C311.194,106.041,311.138,106.315,311.138,106.315z"/>
				</g>
				<g>
					<path style="fill:#61B996;" d="M311.759,108.799c0,0-0.036-0.298-0.067-0.845c-0.018-0.543-0.089-1.354-0.091-2.358
						c-0.029-2.017,0.049-4.861,0.369-8.205c0.317-3.345,0.878-7.189,1.71-11.238c0.802-4.058,1.921-8.305,3.205-12.501
						c1.304-4.191,2.78-8.329,4.407-12.134c1.6-3.813,3.312-7.306,4.943-10.25c1.628-2.944,3.177-5.339,4.345-6.99
						c0.571-0.829,1.09-1.46,1.413-1.899c0.337-0.435,0.536-0.661,0.536-0.661s0.037,0.298,0.069,0.846
						c0.02,0.544,0.091,1.354,0.096,2.36c0.032,2.017-0.043,4.863-0.361,8.208c-0.315,3.345-0.876,7.189-1.711,11.237
						c-0.806,4.056-1.926,8.303-3.219,12.497c-1.311,4.188-2.789,8.326-4.422,12.13c-1.603,3.813-3.314,7.306-4.943,10.25
						c-1.626,2.945-3.171,5.341-4.336,6.993c-0.569,0.83-1.087,1.46-1.409,1.899C311.958,108.573,311.759,108.799,311.759,108.799z"
						/>
				</g>
				<g>
					<path style="fill:#61B996;" d="M311.759,109.42c0,0-0.196-0.156-0.529-0.462c-0.319-0.312-0.832-0.751-1.398-1.346
						c-0.565-0.611-1.284-1.282-2.048-2.025c-0.392-0.37-0.758-0.777-1.175-1.187c-0.445-0.411-0.875-0.858-1.339-1.31
						c-0.875-0.93-1.894-1.882-2.89-2.914c-1.005-1.015-2.064-2.085-3.159-3.192c-1.114-1.085-2.19-2.244-3.342-3.387
						c-1.101-1.178-2.293-2.316-3.404-3.524c-1.172-1.158-2.271-2.386-3.418-3.546c-1.112-1.195-2.228-2.359-3.283-3.532
						c-1.07-1.152-2.081-2.314-3.057-3.414c-0.98-1.092-1.869-2.197-2.727-3.187c-0.837-1.041-1.604-1.994-2.283-2.84
						c-0.677-0.87-1.253-1.67-1.74-2.32c-0.488-0.648-0.841-1.223-1.099-1.589c-0.251-0.377-0.376-0.598-0.376-0.598
						s0.249,0.006,0.698,0.054c0.442,0.059,1.118,0.107,1.938,0.252c0.834,0.121,1.803,0.353,2.91,0.647
						c1.114,0.284,2.328,0.689,3.631,1.187c1.313,0.482,2.667,1.122,4.094,1.827c1.405,0.733,2.861,1.561,4.306,2.508
						c1.433,0.963,2.893,1.998,4.274,3.176c1.416,1.136,2.732,2.441,4.047,3.739c1.254,1.367,2.505,2.732,3.594,4.212
						c1.135,1.433,2.107,2.972,3.016,4.466c0.452,0.748,0.845,1.528,1.223,2.285c0.368,0.765,0.771,1.478,1.054,2.249
						c0.616,1.503,1.159,2.926,1.515,4.314c0.178,0.691,0.364,1.339,0.505,1.97c0.12,0.657,0.24,1.275,0.317,1.861
						c0.175,1.169,0.281,2.163,0.253,2.986c0.013,0.821-0.044,1.494-0.054,1.94C311.791,109.172,311.759,109.42,311.759,109.42z"/>
				</g>
				<g>
					<path style="fill:#61B996;" d="M312.38,110.663c0,0-0.03-0.249-0.05-0.701c-0.008-0.447-0.063-1.12-0.046-1.942
						c0.002-0.828,0.04-1.817,0.117-2.939c0.03-0.564,0.103-1.148,0.156-1.773c0.066-0.625,0.236-1.276,0.362-1.965
						c0.294-1.369,0.66-2.852,1.109-4.413c0.193-0.801,0.507-1.552,0.809-2.329c0.296-0.782,0.633-1.566,0.979-2.365
						c0.346-0.798,0.717-1.601,1.097-2.413c0.376-0.815,0.878-1.57,1.339-2.359c0.964-1.55,1.93-3.147,3.05-4.627
						c1.167-1.444,2.374-2.858,3.6-4.21c0.315-0.33,0.603-0.683,0.936-0.989c0.335-0.304,0.668-0.606,0.999-0.907
						c0.669-0.595,1.332-1.176,1.999-1.732c1.323-1.122,2.642-2.153,4.01-2.979c1.348-0.85,2.648-1.606,3.867-2.267
						c1.202-0.683,2.425-1.134,3.486-1.553c1.072-0.405,2.02-0.727,2.817-0.964c0.788-0.249,1.446-0.384,1.875-0.5
						c0.436-0.105,0.682-0.144,0.682-0.144s-0.096,0.236-0.296,0.646c-0.209,0.399-0.486,1.02-0.889,1.732
						c-0.393,0.725-0.892,1.57-1.478,2.504c-0.576,0.943-1.303,1.912-1.982,3.062c-0.71,1.117-1.499,2.286-2.362,3.473
						c-0.411,0.612-0.921,1.154-1.325,1.812c-0.416,0.646-0.867,1.275-1.324,1.913c-0.458,0.638-0.937,1.27-1.425,1.904
						c-0.494,0.628-1.006,1.252-1.454,1.932c-0.939,1.325-1.933,2.63-2.966,3.905c-0.996,1.302-1.922,2.655-2.941,3.917
						c-0.486,0.647-1.049,1.238-1.499,1.896c-0.471,0.645-0.94,1.281-1.421,1.898c-0.927,1.247-2.02,2.387-2.856,3.538
						c-0.878,1.136-1.767,2.203-2.632,3.188c-0.443,0.497-0.868,0.972-1.272,1.425c-0.403,0.479-0.765,0.944-1.143,1.364
						c-0.737,0.848-1.41,1.575-1.993,2.161c-0.568,0.592-1.083,1.03-1.404,1.34C312.578,110.508,312.38,110.663,312.38,110.663z"/>
				</g>
			</g>
			<g>
				<polygon style="fill:#F0C44D;" points="328.843,138.004 294.947,138.004 290.117,97.004 333.673,97.004 				"/>
				<path style="fill:#BA9332;" d="M338.361,100.514c0,2.451-1.986,4.438-4.438,4.438h-44.057c-2.451,0-4.438-1.986-4.438-4.438l0,0
					c0-2.45,1.986-4.438,4.438-4.438h44.057C336.374,96.077,338.361,98.064,338.361,100.514L338.361,100.514z"/>
				<g>
					<path style="fill:#BA9332;" d="M333.673,117.134c0,0.841-0.682,1.523-1.523,1.523h-40.51c-0.842,0-1.523-0.683-1.523-1.523l0,0
						c0-0.842,0.682-1.523,1.523-1.523h40.51C332.992,115.611,333.673,116.293,333.673,117.134L333.673,117.134z"/>
					<path style="fill:#BA9332;" d="M333.673,123.134c0,0.841-0.682,1.523-1.523,1.523h-40.51c-0.842,0-1.523-0.683-1.523-1.523l0,0
						c0-0.842,0.682-1.523,1.523-1.523h40.51C332.992,121.611,333.673,122.293,333.673,123.134L333.673,123.134z"/>
				</g>
			</g>
		</g>
	</g>
	<g>
		
			<ellipse transform="matrix(0.2334 -0.9724 0.9724 0.2334 280.4899 478.9868)" style="fill:#FFFFFF;stroke:#3E51A1;stroke-width:7.04;stroke-miterlimit:10;" cx="444.04" cy="61.594" rx="36.96" ry="36.96"/>
		<g>
			<g>
				<g>
					<g>
						<path style="fill:#3E51A1;" d="M442.389,31.966c0,1.564,0,3.128,0,4.692c0,2.128,3.301,2.128,3.301,0c0-1.564,0-3.128,0-4.692
							C445.69,29.838,442.389,29.838,442.389,31.966L442.389,31.966z"/>
					</g>
				</g>
				<g>
					<g>
						<path style="fill:#3E51A1;" d="M442.389,86.526c0,1.564,0,3.129,0,4.693c0,2.128,3.301,2.128,3.301,0c0-1.564,0-3.129,0-4.693
							C445.69,84.398,442.389,84.398,442.389,86.526L442.389,86.526z"/>
					</g>
				</g>
				<g>
					<g>
						<path style="fill:#3E51A1;" d="M414.414,63.242c1.565,0,3.128,0,4.692,0c2.128,0,2.128-3.3,0-3.3c-1.565,0-3.128,0-4.692,0
							C412.286,59.942,412.286,63.242,414.414,63.242L414.414,63.242z"/>
					</g>
				</g>
				<g>
					<g>
						<path style="fill:#3E51A1;" d="M468.973,63.242c1.564,0,3.128,0,4.692,0c2.128,0,2.128-3.3,0-3.3c-1.565,0-3.128,0-4.692,0
							C466.845,59.942,466.845,63.242,468.973,63.242L468.973,63.242z"/>
					</g>
				</g>
			</g>
			<g>
				<g>
					<g>
						<path style="fill:#7AA5FF;" d="M417.826,47.729c1.355,0.782,2.711,1.563,4.065,2.346c1.231,0.711,2.339-1.191,1.111-1.899
							c-1.355-0.782-2.711-1.564-4.066-2.346C417.706,45.12,416.598,47.021,417.826,47.729L417.826,47.729z"/>
					</g>
				</g>
				<g>
					<g>
						<path style="fill:#7AA5FF;" d="M465.077,75.009c1.355,0.783,2.71,1.565,4.064,2.347c1.231,0.71,2.339-1.191,1.111-1.899
							c-1.355-0.782-2.71-1.564-4.064-2.347C464.957,72.398,463.849,74.3,465.077,75.009L465.077,75.009z"/>
					</g>
				</g>
				<g>
					<g>
						<path style="fill:#7AA5FF;" d="M430.177,87.805c0.781-1.355,1.564-2.71,2.346-4.063c0.711-1.231-1.19-2.338-1.9-1.11
							c-0.782,1.354-1.565,2.709-2.346,4.063C427.567,87.926,429.468,89.033,430.177,87.805L430.177,87.805z"/>
					</g>
				</g>
				<g>
					<g>
						<path style="fill:#7AA5FF;" d="M457.457,40.555c0.781-1.355,1.564-2.709,2.346-4.064c0.71-1.231-1.191-2.339-1.9-1.11
							c-0.781,1.355-1.564,2.709-2.346,4.064C454.846,40.675,456.748,41.783,457.457,40.555L457.457,40.555z"/>
					</g>
				</g>
				<g>
					<g>
						<path style="fill:#7AA5FF;" d="M418.937,77.355c1.354-0.782,2.71-1.564,4.066-2.347c1.227-0.708,0.12-2.61-1.111-1.899
							c-1.354,0.782-2.71,1.565-4.065,2.347C416.598,76.165,417.706,78.066,418.937,77.355L418.937,77.355z"/>
					</g>
				</g>
				<g>
					<g>
						<path style="fill:#7AA5FF;" d="M466.188,50.076c1.354-0.783,2.709-1.565,4.064-2.348c1.228-0.708,0.12-2.61-1.111-1.899
							c-1.354,0.782-2.709,1.565-4.064,2.348C463.849,48.886,464.957,50.788,466.188,50.076L466.188,50.076z"/>
					</g>
				</g>
				<g>
					<g>
						<path style="fill:#7AA5FF;" d="M459.802,86.694c-0.783-1.354-1.564-2.709-2.347-4.063c-0.71-1.228-2.611-0.121-1.9,1.11
							c0.783,1.354,1.565,2.709,2.347,4.063C458.612,89.032,460.513,87.925,459.802,86.694L459.802,86.694z"/>
					</g>
				</g>
				<g>
					<g>
						<path style="fill:#7AA5FF;" d="M432.522,39.444c-0.782-1.355-1.564-2.71-2.347-4.064c-0.71-1.228-2.611-0.12-1.9,1.11
							c0.783,1.354,1.565,2.709,2.347,4.064C431.331,41.783,433.232,40.675,432.522,39.444L432.522,39.444z"/>
					</g>
				</g>
			</g>
		</g>
		<g>
			<g>
				
					<line style="fill:none;stroke:#3E51A1;stroke-width:2.64;stroke-linecap:round;stroke-linejoin:round;stroke-miterlimit:10;" x1="444.04" y1="43.701" x2="444.04" y2="61.945"/>
				
					<line style="fill:none;stroke:#3E51A1;stroke-width:2.64;stroke-linecap:round;stroke-linejoin:round;stroke-miterlimit:10;" x1="444.04" y1="61.945" x2="453.719" y2="69.514"/>
			</g>
			<path style="fill:#283A8A;" d="M446.996,61.594c0,1.633-1.323,2.957-2.956,2.957c-1.633,0-2.957-1.324-2.957-2.957
				s1.324-2.957,2.957-2.957C445.672,58.637,446.996,59.961,446.996,61.594z"/>
		</g>
	</g>
	<g>
		<g>
			<rect x="16.189" y="173.797" style="fill:none;" width="40.765" height="31.211"/>
			<text transform="matrix(1 0 0 1 30.8531 201.9932)" style="fill:#FFFFFF; font-family:'Montserrat-ExtraBold'; font-size:38px;">!</text>
		</g>
		<rect x="221.455" y="158.262" style="fill:none;" width="47.771" height="28.662"/>
		<text transform="matrix(1 0 0 1 238.1763 176.0689)" style="fill:#F0C44D; font-family:'Montserrat-ExtraBold'; font-size:24px;">?</text>
		<g>
			<g>
				<path style="fill:#F0C44D;" d="M148.562,98.488c0,4.418-3.582,8-8,8H83.437c-4.418,0-8-3.582-8-8V57.513c0-4.418,3.582-8,8-8
					h57.125c4.418,0,8,3.582,8,8V98.488z"/>
				<g>
					<polyline style="fill:#F0C44D;" points="141.295,105.001 129.999,115.151 129.999,105.001 					"/>
				</g>
			</g>
			<g>
				<g>
					<g>
						<path style="fill:#FFFFFF;" d="M87.478,63.75c16.348,0,32.695,0,49.043,0c1.612,0,1.612-2.5,0-2.5
							c-16.348,0-32.695,0-49.043,0C85.866,61.25,85.866,63.75,87.478,63.75L87.478,63.75z"/>
					</g>
				</g>
				<g>
					<g>
						<path style="fill:#FFFFFF;" d="M87.478,71.501c16.348,0,32.695,0,49.043,0c1.612,0,1.612-2.5,0-2.5
							c-16.348,0-32.695,0-49.043,0C85.866,69.001,85.866,71.501,87.478,71.501L87.478,71.501z"/>
					</g>
				</g>
				<g>
					<g>
						<path style="fill:#FFFFFF;" d="M87.478,79.251c16.348,0,32.695,0,49.043,0c1.612,0,1.612-2.5,0-2.5
							c-16.348,0-32.695,0-49.043,0C85.866,76.751,85.866,79.251,87.478,79.251L87.478,79.251z"/>
					</g>
				</g>
				<g>
					<g>
						<path style="fill:#FFFFFF;" d="M87.478,87.001c16.348,0,32.695,0,49.043,0c1.612,0,1.612-2.5,0-2.5
							c-16.348,0-32.695,0-49.043,0C85.866,84.501,85.866,87.001,87.478,87.001L87.478,87.001z"/>
					</g>
				</g>
				<g>
					<g>
						<path style="fill:#FFFFFF;" d="M87.478,94.751c10.91,0,21.82,0,32.73,0c1.612,0,1.612-2.5,0-2.5c-10.91,0-21.82,0-32.73,0
							C85.866,92.251,85.866,94.751,87.478,94.751L87.478,94.751z"/>
					</g>
				</g>
			</g>
		</g>
		<g>
			<path style="fill:#7AA5FF;" d="M239.737,69.234c0,12.702-10.3,23-23.001,23c-12.701,0-22.999-10.298-22.999-23
				c0-12.702,10.298-23,22.999-23C229.437,46.234,239.737,56.532,239.737,69.234z"/>
			<g>
				<path style="fill:#FFFFFF;" d="M224.758,61.553c0,4.432-3.592,8.024-8.021,8.024c-4.43,0-8.021-3.593-8.021-8.024
					c0-4.433,3.592-8.023,8.021-8.023C221.166,53.53,224.758,57.121,224.758,61.553z"/>
				<path style="fill:#FFFFFF;" d="M204.069,83.098V78.23c0-4.308,3.425-7.8,7.651-7.8h10.033c4.225,0,7.651,3.492,7.651,7.8v4.868"
					/>
				<g>
					<path style="fill:#FFFFFF;" d="M213.783,66.903c0,2.206,0,4.409,0,6.614c0,3.814,5.911,3.814,5.911,0c0-2.205,0-4.408,0-6.614
						C219.694,63.091,213.783,63.091,213.783,66.903L213.783,66.903z"/>
				</g>
			</g>
		</g>
		<g>
			<g>
				<rect x="167.132" y="121.223" style="fill:#FFFFFF;" width="57.734" height="35.554"/>
				<g>
					
						<line style="fill:none;stroke:#7AA5FF;stroke-width:2.0297;stroke-linecap:round;stroke-linejoin:round;stroke-miterlimit:10;" x1="167.499" y1="122.001" x2="195.772" y2="144.753"/>
					
						<line style="fill:none;stroke:#7AA5FF;stroke-width:2.0297;stroke-linecap:round;stroke-linejoin:round;stroke-miterlimit:10;" x1="183.007" y1="135.399" x2="167.499" y2="156.001"/>
					
						<line style="fill:none;stroke:#7AA5FF;stroke-width:2.0297;stroke-linecap:round;stroke-linejoin:round;stroke-miterlimit:10;" x1="224.499" y1="122.001" x2="196.226" y2="144.753"/>
					
						<line style="fill:none;stroke:#7AA5FF;stroke-width:2.0297;stroke-linecap:round;stroke-linejoin:round;stroke-miterlimit:10;" x1="208.992" y1="135.399" x2="224.499" y2="156.001"/>
				</g>
			</g>
			<g>
				<circle style="fill:#D85FA2;" cx="224.257" cy="122.001" r="10.5"/>
				<g>
					<rect x="214.737" y="117.927" style="fill:none;" width="19.041" height="10.947"/>
					
						<text transform="matrix(1 0 0 1 216.6392 126.8321)" style="fill:#FFFFFF; font-family:'Montserrat-SemiBold'; font-size:12px;">78</text>
				</g>
			</g>
		</g>
		<g>
			<g>
				<path style="fill:#7AA5FF;" d="M44.698,95.185c-6.065,0-11-4.935-11-11c0-6.065,4.935-11,11-11s11,4.935,11,11
					C55.698,90.251,50.763,95.185,44.698,95.185z M44.698,78.464c-3.154,0-5.72,2.566-5.72,5.721c0,3.154,2.565,5.72,5.72,5.72
					c3.153,0,5.72-2.565,5.72-5.72C50.417,81.031,47.851,78.464,44.698,78.464z"/>
			</g>
			<g>
				<g>
					<rect x="42.057" y="69.884" style="fill:#7AA5FF;" width="5.28" height="6.16"/>
				</g>
				<g>
					<rect x="42.057" y="92.326" style="fill:#7AA5FF;" width="5.28" height="6.159"/>
				</g>
				<g>
					<rect x="30.398" y="81.545" style="fill:#7AA5FF;" width="6.159" height="5.281"/>
				</g>
				<g>
					<rect x="52.837" y="81.545" style="fill:#7AA5FF;" width="6.16" height="5.281"/>
				</g>
				<g>
					
						<rect x="34.124" y="73.171" transform="matrix(0.707 -0.7072 0.7072 0.707 -43.1531 48.3385)" style="fill:#7AA5FF;" width="5.28" height="6.161"/>
				</g>
				<g>
					
						<rect x="49.991" y="89.039" transform="matrix(0.707 -0.7072 0.7072 0.707 -49.7253 64.2074)" style="fill:#7AA5FF;" width="5.28" height="6.16"/>
				</g>
				<g>
					
						<rect x="33.684" y="89.478" transform="matrix(0.7071 -0.7071 0.7071 0.7071 -54.3699 52.9768)" style="fill:#7AA5FF;" width="6.16" height="5.28"/>
				</g>
				<g>
					
						<rect x="49.551" y="73.611" transform="matrix(0.7072 -0.707 0.707 0.7072 -38.5002 59.5371)" style="fill:#7AA5FF;" width="6.16" height="5.28"/>
				</g>
			</g>
		</g>
		<g>
			<g>
				<g>
					<path style="fill:#FFFFFF;" d="M170.753,43.234c0,4,0,8,0,12c0,3.224,5,3.224,5,0c0-4,0-8,0-12
						C175.753,40.01,170.753,40.01,170.753,43.234L170.753,43.234z"/>
				</g>
			</g>
			<g>
				<g>
					<path style="fill:#FFFFFF;" d="M167.253,51.734c4,0,8,0,12,0c3.224,0,3.224-5,0-5c-4,0-8,0-12,0
						C164.029,46.734,164.029,51.734,167.253,51.734L167.253,51.734z"/>
				</g>
			</g>
		</g>
		<g>
			<g>
				<path style="fill-rule:evenodd;clip-rule:evenodd;fill:#61B996;" d="M189.379,95.078c0,7.905-6.408,14.313-14.314,14.313
					c-7.904,0-14.313-6.408-14.313-14.313c0-7.906,6.408-14.313,14.313-14.313C182.971,80.764,189.379,87.171,189.379,95.078z"/>
				<g>
					<polyline style="fill-rule:evenodd;clip-rule:evenodd;fill:#61B996;" points="179.531,106.585 185.181,111.607 
						184.553,103.131 					"/>
				</g>
			</g>
			<rect x="166.342" y="86.398" style="fill:none;" width="17.438" height="17.357"/>
			<text transform="matrix(1 0 0 1 171.2569 103.7246)" style="fill:#FFFFFF; font-family:'Metropolis-Bold'; font-size:24.786px;">!</text>
		</g>
		<g>
			<path style="fill:#7AA5FF;" d="M152.999,149.001c0,8.285-6.715,15-15.001,15c-8.285,0-14.999-6.715-14.999-15
				c0-8.285,6.714-15,14.999-15C146.285,134.001,152.999,140.715,152.999,149.001z"/>
			<g>
				<path style="fill:#FFFFFF;" d="M148.894,149.034c-0.023,0.422-0.053,0.834-0.074,1.258c-0.059,0.258-0.121,0.521-0.166,0.785
					c-0.781,4.234-4.248,7.736-8.504,8.549c-0.719,0.133-1.453,0.18-2.178,0.268c-0.428-0.023-0.844-0.051-1.262-0.07
					c-0.262-0.061-0.523-0.121-0.785-0.172c-4.232-0.779-7.734-4.248-8.545-8.5c-0.137-0.719-0.182-1.457-0.273-2.188
					c0.023-0.414,0.051-0.836,0.074-1.252c0.063-0.266,0.119-0.525,0.166-0.787c0.781-4.238,4.248-7.736,8.504-8.553
					c0.723-0.133,1.447-0.176,2.184-0.264c0.422,0.021,0.838,0.051,1.254,0.074c0.27,0.057,0.525,0.119,0.787,0.164
					c4.238,0.775,7.734,4.25,8.549,8.502C148.761,147.565,148.802,148.307,148.894,149.034z M147.605,149.604
					c0.324-5.264-3.754-9.889-9.012-10.205c-5.234-0.33-9.855,3.742-10.191,8.971c-0.336,5.268,3.73,9.898,8.988,10.232
					C142.642,158.936,147.273,154.86,147.605,149.604z"/>
				<g>
					<path style="fill-rule:evenodd;clip-rule:evenodd;fill:#FFFFFF;" d="M136.449,149.678c-1.221-2.604-0.234-2.811,0.816-3.617
						l-1.785-3.793l-0.16-0.334c-0.377,0.18-0.748,0.328-1.102,0.521c-0.535,0.299-0.918,0.736-1.162,1.307
						c-0.223,0.561-0.264,1.137-0.211,1.725c0.086,1.055,0.342,2.078,0.746,3.043c0.264,0.609,0.463,1.248,0.76,1.852
						c0.369,0.758,0.832,1.477,1.236,2.229c0.406,0.76,0.965,1.426,1.523,2.082c0.439,0.52,0.93,0.998,1.545,1.314
						c0.68,0.352,1.369,0.391,2.064,0.049c0.32-0.156,0.639-0.309,0.953-0.469c0.023-0.004,0.039-0.025,0.063-0.039l-0.154-0.33
						l-1.785-3.773C138.513,151.729,137.818,152.616,136.449,149.678z"/>
					<path style="fill:#FFFFFF;" d="M138.849,144.842c0.139,0.283,0.08,0.607-0.125,0.695l-0.65,0.309
						c-0.211,0.1-0.49-0.055-0.627-0.348l-1.551-3.291c-0.137-0.287-0.08-0.604,0.125-0.703l0.656-0.309
						c0.205-0.098,0.484,0.061,0.621,0.354L138.849,144.842z"/>
					<path style="fill:#FFFFFF;" d="M143.304,154.282c0.131,0.291,0.08,0.607-0.125,0.701l-0.65,0.309
						c-0.211,0.1-0.49-0.053-0.621-0.346l-1.563-3.297c-0.133-0.291-0.074-0.604,0.131-0.697l0.654-0.309
						c0.207-0.098,0.48,0.057,0.617,0.344L143.304,154.282z"/>
				</g>
			</g>
		</g>
		<g>
			<g>
				<path style="fill:#D85FA2;" d="M108.601,149.218c0,4.418-3.582,8-8,8H41.398c-4.418,0-8-3.582-8-8v-22.436c0-4.418,3.582-8,8-8
					h59.203c4.418,0,8,3.582,8,8V149.218z"/>
				<g>
					<polyline style="fill:#D85FA2;" points="43.667,156.478 54.962,166.629 54.962,156.478 					"/>
				</g>
			</g>
			<g>
				<g>
					<g>
						<path style="fill:#FFFFFF;" d="M44.248,132.249c17.834,0,35.669,0,53.504,0c1.612,0,1.612-2.5,0-2.5
							c-17.834,0-35.669,0-53.504,0C42.635,129.749,42.635,132.249,44.248,132.249L44.248,132.249z"/>
					</g>
				</g>
				<g>
					<g>
						<path style="fill:#FFFFFF;" d="M44.248,139.249c17.834,0,35.669,0,53.504,0c1.612,0,1.612-2.5,0-2.5
							c-17.834,0-35.669,0-53.504,0C42.635,136.749,42.635,139.249,44.248,139.249L44.248,139.249z"/>
					</g>
				</g>
				<g>
					<g>
						<path style="fill:#FFFFFF;" d="M44.248,146.249c12.992,0,25.983,0,38.975,0c1.612,0,1.612-2.5,0-2.5
							c-12.992,0-25.983,0-38.975,0C42.635,143.749,42.635,146.249,44.248,146.249L44.248,146.249z"/>
					</g>
				</g>
			</g>
		</g>
	</g>
	<g>
		<defs>
			<rect id="SVGID_00000103980512948859025000000016236402349273918392_" x="75.186" y="418.662" width="88.286" height="81.339"/>
		</defs>
		<clipPath id="SVGID_00000119808245903711269400000001416515237453291928_">
			<use xlink:href="#SVGID_00000103980512948859025000000016236402349273918392_"  style="overflow:visible;"/>
		</clipPath>
		<g style="clip-path:url(#SVGID_00000119808245903711269400000001416515237453291928_);">
			<path style="fill:#3E51A1;" d="M155.462,430.2l-6.12,57.541c0,11.022-3.684,15.26-13.258,15.26H103.16
				c-9.575,0-13.259-4.238-13.259-15.26l-6.12-57.541"/>
			<g>
				<g>
					<path style="fill:#283A8A;" d="M83.221,433.822c24.267,0,48.533,0,72.8,0c3.845,0,3.845-5.963,0-5.963
						c-24.267,0-48.533,0-72.8,0C79.376,427.859,79.376,433.822,83.221,433.822L83.221,433.822z"/>
				</g>
			</g>
			<g>
				<g>
					<g>
						<path style="fill:#283A8A;" d="M118.501,430.2c0,23.894,0,47.786,0,71.68c0,1.444,2.24,1.444,2.24,0
							c0-23.893,0-47.786,0-71.68C120.742,428.755,118.501,428.755,118.501,430.2L118.501,430.2z"/>
					</g>
				</g>
				<g>
					<g>
						<path style="fill:#283A8A;" d="M88.821,469.4c20.534,0,41.067,0,61.601,0c1.444,0,1.444-2.24,0-2.24
							c-20.534,0-41.067,0-61.601,0C87.376,467.16,87.376,469.4,88.821,469.4L88.821,469.4z"/>
					</g>
				</g>
				<g>
					<g>
						<path style="fill:#283A8A;" d="M87.702,457.08c21.28,0,42.56,0,63.84,0c1.444,0,1.444-2.24,0-2.24c-21.28,0-42.56,0-63.84,0
							C86.257,454.839,86.257,457.08,87.702,457.08L87.702,457.08z"/>
					</g>
				</g>
				<g>
					<g>
						<path style="fill:#283A8A;" d="M91.622,494.041c18.666,0,37.333,0,56,0c1.444,0,1.444-2.24,0-2.24c-18.667,0-37.334,0-56,0
							C90.177,491.8,90.177,494.041,91.622,494.041L91.622,494.041z"/>
					</g>
				</g>
				<g>
					<g>
						<path style="fill:#283A8A;" d="M90.501,481.72c19.414,0,38.827,0,58.24,0c1.444,0,1.444-2.24,0-2.24
							c-19.413,0-38.827,0-58.24,0C89.057,479.48,89.057,481.72,90.501,481.72L90.501,481.72z"/>
					</g>
				</g>
				<g>
					<g>
						<path style="fill:#283A8A;" d="M86.021,444.761c22.4,0,44.8,0,67.2,0c1.444,0,1.444-2.24,0-2.24c-22.4,0-44.8,0-67.2,0
							C84.577,442.521,84.577,444.761,86.021,444.761L86.021,444.761z"/>
					</g>
				</g>
				<g>
					<g>
						<path style="fill:#283A8A;" d="M105.15,432.813c0.989,22.898,1.978,45.796,2.966,68.693c0.062,1.438,2.303,1.445,2.24,0
							c-0.989-22.898-1.978-45.796-2.966-68.693C107.328,431.375,105.087,431.368,105.15,432.813L105.15,432.813z"/>
					</g>
				</g>
				<g>
					<g>
						<path style="fill:#283A8A;" d="M91.059,432.44c2.472,23.146,4.943,46.293,7.415,69.439c0.152,1.421,2.394,1.436,2.24,0
							c-2.472-23.146-4.943-46.293-7.415-69.439C93.147,431.019,90.906,431.004,91.059,432.44L91.059,432.44z"/>
					</g>
				</g>
				<g>
					<g>
						<path style="fill:#283A8A;" d="M131.848,432.813c-0.988,22.898-1.977,45.796-2.966,68.693c-0.063,1.445,2.178,1.438,2.24,0
							c0.988-22.898,1.977-45.796,2.966-68.693C134.151,431.368,131.91,431.375,131.848,432.813L131.848,432.813z"/>
					</g>
				</g>
				<g>
					<g>
						<path style="fill:#283A8A;" d="M145.939,432.44c-2.472,23.146-4.944,46.293-7.416,69.439c-0.153,1.436,2.088,1.421,2.24,0
							c2.472-23.146,4.944-46.293,7.416-69.439C148.333,431.004,146.091,431.019,145.939,432.44L145.939,432.44z"/>
					</g>
				</g>
			</g>
		</g>
	</g>
	<g>
		<defs>
			
				<rect id="SVGID_00000129189845662868646740000003911831425556413627_" x="204.069" y="152.967" width="295.931" height="347.033"/>
		</defs>
		<clipPath id="SVGID_00000079474347286301415670000012119986705471120574_">
			<use xlink:href="#SVGID_00000129189845662868646740000003911831425556413627_"  style="overflow:visible;"/>
		</clipPath>
		<g style="clip-path:url(#SVGID_00000079474347286301415670000012119986705471120574_);">
			<g>
				<path style="fill:#3E51A1;" d="M325.319,328.393c-0.95-15.922-0.629-33.043,6.649-44.65c16.084-25.65,66.5-18.051,81.701-18.051
					c31.35,0,68.398-1.898,75.049,34.201c5.701,30.4-0.633,63.65-7.6,96.9c-4.711,22.488-16.219,72.688-24.768,94.539
					c-15.201,35.149-55.033,10.91-88.282,10.91c-33.25,0-81.7-0.949-77.899-45.6"/>
			</g>
			<g>
				<g>
					<g>
						<path style="fill:#283A8A;" d="M374.718,170.693c-38.811-17.101-47.024,34.438-39.899,80.749
							c4.536,29.484,17.575,47.977,64.601,51.301c9.664,0.684,22.799-6.65,32.299-9.5c14.25-3.801,22.801-7.6,22.801-21.85
							c0-23.75,3.563-71.25-21.85-98.801C421.701,160.702,389.919,155.493,374.718,170.693"/>
					</g>
					<g>
						<path style="fill:#BA9332;" d="M375.205,308.264l0.465-20.721c-25.65-2.287-54.15,4.668-45.125,44.615h27.881"/>
					</g>
					<g>
						<path style="fill:#F0C44D;" d="M343.369,381.592c0-27.549-1.9-72.199,25.65-89.299c28.5-16.15,57-2.852,69.35,24.699
							c10.449,24.699,7.6,46.551-1.9,71.25c-2.85,9.5-5.699,33.25-13.299,39.9c-8.551,7.6-28.5-2.85-39.9-5.701
							c-12.35-3.799-57-24.699-48.45-39.898"/>
					</g>
					<g>
						<g>
							<path style="fill:#FFFFFF;" d="M326.789,336.143c9.734,5.133,19.362,10.588,30.412,12.236
								c13.409,2.006,26.707,0.201,39.941-2.148l3.434-18.428c-11.893-14.172-44.264-9.035-52.924,6.176
								c-3.126-21.723-24.542-29.809-41.635-27.813c-0.31,6.57-0.98,13.072-1.859,19.498
								C311.958,328.555,319.404,332.247,326.789,336.143z"/>
						</g>
						<g>
							<path style="fill:#AD008C;" d="M300.661,310.645c18.555-1.717,41.981,6.754,45.745,28.602
								c9.16-15.115,43.938-17.955,57.113-3.539l-11.098,59.928c-25.284-7.266-54.709,2.781-54.709,2.781
								s-19.634-17.357-39.964-17.545C301.304,359.313,301.569,338.368,300.661,310.645"/>
						</g>
						<g>
							<path style="fill:#820069;" d="M335.111,399.071c1.314-9.865,2.379-18.332,3.41-26.553
								c1.477-11.787,2.873-22.914,4.861-36.953l7.141,1.01c-1.982,13.984-3.377,25.086-4.849,36.84
								c-1.034,8.238-2.099,16.723-3.419,26.609L335.111,399.071z"/>
						</g>
					</g>
					<g>
						<path style="fill:#FFCCBE;" d="M301.253,345.493c25.965-4.395,20.158,2.73,5.012,5.652c5.881,0.219,14.664-1.258,14.961,2.688
							c0.186,2.467-10.922,3.617-14.154,3.949c2.939,0.32,12.214,1.332,12.306,3.432c0.122,2.805-6.868,3.18-13.276,3.693
							c3.641,1.127,8.643,1.303,8.48,3.355c-0.254,3.529-9.699,1.516-11.574,1.201c-4.713-0.793-10.829-1.592-13.559-6.063
							c-1.584-2.596-1.815-5.531-1.812-8.727c0.003-3.451,0.817-5.607,3.071-7.939c2.301-2.385,3.24-3.191,6.799-5.629
							c3.35-1.99,5.627-3.453,7.861-2.738C308.986,339.239,303.32,343.811,301.253,345.493"/>
					</g>
					<g>
						<g>
							<path style="fill:#FFCCBE;" d="M361.245,380.243c-0.799,4.16,16.401,4.582,18.372,4.451
								c4.342-0.281,8.535-2.307,12.874-1.887c1.185,0.117,12.979,3.896,12.759,4.43c1.801-4.369,3.51-8.996,4.875-13.512
								c-6.478-2.662-10.711-4.107-14.904-9.74c-2.792-3.748-8.586-9.799-13.693-9.566c-2.827,2.17,2.828,6.6,3.602,8.512
								c-5.963-1.598-12.789-6.039-18.754-6.508c-3.471,1.529,4.154,7.555,7.317,9.426c-5.739-1.305-12.44-4.141-15.149-1.258
								c-2.705,2.881,9.621,6.309,12.658,7.461c-2.92-0.447-12.045-1.824-12.773,0.145c-1.17,3.459,5.816,4.842,11.877,6.99
								C366.496,379.338,361.617,378.217,361.245,380.243z"/>
						</g>
						<g>
							<path style="fill:#BA9332;" d="M432.669,291.342c-26.602-1.9-8.551,30.4-4.75,40.85c8.549,27.551-11.4,29.451-34.201,28.5
								c-3.799,17.102-2.55,28.723,1.9,29.451c18.844,3.086,60.732,7.014,67.746-3.168
								C481.207,361.077,469.078,285.297,432.669,291.342"/>
						</g>
					</g>
					<g>
						<g>
							<path style="fill:#283A8A;" d="M407.019,277.092c0,13.301-2.85,31.35-0.951,43.701c3.801,17.1,28.5,21.85,39.9,7.6
								c12.35-15.201,12.135-58.492,7.322-87.422"/>
						</g>
						<g>
							<g>
								<g>
									<path style="fill:#FFCCBE;" d="M379.468,267.592c0,6.333,0,12.667,0,19c0,6.474,5.401,11.875,11.875,11.875
										s11.875-5.401,11.875-11.875c0-6.333,0-12.667,0-19c0-6.474-5.401-11.875-11.875-11.875S379.468,261.119,379.468,267.592
										L379.468,267.592z"/>
								</g>
							</g>
							<g>
								<path style="fill:#FFCCBE;" d="M350.019,205.842c3.8,33.25-7.6,70.301,38.949,69.35c19,0,38-1.898,40.85-23.75
									c1.9-16.148-1.898-32.299-2.85-47.499"/>
							</g>
							<g>
								<path style="fill:#FFCCBE;" d="M351.919,235.294c-11.4-1.9-14.488,16.148,1.899,13.299"/>
							</g>
							<g>
								<path style="fill:#FFCCBE;" d="M430.794,235.294c11.4-1.9,14.488,16.148-1.9,13.299"/>
							</g>
						</g>
						<g>
							<g>
								<path style="fill:#1E2C68;" d="M369.968,235.294c0,0,0.146,0.238,0.343,0.66c0.101,0.204,0.201,0.492,0.382,0.71
									c0.188,0.232,0.296,0.48,0.542,0.719c0.233,0.238,0.424,0.514,0.724,0.71c0.245,0.242,0.567,0.403,0.865,0.59
									c0.329,0.133,0.639,0.319,0.996,0.38c0.339,0.116,0.698,0.136,1.045,0.169c0.173-0.01,0.346-0.011,0.521-0.007
									c0.166-0.034,0.329-0.066,0.498-0.087c0.177-0.005,0.307-0.114,0.473-0.146c0.168-0.035,0.308-0.116,0.446-0.203
									c0.311-0.13,0.546-0.363,0.814-0.57c0.248-0.226,0.439-0.508,0.673-0.75c0.16-0.286,0.338-0.555,0.501-0.806
									c0.149-0.255,0.236-0.505,0.341-0.706c0.192-0.409,0.337-0.663,0.337-0.663s0.105,0.245,0.228,0.711
									c0.048,0.232,0.162,0.525,0.166,0.863c0.007,0.338,0.009,0.735-0.024,1.177c-0.113,0.42-0.216,0.913-0.454,1.392
									c-0.27,0.465-0.569,0.976-1.056,1.368c-0.113,0.105-0.228,0.214-0.349,0.314c-0.127,0.09-0.268,0.163-0.406,0.244
									c-0.281,0.145-0.557,0.348-0.874,0.417c-0.311,0.088-0.629,0.194-0.952,0.248c-0.324,0.023-0.652,0.042-0.979,0.052
									c-0.645-0.059-1.296-0.147-1.872-0.415c-0.298-0.105-0.579-0.236-0.83-0.419c-0.252-0.175-0.521-0.316-0.729-0.528
									c-0.432-0.41-0.813-0.825-1.058-1.302c-0.299-0.437-0.415-0.928-0.54-1.35c-0.138-0.413-0.096-0.878-0.115-1.216
									c-0.035-0.36,0.077-0.613,0.126-0.844C369.868,235.554,369.968,235.294,369.968,235.294z"/>
							</g>
							<g>
								<path style="fill:#1E2C68;" d="M405.119,235.294c0,0,0.101,0.261,0.219,0.712c0.049,0.23,0.161,0.483,0.126,0.844
									c-0.019,0.338,0.023,0.803-0.115,1.216c-0.125,0.421-0.241,0.913-0.54,1.35c-0.245,0.477-0.626,0.893-1.058,1.302
									c-0.208,0.212-0.478,0.353-0.729,0.528c-0.251,0.183-0.532,0.315-0.83,0.419c-0.576,0.268-1.228,0.356-1.872,0.415
									c-0.327-0.01-0.655-0.029-0.98-0.052c-0.323-0.054-0.641-0.16-0.952-0.248c-0.317-0.069-0.593-0.272-0.874-0.417
									c-0.138-0.081-0.279-0.154-0.406-0.244c-0.121-0.101-0.235-0.21-0.349-0.314c-0.486-0.392-0.785-0.902-1.056-1.368
									c-0.238-0.478-0.341-0.971-0.454-1.392c-0.032-0.441-0.03-0.838-0.023-1.177c0.004-0.337,0.118-0.63,0.166-0.863
									c0.122-0.466,0.228-0.711,0.228-0.711s0.145,0.254,0.337,0.663c0.104,0.201,0.191,0.451,0.341,0.706
									c0.163,0.252,0.341,0.521,0.501,0.806c0.233,0.242,0.425,0.524,0.673,0.75c0.269,0.207,0.504,0.44,0.814,0.57
									c0.139,0.086,0.278,0.168,0.446,0.203c0.166,0.033,0.296,0.141,0.473,0.146c0.169,0.021,0.332,0.054,0.498,0.087
									c0.175-0.004,0.348-0.003,0.521,0.007c0.347-0.033,0.706-0.053,1.045-0.169c0.357-0.062,0.667-0.247,0.996-0.38
									c0.298-0.187,0.62-0.348,0.865-0.59c0.3-0.196,0.49-0.472,0.724-0.71c0.246-0.239,0.354-0.487,0.542-0.719
									c0.181-0.218,0.281-0.506,0.382-0.71C404.973,235.532,405.119,235.294,405.119,235.294z"/>
							</g>
							<g>
								<g>
									<path style="fill:#D85FA2;" d="M365.218,257.143c6.126,0,6.126-9.5,0-9.5S359.092,257.143,365.218,257.143L365.218,257.143
										z"/>
								</g>
							</g>
							<g>
								<g>
									<path style="fill:#D85FA2;" d="M411.769,257.143c6.126,0,6.126-9.5,0-9.5C405.643,247.643,405.643,257.143,411.769,257.143
										L411.769,257.143z"/>
								</g>
							</g>
							<g>
								<path style="fill:#FFFFFF;" d="M374.253,249.544c7.746,0.836,18.242,0.413,27.531-0.951
									C402.646,268.543,374.253,268.543,374.253,249.544"/>
							</g>
							<g>
								<g>
									<path style="fill:#BF998F;" d="M385.763,237.43c-0.001,2.065-0.029,4.12-0.238,6.176c0.251-0.191,0.501-0.382,0.752-0.573
										c-1.023-0.372-1.934-0.299-3.008-0.259c-0.291,0.011-0.467,0.18-0.572,0.436c-1.653,3.985,2.823,5.076,5.622,3.284
										c0.643-0.412,0.048-1.44-0.6-1.025c-1.905,1.221-5.117,1.045-3.878-1.943c-0.19,0.145-0.382,0.29-0.572,0.436
										c0.936-0.034,1.792-0.11,2.691,0.217c0.395,0.144,0.716-0.22,0.752-0.573c0.209-2.056,0.237-4.111,0.238-6.176
										C386.951,236.665,385.763,236.665,385.763,237.43L385.763,237.43z"/>
								</g>
							</g>
						</g>
						<g>
							<g>
								<path style="fill:#283A8A;" d="M377.569,181.143c8.224-18.547,28.888-19.375,41.089-6.889
									c12.529,12.821,0.963,40.193,14.889,51.346c-11.982,0.861-24.236,0.503-33.059-8.025c0.869,3.563,3.109,7.846,5.482,10.879
									c-25.042,1.678-56.916-10.637-46.451-41.611"/>
							</g>
							<g>
								<path style="fill:#283A8A;" d="M366.169,195.393c-6.65,17.1-7.744,32.3-10.451,51.3c-9.5-16.388-11.615-35.052-11.399-53.2"
									/>
							</g>
							<g>
								<path style="fill:#283A8A;" d="M416.544,195.393c6.65,17.1,7.744,32.3,10.451,51.3c9.5-16.388,11.615-35.052,11.398-53.2"/>
							</g>
						</g>
						<g>
							<g>
								<path style="fill:#D85FA2;" d="M353.819,197.294c0,0,0.158-0.394,0.454-1.133c0.154-0.366,0.344-0.816,0.567-1.347
									c0.115-0.263,0.222-0.554,0.369-0.85c0.167-0.292,0.345-0.601,0.533-0.928c0.381-0.655,0.807-1.404,1.316-2.184
									c0.541-0.739,1.156-1.523,1.815-2.379c0.685-0.828,1.519-1.608,2.36-2.496c0.877-0.84,1.899-1.607,2.935-2.478
									c0.548-0.382,1.122-0.754,1.707-1.141c0.589-0.377,1.174-0.806,1.822-1.126c1.277-0.689,2.612-1.41,4.057-1.964
									c2.853-1.234,6.038-2.069,9.378-2.616c0.839-0.112,1.686-0.225,2.537-0.339c0.856-0.08,1.719-0.101,2.589-0.151l1.311-0.062
									l1.314,0.022c0.879,0.03,1.767,0.032,2.65,0.109c3.548,0.243,7.101,0.962,10.577,1.945c3.451,1.081,6.797,2.517,9.905,4.287
									c0.76,0.473,1.518,0.944,2.271,1.413c0.76,0.455,1.44,1.036,2.15,1.552c1.435,1.013,2.701,2.231,3.962,3.378
									c2.398,2.458,4.485,5.063,6.021,7.812c0.427,0.655,0.727,1.38,1.064,2.062c0.315,0.694,0.675,1.347,0.927,2.04
									c0.239,0.694,0.475,1.377,0.706,2.047c0.112,0.333,0.225,0.663,0.336,0.989c0.09,0.334,0.158,0.671,0.232,1.002
									c0.277,1.327,0.614,2.564,0.681,3.793c0.103,1.218,0.277,2.346,0.202,3.43c-0.046,1.077-0.001,2.069-0.128,2.983
									c-0.133,0.905-0.256,1.737-0.366,2.488c-0.088,0.745-0.282,1.395-0.446,1.958c-0.159,0.559-0.295,1.034-0.404,1.419
									c-0.232,0.759-0.356,1.164-0.356,1.164s-0.046-0.424-0.133-1.218c-0.036-0.391-0.082-0.874-0.136-1.441
									c-0.058-0.563-0.09-1.205-0.242-1.919c-0.12-0.705-0.254-1.485-0.398-2.335c-0.154-0.84-0.435-1.728-0.666-2.669
									c-0.2-0.948-0.598-1.91-0.955-2.919c-0.311-1.022-0.839-2.026-1.321-3.076c-0.121-0.261-0.243-0.525-0.367-0.792
									c-0.148-0.255-0.299-0.512-0.451-0.772c-0.299-0.516-0.604-1.041-0.913-1.575c-0.324-0.523-0.712-1.022-1.066-1.545
									c-0.372-0.513-0.698-1.059-1.15-1.538c-0.429-0.492-0.844-1-1.264-1.51c-0.421-0.51-0.938-0.958-1.404-1.448
									c-0.917-0.993-2.026-1.854-3.067-2.789c-2.236-1.732-4.684-3.321-7.313-4.717c-2.674-1.312-5.469-2.502-8.386-3.374
									c-2.916-0.863-5.903-1.501-8.883-1.881c-2.981-0.301-5.945-0.492-8.804-0.307c-2.849,0.188-5.622,0.513-8.168,1.183
									c-2.588,0.564-4.913,1.485-7.079,2.38c-1.027,0.533-2.056,1.012-2.994,1.537c-0.906,0.568-1.805,1.084-2.612,1.627
									c-0.79,0.58-1.529,1.124-2.213,1.627c-0.65,0.534-1.21,1.064-1.763,1.526c-0.273,0.236-0.531,0.46-0.775,0.67
									c-0.237,0.224-0.445,0.456-0.647,0.66c-0.399,0.414-0.739,0.766-1.015,1.052
									C354.119,196.993,353.819,197.294,353.819,197.294z"/>
							</g>
							<g>
								<path style="fill:#D85FA2;" d="M403.218,182.092c0,0-0.07-0.071-0.202-0.206c-0.113-0.135-0.318-0.331-0.501-0.584
									c-0.412-0.504-0.921-1.228-1.382-2.104c-0.23-0.438-0.453-0.913-0.656-1.418c-0.191-0.51-0.391-1.037-0.577-1.559
									c-0.38-1.058-0.617-2.184-0.75-3.321c-0.06-0.569-0.092-1.141-0.092-1.709c-0.014-0.588,0.005-1.17,0.066-1.739
									c0.1-1.135,0.329-2.213,0.63-3.152c0.152-0.454,0.315-0.952,0.487-1.347c0.164-0.403,0.359-0.746,0.511-1.021
									c0.139-0.275,0.31-0.486,0.399-0.627c0.101-0.142,0.167-0.215,0.167-0.215s0.075,0.073,0.216,0.211
									c0.122,0.137,0.34,0.334,0.539,0.578c0.211,0.244,0.479,0.531,0.728,0.85c0.257,0.328,0.507,0.646,0.776,1.08
									c0.525,0.838,1.019,1.833,1.399,2.918c0.201,0.541,0.365,1.107,0.5,1.686c0.127,0.6,0.223,1.215,0.291,1.833
									c0.125,1.237,0.144,2.484,0.004,3.652c-0.096,1.18-0.46,2.202-0.806,3.126c-0.359,0.913-0.784,1.679-1.137,2.217
									c-0.153,0.269-0.336,0.482-0.433,0.627C403.28,182.015,403.218,182.092,403.218,182.092z"/>
							</g>
							<g>
								<path style="fill:#D85FA2;" d="M404.169,183.993c0,0-0.014-0.109-0.04-0.314c-0.01-0.196-0.06-0.501-0.054-0.852
									c-0.028-0.724,0-1.72,0.165-2.841c0.159-1.122,0.462-2.376,0.869-3.635c0.399-1.271,0.969-2.54,1.632-3.761
									c0.643-1.222,1.366-2.396,2.193-3.431c0.397-0.524,0.842-1.006,1.244-1.468c0.405-0.46,0.816-0.884,1.22-1.268
									c0.807-0.767,1.6-1.365,2.209-1.766c0.283-0.21,0.562-0.352,0.729-0.459c0.184-0.101,0.281-0.154,0.281-0.154
									s0.032,0.109,0.069,0.306c0.028,0.192,0.105,0.49,0.131,0.839c0.093,0.718,0.147,1.718,0.07,2.869
									c-0.067,1.157-0.271,2.463-0.688,3.755c-0.385,1.311-0.94,2.647-1.602,3.92c-0.696,1.247-1.484,2.444-2.358,3.487
									c-0.854,1.061-1.781,1.942-2.664,2.657c-0.879,0.716-1.721,1.251-2.357,1.598c-0.299,0.185-0.587,0.3-0.761,0.391
									C404.27,183.949,404.169,183.993,404.169,183.993z"/>
							</g>
						</g>
						<g>
							<g>
								<path style="fill:#BA9332;" d="M374.329,287.224c5.828,14.78,28.487,14.972,34.029,0c1.065-2.879-3.526-4.11-4.58-1.264
									c-3.843,10.382-20.788,10.349-24.869,0C377.798,283.146,373.204,284.371,374.329,287.224L374.329,287.224z"/>
							</g>
						</g>
					</g>
				</g>
				<g>
					<g>
						<path style="fill:#1E2C68;" d="M259.769,500c4.75-16.15,16.15-66.158,30.4-76.607c17.1-11.4,34.199-0.951,38,18.049
							c1.899,9.5,0,57.217-6.65,61.967"/>
					</g>
					<g>
						<path style="fill:#1E2C68;" d="M416.552,430.489c-36.006-21.133-116.616-66.945-149.543-48.371
							c-24.536,13.842-40.072,90.678-59.175,130.287c43.968,2.594,74.819-38.238,73.337-84.266
							C309.68,470.362,416.552,505.672,416.552,430.489"/>
					</g>
					<g>
						<path style="fill:#283A8A;" d="M263.191,473.04c0,0-0.011-0.488-0.032-1.405c0.005-0.912,0.014-2.275,0.159-3.988
							c0.16-1.711,0.36-3.803,0.813-6.163c0.429-2.365,1.004-5.027,1.86-7.876c0.837-2.854,1.889-5.919,3.31-9.061
							c1.421-3.139,3.169-6.378,5.458-9.497c0.564-0.783,1.196-1.542,1.826-2.307c0.688-0.727,1.327-1.5,2.1-2.186
							c1.45-1.442,3.168-2.728,5.065-3.804c1.883-1.103,4.074-1.858,6.333-2.219c2.271-0.396,4.627-0.218,6.827,0.271l1.638,0.429
							l1.554,0.594l0.773,0.302l0.727,0.369l1.447,0.744l0.181,0.094l0.266,0.164l0.306,0.195l0.609,0.392l1.212,0.789l0.604,0.396
							l0.623,0.463l1.239,0.929l1.223,0.929l1.132,0.948c0.742,0.64,1.506,1.259,2.197,1.921c0.704,0.651,1.404,1.3,2.1,1.943
							c0.669,0.659,1.333,1.313,1.991,1.962c2.607,2.599,5.015,5.174,7.324,7.53c2.315,2.353,4.499,4.561,6.65,6.422
							c0.538,0.467,1.065,0.923,1.581,1.369c0.536,0.417,1.06,0.824,1.569,1.221c0.995,0.846,2.032,1.489,2.984,2.151
							c0.935,0.701,1.921,1.134,2.777,1.672c0.856,0.545,1.707,0.899,2.47,1.248c0.384,0.175,0.746,0.34,1.087,0.496
							c0.339,0.168,0.662,0.31,0.975,0.403c0.622,0.216,1.15,0.4,1.579,0.549c0.864,0.309,1.325,0.474,1.325,0.474
							s-0.485-0.054-1.395-0.153c-0.91-0.119-2.28-0.206-3.943-0.698c-0.842-0.211-1.792-0.418-2.765-0.809
							c-0.979-0.367-2.085-0.709-3.16-1.27c-1.091-0.534-2.295-1.055-3.455-1.768c-0.59-0.348-1.194-0.704-1.813-1.068
							c-0.593-0.4-1.199-0.81-1.818-1.228c-1.261-0.819-2.472-1.777-3.765-2.737c-1.258-0.987-2.532-2.047-3.816-3.142
							c-2.569-2.203-5.166-4.584-7.859-6.984c-2.667-2.4-5.52-4.789-8.407-6.896l-1.078-0.771l-0.54-0.388l-0.614-0.379
							l-1.229-0.761l-0.613-0.387l-0.307-0.192l-0.077-0.049l-0.038-0.023c-0.112-0.068,0.108,0.064,0.073,0.045l-0.144-0.071
							l-1.143-0.571l-0.57-0.289l-0.586-0.216l-1.168-0.442l-1.185-0.295c-3.153-0.793-6.353-0.27-9.256,1.248
							c-2.899,1.53-5.476,3.921-7.65,6.547c-2.175,2.642-4.025,5.494-5.609,8.313c-1.58,2.825-2.933,5.611-4.063,8.241
							c-1.11,2.639-2.06,5.103-2.826,7.318c-0.755,2.219-1.346,4.183-1.802,5.814c-0.426,1.639-0.761,2.926-0.945,3.824
							C263.292,472.561,263.191,473.04,263.191,473.04z"/>
					</g>
				</g>
			</g>
			<g>
				<path style="fill:#283A8A;" d="M294.919,501.293c-2.619-47.176,26.31-43.701,95-43.701c24.699,0,55.086-6.504,54.148,43.701"/>
			</g>
			<g>
				<g>
					<g>
						<path style="fill:#536CD6;" d="M393.471,392.503c-9.684,4.161-10.619,18.037-11.142,27.004
							c-0.941,16.15,1.019,32.464,2.364,48.537c0.254,3.029,5.006,3.054,4.75,0c-1.201-14.349-2.64-28.72-2.531-43.135
							c0.062-8.276-0.347-24.307,8.955-28.305C398.675,395.398,396.253,391.307,393.471,392.503L393.471,392.503z"/>
					</g>
				</g>
				<g>
					<g>
						<path style="fill:#536CD6;" d="M382.662,399.124c27.536,0,55.071,0,82.607,0c6.126,0,6.126-9.5,0-9.5
							c-27.536,0-55.071,0-82.607,0C376.536,389.624,376.536,399.124,382.662,399.124L382.662,399.124z"/>
					</g>
				</g>
			</g>
		</g>
	</g>
</g>
</svg>
